solid OpenSCAD_Model
  facet normal -1 0 0
    outer loop
      vertex -20 -17 0
      vertex -20 -17 0.3
      vertex -20 17 0
    endloop
  endfacet
  facet normal -1 0 0
    outer loop
      vertex -20 17 0
      vertex -20 -17 0.3
      vertex -20 17 0.3
    endloop
  endfacet
  facet normal -0.994522 -0.104528 0
    outer loop
      vertex -20 -17 0
      vertex -19.9344 -17.6237 0
      vertex -20 -17 0.3
    endloop
  endfacet
  facet normal -0.994522 -0.104528 0
    outer loop
      vertex -20 -17 0.3
      vertex -19.9344 -17.6237 0
      vertex -19.9344 -17.6237 0.3
    endloop
  endfacet
  facet normal 0 0 -1
    outer loop
      vertex -20 -17 0
      vertex -20 17 0
      vertex -19.9344 -17.6237 0
    endloop
  endfacet
  facet normal 0 0 -1
    outer loop
      vertex -19.9344 -17.6237 0
      vertex -20 17 0
      vertex -19.9344 17.6237 0
    endloop
  endfacet
  facet normal 0 0 -1
    outer loop
      vertex -19.9344 -17.6237 0
      vertex -19.9344 17.6237 0
      vertex -19.7406 18.2202 0
    endloop
  endfacet
  facet normal 0 0 -1
    outer loop
      vertex -19.9344 -17.6237 0
      vertex -19.7406 18.2202 0
      vertex -19.4271 18.7634 0
    endloop
  endfacet
  facet normal 0 0 -1
    outer loop
      vertex -19.9344 -17.6237 0
      vertex -19.4271 18.7634 0
      vertex -19.0074 19.2294 0
    endloop
  endfacet
  facet normal 0 0 -1
    outer loop
      vertex -19.9344 -17.6237 0
      vertex -19.0074 19.2294 0
      vertex -18.5 19.5981 0
    endloop
  endfacet
  facet normal 0 0 -1
    outer loop
      vertex -19.9344 -17.6237 0
      vertex -18.5 19.5981 0
      vertex -17.9271 19.8532 0
    endloop
  endfacet
  facet normal 0 0 -1
    outer loop
      vertex -17.75 16 0
      vertex -17.9271 19.8532 0
      vertex -17.3136 19.9836 0
    endloop
  endfacet
  facet normal 0 0 -1
    outer loop
      vertex -16.875 14.4845 0
      vertex -18 0 0
      vertex -19.9344 -17.6237 0
    endloop
  endfacet
  facet normal 0 0 -1
    outer loop
      vertex -17 19.9836 0
      vertex -17 20 0
      vertex 17 20 0
    endloop
  endfacet
  facet normal 0 0 -1
    outer loop
      vertex 15.125 17.5155 0
      vertex 17.3136 19.9836 0
      vertex 17.9271 19.8532 0
    endloop
  endfacet
  facet normal 0 0 -1
    outer loop
      vertex 16.875 17.5155 0
      vertex 18.5 19.5981 0
      vertex 19.0074 19.2294 0
    endloop
  endfacet
  facet normal 0 0 -1
    outer loop
      vertex 17.75 16 0
      vertex 19.7406 18.2202 0
      vertex 19.9344 17.6237 0
    endloop
  endfacet
  facet normal 0 0 -1
    outer loop
      vertex 16.875 14.4845 0
      vertex 19.9344 17.6237 0
      vertex 20 17 0
    endloop
  endfacet
  facet normal 0 0 -1
    outer loop
      vertex 17.6067 -3.74241 0
      vertex 20 17 0
      vertex 20 -17 0
    endloop
  endfacet
  facet normal 0 0 -1
    outer loop
      vertex 16.875 -17.5155 0
      vertex 20 -17 0
      vertex 19.9344 -17.6237 0
    endloop
  endfacet
  facet normal 0 0 -1
    outer loop
      vertex 1.88151 -17.9014 0
      vertex 19.9344 -17.6237 0
      vertex 19.7406 -18.2202 0
    endloop
  endfacet
  facet normal 0 0 -1
    outer loop
      vertex -1.88151 -17.9014 0
      vertex 19.7406 -18.2202 0
      vertex 19.4271 -18.7634 0
    endloop
  endfacet
  facet normal 0 0 -1
    outer loop
      vertex -19.9344 -17.6237 0
      vertex 19.4271 -18.7634 0
      vertex 19.0074 -19.2294 0
    endloop
  endfacet
  facet normal 0 0 -1
    outer loop
      vertex -19.9344 -17.6237 0
      vertex 19.0074 -19.2294 0
      vertex 18.5 -19.5981 0
    endloop
  endfacet
  facet normal 0 0 -1
    outer loop
      vertex -19.9344 -17.6237 0
      vertex 18.5 -19.5981 0
      vertex 17.9271 -19.8532 0
    endloop
  endfacet
  facet normal 0 0 -1
    outer loop
      vertex -19.9344 -17.6237 0
      vertex 17.9271 -19.8532 0
      vertex 17.3136 -19.9836 0
    endloop
  endfacet
  facet normal 0 0 -1
    outer loop
      vertex -19.9344 -17.6237 0
      vertex 17.3136 -19.9836 0
      vertex 17 -19.9836 0
    endloop
  endfacet
  facet normal 0 0 -1
    outer loop
      vertex -19.9344 -17.6237 0
      vertex 17 -19.9836 0
      vertex 17 -20 0
    endloop
  endfacet
  facet normal 0 0 -1
    outer loop
      vertex -17 -19.9836 0
      vertex 17 -20 0
      vertex -17 -20 0
    endloop
  endfacet
  facet normal 0 0 -1
    outer loop
      vertex -19.9344 -17.6237 0
      vertex 17 -20 0
      vertex -17 -19.9836 0
    endloop
  endfacet
  facet normal 0 0 -1
    outer loop
      vertex -17.75 -16 0
      vertex -19.9344 -17.6237 0
      vertex -16.875 -14.4845 0
    endloop
  endfacet
  facet normal 0 0 -1
    outer loop
      vertex -19.9344 -17.6237 0
      vertex -17.3136 -19.9836 0
      vertex -17.9271 -19.8532 0
    endloop
  endfacet
  facet normal 0 0 -1
    outer loop
      vertex -19.9344 -17.6237 0
      vertex -17.9271 -19.8532 0
      vertex -18.5 -19.5981 0
    endloop
  endfacet
  facet normal 0 0 -1
    outer loop
      vertex -19.9344 -17.6237 0
      vertex -18.5 -19.5981 0
      vertex -19.0074 -19.2294 0
    endloop
  endfacet
  facet normal 0 0 -1
    outer loop
      vertex -19.9344 -17.6237 0
      vertex -19.0074 -19.2294 0
      vertex -19.4271 -18.7634 0
    endloop
  endfacet
  facet normal 0 0 -1
    outer loop
      vertex -19.9344 -17.6237 0
      vertex -19.4271 -18.7634 0
      vertex -19.7406 -18.2202 0
    endloop
  endfacet
  facet normal 0 0 -1
    outer loop
      vertex -1.88151 17.9014 0
      vertex -17 19.9836 0
      vertex 1.88151 17.9014 0
    endloop
  endfacet
  facet normal 0 0 -1
    outer loop
      vertex -16.875 14.4845 0
      vertex -19.9344 -17.6237 0
      vertex -17.75 16 0
    endloop
  endfacet
  facet normal 0 0 -1
    outer loop
      vertex -18 0 0
      vertex -17.6067 -3.74241 0
      vertex -19.9344 -17.6237 0
    endloop
  endfacet
  facet normal 0 0 -1
    outer loop
      vertex -15.125 -14.4845 0
      vertex -12.0444 -13.3766 0
      vertex -14.25 -16 0
    endloop
  endfacet
  facet normal 0 0 -1
    outer loop
      vertex -17.6067 -3.74241 0
      vertex -16.4438 -7.32126 0
      vertex -19.9344 -17.6237 0
    endloop
  endfacet
  facet normal 0 0 -1
    outer loop
      vertex -16.4438 -7.32126 0
      vertex -14.5623 -10.5801 0
      vertex -19.9344 -17.6237 0
    endloop
  endfacet
  facet normal 0 0 -1
    outer loop
      vertex -1.88151 -17.9014 0
      vertex -19.9344 -17.6237 0
      vertex -15.125 -17.5155 0
    endloop
  endfacet
  facet normal 0 0 -1
    outer loop
      vertex -14.25 -16 0
      vertex -12.0444 -13.3766 0
      vertex -9 -15.5885 0
    endloop
  endfacet
  facet normal 0 0 -1
    outer loop
      vertex 15.125 -17.5155 0
      vertex 19.9344 -17.6237 0
      vertex 1.88151 -17.9014 0
    endloop
  endfacet
  facet normal 0 0 -1
    outer loop
      vertex -19.9344 -17.6237 0
      vertex -1.88151 -17.9014 0
      vertex 19.4271 -18.7634 0
    endloop
  endfacet
  facet normal 0 0 -1
    outer loop
      vertex 5.56231 -17.119 0
      vertex 15.125 -17.5155 0
      vertex 1.88151 -17.9014 0
    endloop
  endfacet
  facet normal 0 0 -1
    outer loop
      vertex 16.875 14.4845 0
      vertex 20 17 0
      vertex 14.5623 10.5801 0
    endloop
  endfacet
  facet normal 0 0 -1
    outer loop
      vertex 17.6067 3.74241 0
      vertex 20 17 0
      vertex 18 0 0
    endloop
  endfacet
  facet normal 0 0 -1
    outer loop
      vertex 16.875 17.5155 0
      vertex 19.7406 18.2202 0
      vertex 17.75 16 0
    endloop
  endfacet
  facet normal 0 0 -1
    outer loop
      vertex 15.125 -17.5155 0
      vertex 9 -15.5885 0
      vertex 14.25 -16 0
    endloop
  endfacet
  facet normal 0 0 -1
    outer loop
      vertex 16.875 17.5155 0
      vertex 19.4271 18.7634 0
      vertex 19.7406 18.2202 0
    endloop
  endfacet
  facet normal 0 0 -1
    outer loop
      vertex 16.875 -14.4845 0
      vertex 14.5623 -10.5801 0
      vertex 20 -17 0
    endloop
  endfacet
  facet normal 0 0 -1
    outer loop
      vertex 16.4438 7.32126 0
      vertex 20 17 0
      vertex 17.6067 3.74241 0
    endloop
  endfacet
  facet normal 0 0 -1
    outer loop
      vertex 14.5623 -10.5801 0
      vertex 16.4438 -7.32126 0
      vertex 20 -17 0
    endloop
  endfacet
  facet normal 0 0 -1
    outer loop
      vertex 18 0 0
      vertex 20 17 0
      vertex 17.6067 -3.74241 0
    endloop
  endfacet
  facet normal 0 0 -1
    outer loop
      vertex 16.4438 -7.32126 0
      vertex 17.6067 -3.74241 0
      vertex 20 -17 0
    endloop
  endfacet
  facet normal 0 0 -1
    outer loop
      vertex 14.5623 10.5801 0
      vertex 20 17 0
      vertex 16.4438 7.32126 0
    endloop
  endfacet
  facet normal 0 0 -1
    outer loop
      vertex 5.56231 17.119 0
      vertex 17 20 0
      vertex 9 15.5885 0
    endloop
  endfacet
  facet normal 0 0 -1
    outer loop
      vertex 1.88151 17.9014 0
      vertex 17 20 0
      vertex 5.56231 17.119 0
    endloop
  endfacet
  facet normal 0 0 -1
    outer loop
      vertex -17 19.9836 0
      vertex 17 20 0
      vertex 1.88151 17.9014 0
    endloop
  endfacet
  facet normal 0 0 -1
    outer loop
      vertex -5.56231 17.119 0
      vertex -17 19.9836 0
      vertex -1.88151 17.9014 0
    endloop
  endfacet
  facet normal 0 0 -1
    outer loop
      vertex -17.75 16 0
      vertex -17 19.9836 0
      vertex -16.875 17.5155 0
    endloop
  endfacet
  facet normal 0 0 -1
    outer loop
      vertex -16.875 -17.5155 0
      vertex -19.9344 -17.6237 0
      vertex -17.75 -16 0
    endloop
  endfacet
  facet normal 0 0 -1
    outer loop
      vertex -17 19.9836 0
      vertex -5.56231 17.119 0
      vertex -9 15.5885 0
    endloop
  endfacet
  facet normal 0 0 -1
    outer loop
      vertex -15.125 17.5155 0
      vertex -9 15.5885 0
      vertex -12.0444 13.3766 0
    endloop
  endfacet
  facet normal 0 0 -1
    outer loop
      vertex -15.125 14.4845 0
      vertex -12.0444 13.3766 0
      vertex -14.5623 10.5801 0
    endloop
  endfacet
  facet normal 0 0 -1
    outer loop
      vertex -16.875 14.4845 0
      vertex -16.4438 7.32126 0
      vertex -17.6067 3.74241 0
    endloop
  endfacet
  facet normal 0 0 -1
    outer loop
      vertex 17.75 -16 0
      vertex 20 -17 0
      vertex 16.875 -17.5155 0
    endloop
  endfacet
  facet normal 0 0 -1
    outer loop
      vertex -15.125 14.4845 0
      vertex -14.5623 10.5801 0
      vertex -16.4438 7.32126 0
    endloop
  endfacet
  facet normal 0 0 -1
    outer loop
      vertex -15.125 -17.5155 0
      vertex -19.9344 -17.6237 0
      vertex -16.875 -17.5155 0
    endloop
  endfacet
  facet normal 0 0 -1
    outer loop
      vertex -14.25 -16 0
      vertex -5.56231 -17.119 0
      vertex -15.125 -17.5155 0
    endloop
  endfacet
  facet normal 0 0 -1
    outer loop
      vertex -14.25 -16 0
      vertex -9 -15.5885 0
      vertex -5.56231 -17.119 0
    endloop
  endfacet
  facet normal 0 0 -1
    outer loop
      vertex 12.0444 13.3766 0
      vertex 15.125 14.4845 0
      vertex 16.875 14.4845 0
    endloop
  endfacet
  facet normal 0 0 -1
    outer loop
      vertex 16.875 17.5155 0
      vertex 19.0074 19.2294 0
      vertex 19.4271 18.7634 0
    endloop
  endfacet
  facet normal 0 0 -1
    outer loop
      vertex -1.88151 -17.9014 0
      vertex -15.125 -17.5155 0
      vertex -5.56231 -17.119 0
    endloop
  endfacet
  facet normal 0 0 -1
    outer loop
      vertex -17.75 16 0
      vertex -17.3136 19.9836 0
      vertex -17 19.9836 0
    endloop
  endfacet
  facet normal 0 0 -1
    outer loop
      vertex -14.5623 -10.5801 0
      vertex -16.875 -14.4845 0
      vertex -19.9344 -17.6237 0
    endloop
  endfacet
  facet normal 0 0 -1
    outer loop
      vertex -19.9344 -17.6237 0
      vertex -17.9271 19.8532 0
      vertex -17.75 16 0
    endloop
  endfacet
  facet normal 0 0 -1
    outer loop
      vertex -16.875 14.4845 0
      vertex -17.6067 3.74241 0
      vertex -18 0 0
    endloop
  endfacet
  facet normal 0 0 -1
    outer loop
      vertex 15.125 17.5155 0
      vertex 18.5 19.5981 0
      vertex 16.875 17.5155 0
    endloop
  endfacet
  facet normal 0 0 -1
    outer loop
      vertex 15.125 17.5155 0
      vertex 17.9271 19.8532 0
      vertex 18.5 19.5981 0
    endloop
  endfacet
  facet normal 0 0 -1
    outer loop
      vertex -14.25 16 0
      vertex -12.0444 13.3766 0
      vertex -15.125 14.4845 0
    endloop
  endfacet
  facet normal 0 0 -1
    outer loop
      vertex -15.125 17.5155 0
      vertex -12.0444 13.3766 0
      vertex -14.25 16 0
    endloop
  endfacet
  facet normal 0 0 -1
    outer loop
      vertex -17 19.9836 0
      vertex -9 15.5885 0
      vertex -15.125 17.5155 0
    endloop
  endfacet
  facet normal 0 0 -1
    outer loop
      vertex -16.875 17.5155 0
      vertex -17 19.9836 0
      vertex -15.125 17.5155 0
    endloop
  endfacet
  facet normal 0 0 -1
    outer loop
      vertex 9 -15.5885 0
      vertex 12.0444 -13.3766 0
      vertex 14.25 -16 0
    endloop
  endfacet
  facet normal 0 0 -1
    outer loop
      vertex 17.75 16 0
      vertex 19.9344 17.6237 0
      vertex 16.875 14.4845 0
    endloop
  endfacet
  facet normal 0 0 -1
    outer loop
      vertex 15.125 -17.5155 0
      vertex 16.875 -17.5155 0
      vertex 19.9344 -17.6237 0
    endloop
  endfacet
  facet normal 0 0 -1
    outer loop
      vertex 15.125 -17.5155 0
      vertex 5.56231 -17.119 0
      vertex 9 -15.5885 0
    endloop
  endfacet
  facet normal 0 0 -1
    outer loop
      vertex 16.875 -14.4845 0
      vertex 20 -17 0
      vertex 17.75 -16 0
    endloop
  endfacet
  facet normal 0 0 -1
    outer loop
      vertex 12.0444 -13.3766 0
      vertex 14.5623 -10.5801 0
      vertex 16.875 -14.4845 0
    endloop
  endfacet
  facet normal 0 0 -1
    outer loop
      vertex 15.125 14.4845 0
      vertex 12.0444 13.3766 0
      vertex 14.25 16 0
    endloop
  endfacet
  facet normal 0 0 -1
    outer loop
      vertex 12.0444 -13.3766 0
      vertex 16.875 -14.4845 0
      vertex 15.125 -14.4845 0
    endloop
  endfacet
  facet normal 0 0 -1
    outer loop
      vertex 12.0444 13.3766 0
      vertex 16.875 14.4845 0
      vertex 14.5623 10.5801 0
    endloop
  endfacet
  facet normal 0 0 -1
    outer loop
      vertex 1.88151 -17.9014 0
      vertex 19.7406 -18.2202 0
      vertex -1.88151 -17.9014 0
    endloop
  endfacet
  facet normal 0 0 -1
    outer loop
      vertex -17.3136 -19.9836 0
      vertex -19.9344 -17.6237 0
      vertex -17 -19.9836 0
    endloop
  endfacet
  facet normal 0 0 -1
    outer loop
      vertex -12.0444 -13.3766 0
      vertex -15.125 -14.4845 0
      vertex -16.875 -14.4845 0
    endloop
  endfacet
  facet normal 0 0 -1
    outer loop
      vertex -12.0444 -13.3766 0
      vertex -16.875 -14.4845 0
      vertex -14.5623 -10.5801 0
    endloop
  endfacet
  facet normal 0 0 -1
    outer loop
      vertex -15.125 14.4845 0
      vertex -16.4438 7.32126 0
      vertex -16.875 14.4845 0
    endloop
  endfacet
  facet normal 0 0 -1
    outer loop
      vertex 14.25 -16 0
      vertex 12.0444 -13.3766 0
      vertex 15.125 -14.4845 0
    endloop
  endfacet
  facet normal 0 0 -1
    outer loop
      vertex 9 15.5885 0
      vertex 17 20 0
      vertex 17 19.9836 0
    endloop
  endfacet
  facet normal 0 0 -1
    outer loop
      vertex 9 15.5885 0
      vertex 17 19.9836 0
      vertex 17.3136 19.9836 0
    endloop
  endfacet
  facet normal 0 0 -1
    outer loop
      vertex 9 15.5885 0
      vertex 17.3136 19.9836 0
      vertex 15.125 17.5155 0
    endloop
  endfacet
  facet normal 0 0 -1
    outer loop
      vertex 9 15.5885 0
      vertex 15.125 17.5155 0
      vertex 14.25 16 0
    endloop
  endfacet
  facet normal 0 0 -1
    outer loop
      vertex 9 15.5885 0
      vertex 14.25 16 0
      vertex 12.0444 13.3766 0
    endloop
  endfacet
  facet normal -0.994522 0.104528 0
    outer loop
      vertex -20 17 0
      vertex -20 17 0.3
      vertex -19.9344 17.6237 0
    endloop
  endfacet
  facet normal -0.994522 0.104528 0
    outer loop
      vertex -19.9344 17.6237 0
      vertex -20 17 0.3
      vertex -19.9344 17.6237 0.3
    endloop
  endfacet
  facet normal 0 0 1
    outer loop
      vertex -20 17 0.3
      vertex -20 -17 0.3
      vertex -19.9344 -17.6237 0.3
    endloop
  endfacet
  facet normal 0 0 1
    outer loop
      vertex -19.4271 -18.7634 0.3
      vertex -20 17 0.3
      vertex -19.7406 -18.2202 0.3
    endloop
  endfacet
  facet normal 0 0 1
    outer loop
      vertex -19.7406 -18.2202 0.3
      vertex -20 17 0.3
      vertex -19.9344 -17.6237 0.3
    endloop
  endfacet
  facet normal 0 0 1
    outer loop
      vertex -19.0074 -19.2294 0.3
      vertex -20 17 0.3
      vertex -19.4271 -18.7634 0.3
    endloop
  endfacet
  facet normal 0 0 1
    outer loop
      vertex -18.5 -19.5981 0.3
      vertex -20 17 0.3
      vertex -19.0074 -19.2294 0.3
    endloop
  endfacet
  facet normal 0 0 1
    outer loop
      vertex -17.9271 -19.8532 0.3
      vertex -20 17 0.3
      vertex -18.5 -19.5981 0.3
    endloop
  endfacet
  facet normal 0 0 1
    outer loop
      vertex -17.75 -16 0.3
      vertex -20 17 0.3
      vertex -17.9271 -19.8532 0.3
    endloop
  endfacet
  facet normal 0 0 1
    outer loop
      vertex -16.875 -14.4845 0.3
      vertex -14.5623 -10.5801 0.3
      vertex -16.4438 -7.32126 0.3
    endloop
  endfacet
  facet normal 0 0 1
    outer loop
      vertex -16.875 -14.4845 0.3
      vertex -15.125 -14.4845 0.3
      vertex -14.5623 -10.5801 0.3
    endloop
  endfacet
  facet normal 0 0 1
    outer loop
      vertex 17 -20 0.3
      vertex -17 -19.9836 0.3
      vertex -17 -20 0.3
    endloop
  endfacet
  facet normal 0 0 1
    outer loop
      vertex 12.0444 -13.3766 0.3
      vertex 9 -15.5885 0.3
      vertex 15.125 -17.5155 0.3
    endloop
  endfacet
  facet normal 0 0 1
    outer loop
      vertex 14.5623 -10.5801 0.3
      vertex 12.0444 -13.3766 0.3
      vertex 15.125 -14.4845 0.3
    endloop
  endfacet
  facet normal 0 0 1
    outer loop
      vertex 17.75 -16 0.3
      vertex 19.4271 -18.7634 0.3
      vertex 19.7406 -18.2202 0.3
    endloop
  endfacet
  facet normal 0 0 1
    outer loop
      vertex -1.88151 17.9014 0.3
      vertex 1.88151 17.9014 0.3
      vertex 19.4271 18.7634 0.3
    endloop
  endfacet
  facet normal 0 0 1
    outer loop
      vertex 1.88151 17.9014 0.3
      vertex 5.56231 17.119 0.3
      vertex 15.125 17.5155 0.3
    endloop
  endfacet
  facet normal 0 0 1
    outer loop
      vertex 1.88151 17.9014 0.3
      vertex 15.125 17.5155 0.3
      vertex 19.9344 17.6237 0.3
    endloop
  endfacet
  facet normal 0 0 1
    outer loop
      vertex 14.25 16 0.3
      vertex 15.125 17.5155 0.3
      vertex 5.56231 17.119 0.3
    endloop
  endfacet
  facet normal 0 0 1
    outer loop
      vertex 16.875 -17.5155 0.3
      vertex 15.125 -17.5155 0.3
      vertex 17.9271 -19.8532 0.3
    endloop
  endfacet
  facet normal 0 0 1
    outer loop
      vertex -15.125 17.5155 0.3
      vertex -14.25 16 0.3
      vertex -9 15.5885 0.3
    endloop
  endfacet
  facet normal 0 0 1
    outer loop
      vertex -15.125 17.5155 0.3
      vertex -9 15.5885 0.3
      vertex -5.56231 17.119 0.3
    endloop
  endfacet
  facet normal 0 0 1
    outer loop
      vertex 15.125 -17.5155 0.3
      vertex 17 -20 0.3
      vertex 17 -19.9836 0.3
    endloop
  endfacet
  facet normal 0 0 1
    outer loop
      vertex -17 20 0.3
      vertex -17 19.9836 0.3
      vertex 17 20 0.3
    endloop
  endfacet
  facet normal 0 0 1
    outer loop
      vertex 12.0444 -13.3766 0.3
      vertex 15.125 -17.5155 0.3
      vertex 14.25 -16 0.3
    endloop
  endfacet
  facet normal 0 0 1
    outer loop
      vertex -17.9271 19.8532 0.3
      vertex -20 17 0.3
      vertex -17.3136 19.9836 0.3
    endloop
  endfacet
  facet normal 0 0 1
    outer loop
      vertex -18.5 19.5981 0.3
      vertex -20 17 0.3
      vertex -17.9271 19.8532 0.3
    endloop
  endfacet
  facet normal 0 0 1
    outer loop
      vertex -19.0074 19.2294 0.3
      vertex -20 17 0.3
      vertex -18.5 19.5981 0.3
    endloop
  endfacet
  facet normal 0 0 1
    outer loop
      vertex -19.4271 18.7634 0.3
      vertex -20 17 0.3
      vertex -19.0074 19.2294 0.3
    endloop
  endfacet
  facet normal 0 0 1
    outer loop
      vertex -19.7406 18.2202 0.3
      vertex -20 17 0.3
      vertex -19.4271 18.7634 0.3
    endloop
  endfacet
  facet normal 0 0 1
    outer loop
      vertex -19.9344 17.6237 0.3
      vertex -20 17 0.3
      vertex -19.7406 18.2202 0.3
    endloop
  endfacet
  facet normal 0 0 1
    outer loop
      vertex -15.125 17.5155 0.3
      vertex 18.5 19.5981 0.3
      vertex 17.9271 19.8532 0.3
    endloop
  endfacet
  facet normal 0 0 1
    outer loop
      vertex -18 0 0.3
      vertex -20 17 0.3
      vertex -17.6067 -3.74241 0.3
    endloop
  endfacet
  facet normal 0 0 1
    outer loop
      vertex -17.6067 3.74241 0.3
      vertex -20 17 0.3
      vertex -18 0 0.3
    endloop
  endfacet
  facet normal 0 0 1
    outer loop
      vertex 9 -15.5885 0.3
      vertex 5.56231 -17.119 0.3
      vertex 17 -20 0.3
    endloop
  endfacet
  facet normal 0 0 1
    outer loop
      vertex -16.4438 7.32126 0.3
      vertex -20 17 0.3
      vertex -17.6067 3.74241 0.3
    endloop
  endfacet
  facet normal 0 0 1
    outer loop
      vertex -14.25 -16 0.3
      vertex -15.125 -17.5155 0.3
      vertex -12.0444 -13.3766 0.3
    endloop
  endfacet
  facet normal 0 0 1
    outer loop
      vertex -14.5623 10.5801 0.3
      vertex -20 17 0.3
      vertex -16.4438 7.32126 0.3
    endloop
  endfacet
  facet normal 0 0 1
    outer loop
      vertex 15.125 -17.5155 0.3
      vertex 9 -15.5885 0.3
      vertex 17 -20 0.3
    endloop
  endfacet
  facet normal 0 0 1
    outer loop
      vertex -15.125 17.5155 0.3
      vertex 17 19.9836 0.3
      vertex 17 20 0.3
    endloop
  endfacet
  facet normal 0 0 1
    outer loop
      vertex 18 0 0.3
      vertex 17.6067 -3.74241 0.3
      vertex 20 -17 0.3
    endloop
  endfacet
  facet normal 0 0 1
    outer loop
      vertex 1.88151 17.9014 0.3
      vertex 19.9344 17.6237 0.3
      vertex 19.7406 18.2202 0.3
    endloop
  endfacet
  facet normal 0 0 1
    outer loop
      vertex 17.6067 -3.74241 0.3
      vertex 16.4438 -7.32126 0.3
      vertex 20 -17 0.3
    endloop
  endfacet
  facet normal 0 0 1
    outer loop
      vertex 14.25 16 0.3
      vertex 5.56231 17.119 0.3
      vertex 9 15.5885 0.3
    endloop
  endfacet
  facet normal 0 0 1
    outer loop
      vertex 19.0074 19.2294 0.3
      vertex -1.88151 17.9014 0.3
      vertex 19.4271 18.7634 0.3
    endloop
  endfacet
  facet normal 0 0 1
    outer loop
      vertex 19.4271 18.7634 0.3
      vertex 1.88151 17.9014 0.3
      vertex 19.7406 18.2202 0.3
    endloop
  endfacet
  facet normal 0 0 1
    outer loop
      vertex 16.875 17.5155 0.3
      vertex 17.75 16 0.3
      vertex 20 17 0.3
    endloop
  endfacet
  facet normal 0 0 1
    outer loop
      vertex 14.5623 -10.5801 0.3
      vertex 16.875 -14.4845 0.3
      vertex 20 -17 0.3
    endloop
  endfacet
  facet normal 0 0 1
    outer loop
      vertex 16.875 -14.4845 0.3
      vertex 17.75 -16 0.3
      vertex 19.9344 -17.6237 0.3
    endloop
  endfacet
  facet normal 0 0 1
    outer loop
      vertex 14.25 16 0.3
      vertex 9 15.5885 0.3
      vertex 12.0444 13.3766 0.3
    endloop
  endfacet
  facet normal 0 0 1
    outer loop
      vertex 15.125 14.4845 0.3
      vertex 12.0444 13.3766 0.3
      vertex 14.5623 10.5801 0.3
    endloop
  endfacet
  facet normal 0 0 1
    outer loop
      vertex 20 17 0.3
      vertex 14.5623 10.5801 0.3
      vertex 16.4438 7.32126 0.3
    endloop
  endfacet
  facet normal 0 0 1
    outer loop
      vertex 20 17 0.3
      vertex 17.6067 3.74241 0.3
      vertex 20 -17 0.3
    endloop
  endfacet
  facet normal 0 0 1
    outer loop
      vertex 20 17 0.3
      vertex 16.4438 7.32126 0.3
      vertex 17.6067 3.74241 0.3
    endloop
  endfacet
  facet normal 0 0 1
    outer loop
      vertex 17.6067 3.74241 0.3
      vertex 18 0 0.3
      vertex 20 -17 0.3
    endloop
  endfacet
  facet normal 0 0 1
    outer loop
      vertex 16.4438 -7.32126 0.3
      vertex 14.5623 -10.5801 0.3
      vertex 20 -17 0.3
    endloop
  endfacet
  facet normal 0 0 1
    outer loop
      vertex 17.75 -16 0.3
      vertex 16.875 -17.5155 0.3
      vertex 19.0074 -19.2294 0.3
    endloop
  endfacet
  facet normal 0 0 1
    outer loop
      vertex 1.88151 -17.9014 0.3
      vertex -1.88151 -17.9014 0.3
      vertex -17 -19.9836 0.3
    endloop
  endfacet
  facet normal 0 0 1
    outer loop
      vertex 17 -20 0.3
      vertex 1.88151 -17.9014 0.3
      vertex -17 -19.9836 0.3
    endloop
  endfacet
  facet normal 0 0 1
    outer loop
      vertex 17 -20 0.3
      vertex 5.56231 -17.119 0.3
      vertex 1.88151 -17.9014 0.3
    endloop
  endfacet
  facet normal 0 0 1
    outer loop
      vertex 17.75 -16 0.3
      vertex 19.0074 -19.2294 0.3
      vertex 19.4271 -18.7634 0.3
    endloop
  endfacet
  facet normal 0 0 1
    outer loop
      vertex -1.88151 -17.9014 0.3
      vertex -5.56231 -17.119 0.3
      vertex -17 -19.9836 0.3
    endloop
  endfacet
  facet normal 0 0 1
    outer loop
      vertex -5.56231 -17.119 0.3
      vertex -9 -15.5885 0.3
      vertex -17 -19.9836 0.3
    endloop
  endfacet
  facet normal 0 0 1
    outer loop
      vertex -16.875 -17.5155 0.3
      vertex -17.3136 -19.9836 0.3
      vertex -17 -19.9836 0.3
    endloop
  endfacet
  facet normal 0 0 1
    outer loop
      vertex -17.75 -16 0.3
      vertex -16.875 -14.4845 0.3
      vertex -17.6067 -3.74241 0.3
    endloop
  endfacet
  facet normal 0 0 1
    outer loop
      vertex -15.125 17.5155 0.3
      vertex -1.88151 17.9014 0.3
      vertex 19.0074 19.2294 0.3
    endloop
  endfacet
  facet normal 0 0 1
    outer loop
      vertex -17.75 -16 0.3
      vertex -17.6067 -3.74241 0.3
      vertex -20 17 0.3
    endloop
  endfacet
  facet normal 0 0 1
    outer loop
      vertex -17.3136 -19.9836 0.3
      vertex -17.75 -16 0.3
      vertex -17.9271 -19.8532 0.3
    endloop
  endfacet
  facet normal 0 0 1
    outer loop
      vertex -15.125 17.5155 0.3
      vertex 19.0074 19.2294 0.3
      vertex 18.5 19.5981 0.3
    endloop
  endfacet
  facet normal 0 0 1
    outer loop
      vertex -16.4438 -7.32126 0.3
      vertex -17.6067 -3.74241 0.3
      vertex -16.875 -14.4845 0.3
    endloop
  endfacet
  facet normal 0 0 1
    outer loop
      vertex -16.875 14.4845 0.3
      vertex -17.75 16 0.3
      vertex -20 17 0.3
    endloop
  endfacet
  facet normal 0 0 1
    outer loop
      vertex -12.0444 -13.3766 0.3
      vertex -14.5623 -10.5801 0.3
      vertex -15.125 -14.4845 0.3
    endloop
  endfacet
  facet normal 0 0 1
    outer loop
      vertex -12.0444 -13.3766 0.3
      vertex -15.125 -14.4845 0.3
      vertex -14.25 -16 0.3
    endloop
  endfacet
  facet normal 0 0 1
    outer loop
      vertex -9 -15.5885 0.3
      vertex -15.125 -17.5155 0.3
      vertex -17 -19.9836 0.3
    endloop
  endfacet
  facet normal 0 0 1
    outer loop
      vertex -9 -15.5885 0.3
      vertex -12.0444 -13.3766 0.3
      vertex -15.125 -17.5155 0.3
    endloop
  endfacet
  facet normal 0 0 1
    outer loop
      vertex -15.125 17.5155 0.3
      vertex 17.9271 19.8532 0.3
      vertex 17.3136 19.9836 0.3
    endloop
  endfacet
  facet normal 0 0 1
    outer loop
      vertex -17 19.9836 0.3
      vertex -16.875 17.5155 0.3
      vertex 17 20 0.3
    endloop
  endfacet
  facet normal 0 0 1
    outer loop
      vertex -17 19.9836 0.3
      vertex -20 17 0.3
      vertex -16.875 17.5155 0.3
    endloop
  endfacet
  facet normal 0 0 1
    outer loop
      vertex -16.875 17.5155 0.3
      vertex -15.125 17.5155 0.3
      vertex 17 20 0.3
    endloop
  endfacet
  facet normal 0 0 1
    outer loop
      vertex 16.875 -17.5155 0.3
      vertex 17.9271 -19.8532 0.3
      vertex 18.5 -19.5981 0.3
    endloop
  endfacet
  facet normal 0 0 1
    outer loop
      vertex -12.0444 13.3766 0.3
      vertex -15.125 14.4845 0.3
      vertex -16.875 14.4845 0.3
    endloop
  endfacet
  facet normal 0 0 1
    outer loop
      vertex -15.125 17.5155 0.3
      vertex 17.3136 19.9836 0.3
      vertex 17 19.9836 0.3
    endloop
  endfacet
  facet normal 0 0 1
    outer loop
      vertex 17.9271 -19.8532 0.3
      vertex 15.125 -17.5155 0.3
      vertex 17.3136 -19.9836 0.3
    endloop
  endfacet
  facet normal 0 0 1
    outer loop
      vertex -17.75 16 0.3
      vertex -16.875 17.5155 0.3
      vertex -20 17 0.3
    endloop
  endfacet
  facet normal 0 0 1
    outer loop
      vertex 15.125 14.4845 0.3
      vertex 14.25 16 0.3
      vertex 12.0444 13.3766 0.3
    endloop
  endfacet
  facet normal 0 0 1
    outer loop
      vertex 20 -17 0.3
      vertex 16.875 -14.4845 0.3
      vertex 19.9344 -17.6237 0.3
    endloop
  endfacet
  facet normal 0 0 1
    outer loop
      vertex 19.9344 -17.6237 0.3
      vertex 17.75 -16 0.3
      vertex 19.7406 -18.2202 0.3
    endloop
  endfacet
  facet normal 0 0 1
    outer loop
      vertex 19.0074 -19.2294 0.3
      vertex 16.875 -17.5155 0.3
      vertex 18.5 -19.5981 0.3
    endloop
  endfacet
  facet normal 0 0 1
    outer loop
      vertex 15.125 -14.4845 0.3
      vertex 16.875 -14.4845 0.3
      vertex 14.5623 -10.5801 0.3
    endloop
  endfacet
  facet normal 0 0 1
    outer loop
      vertex 16.875 14.4845 0.3
      vertex 15.125 14.4845 0.3
      vertex 14.5623 10.5801 0.3
    endloop
  endfacet
  facet normal 0 0 1
    outer loop
      vertex 17.75 16 0.3
      vertex 16.875 14.4845 0.3
      vertex 20 17 0.3
    endloop
  endfacet
  facet normal 0 0 1
    outer loop
      vertex 15.125 17.5155 0.3
      vertex 16.875 17.5155 0.3
      vertex 19.9344 17.6237 0.3
    endloop
  endfacet
  facet normal 0 0 1
    outer loop
      vertex 19.9344 17.6237 0.3
      vertex 16.875 17.5155 0.3
      vertex 20 17 0.3
    endloop
  endfacet
  facet normal 0 0 1
    outer loop
      vertex 20 17 0.3
      vertex 16.875 14.4845 0.3
      vertex 14.5623 10.5801 0.3
    endloop
  endfacet
  facet normal 0 0 1
    outer loop
      vertex -17 19.9836 0.3
      vertex -17.3136 19.9836 0.3
      vertex -20 17 0.3
    endloop
  endfacet
  facet normal 0 0 1
    outer loop
      vertex 14.25 -16 0.3
      vertex 15.125 -14.4845 0.3
      vertex 12.0444 -13.3766 0.3
    endloop
  endfacet
  facet normal 0 0 1
    outer loop
      vertex -14.25 16 0.3
      vertex -12.0444 13.3766 0.3
      vertex -9 15.5885 0.3
    endloop
  endfacet
  facet normal 0 0 1
    outer loop
      vertex -14.25 16 0.3
      vertex -15.125 14.4845 0.3
      vertex -12.0444 13.3766 0.3
    endloop
  endfacet
  facet normal 0 0 1
    outer loop
      vertex 15.125 -17.5155 0.3
      vertex 17 -19.9836 0.3
      vertex 17.3136 -19.9836 0.3
    endloop
  endfacet
  facet normal 0 0 1
    outer loop
      vertex -15.125 17.5155 0.3
      vertex -5.56231 17.119 0.3
      vertex -1.88151 17.9014 0.3
    endloop
  endfacet
  facet normal 0 0 1
    outer loop
      vertex -16.875 -17.5155 0.3
      vertex -17.75 -16 0.3
      vertex -17.3136 -19.9836 0.3
    endloop
  endfacet
  facet normal 0 0 1
    outer loop
      vertex -15.125 -17.5155 0.3
      vertex -16.875 -17.5155 0.3
      vertex -17 -19.9836 0.3
    endloop
  endfacet
  facet normal 0 0 1
    outer loop
      vertex -14.5623 10.5801 0.3
      vertex -16.875 14.4845 0.3
      vertex -20 17 0.3
    endloop
  endfacet
  facet normal 0 0 1
    outer loop
      vertex -14.5623 10.5801 0.3
      vertex -12.0444 13.3766 0.3
      vertex -16.875 14.4845 0.3
    endloop
  endfacet
  facet normal -0.951056 -0.309018 0
    outer loop
      vertex -19.9344 -17.6237 0
      vertex -19.7406 -18.2202 0
      vertex -19.9344 -17.6237 0.3
    endloop
  endfacet
  facet normal -0.951056 -0.309018 0
    outer loop
      vertex -19.9344 -17.6237 0.3
      vertex -19.7406 -18.2202 0
      vertex -19.7406 -18.2202 0.3
    endloop
  endfacet
  facet normal -0.866026 -0.499999 0
    outer loop
      vertex -19.7406 -18.2202 0
      vertex -19.4271 -18.7634 0
      vertex -19.7406 -18.2202 0.3
    endloop
  endfacet
  facet normal -0.866026 -0.499999 0
    outer loop
      vertex -19.7406 -18.2202 0.3
      vertex -19.4271 -18.7634 0
      vertex -19.4271 -18.7634 0.3
    endloop
  endfacet
  facet normal -0.743144 -0.669131 0
    outer loop
      vertex -19.4271 -18.7634 0
      vertex -19.0074 -19.2294 0
      vertex -19.4271 -18.7634 0.3
    endloop
  endfacet
  facet normal -0.743144 -0.669131 0
    outer loop
      vertex -19.4271 -18.7634 0.3
      vertex -19.0074 -19.2294 0
      vertex -19.0074 -19.2294 0.3
    endloop
  endfacet
  facet normal -0.587785 -0.809017 0
    outer loop
      vertex -19.0074 -19.2294 0.3
      vertex -19.0074 -19.2294 0
      vertex -18.5 -19.5981 0
    endloop
  endfacet
  facet normal -0.587785 -0.809017 0
    outer loop
      vertex -18.5 -19.5981 0.3
      vertex -19.0074 -19.2294 0.3
      vertex -18.5 -19.5981 0
    endloop
  endfacet
  facet normal -0.406738 -0.913545 0
    outer loop
      vertex -18.5 -19.5981 0.3
      vertex -18.5 -19.5981 0
      vertex -17.9271 -19.8532 0
    endloop
  endfacet
  facet normal -0.406738 -0.913545 0
    outer loop
      vertex -17.9271 -19.8532 0.3
      vertex -18.5 -19.5981 0.3
      vertex -17.9271 -19.8532 0
    endloop
  endfacet
  facet normal -0.207911 -0.978148 0
    outer loop
      vertex -17.9271 -19.8532 0.3
      vertex -17.9271 -19.8532 0
      vertex -17.3136 -19.9836 0
    endloop
  endfacet
  facet normal -0.207911 -0.978148 0
    outer loop
      vertex -17.3136 -19.9836 0.3
      vertex -17.9271 -19.8532 0.3
      vertex -17.3136 -19.9836 0
    endloop
  endfacet
  facet normal 0 -1 0
    outer loop
      vertex -17.3136 -19.9836 0.3
      vertex -17.3136 -19.9836 0
      vertex -17 -19.9836 0
    endloop
  endfacet
  facet normal 0 -1 0
    outer loop
      vertex -17 -19.9836 0.3
      vertex -17.3136 -19.9836 0.3
      vertex -17 -19.9836 0
    endloop
  endfacet
  facet normal -1 0 0
    outer loop
      vertex -17 -20 0
      vertex -17 -20 0.3
      vertex -17 -19.9836 0
    endloop
  endfacet
  facet normal -1 0 0
    outer loop
      vertex -17 -19.9836 0
      vertex -17 -20 0.3
      vertex -17 -19.9836 0.3
    endloop
  endfacet
  facet normal 0 -1 0
    outer loop
      vertex -17 -20 0.3
      vertex -17 -20 0
      vertex 17 -20 0
    endloop
  endfacet
  facet normal 0 -1 0
    outer loop
      vertex 17 -20 0.3
      vertex -17 -20 0.3
      vertex 17 -20 0
    endloop
  endfacet
  facet normal 1 0 0
    outer loop
      vertex 17 -20 0.3
      vertex 17 -20 0
      vertex 17 -19.9836 0
    endloop
  endfacet
  facet normal 1 0 0
    outer loop
      vertex 17 -19.9836 0.3
      vertex 17 -20 0.3
      vertex 17 -19.9836 0
    endloop
  endfacet
  facet normal 0 -1 0
    outer loop
      vertex 17 -19.9836 0.3
      vertex 17 -19.9836 0
      vertex 17.3136 -19.9836 0
    endloop
  endfacet
  facet normal 0 -1 0
    outer loop
      vertex 17.3136 -19.9836 0.3
      vertex 17 -19.9836 0.3
      vertex 17.3136 -19.9836 0
    endloop
  endfacet
  facet normal 0.207911 -0.978148 0
    outer loop
      vertex 17.3136 -19.9836 0.3
      vertex 17.3136 -19.9836 0
      vertex 17.9271 -19.8532 0
    endloop
  endfacet
  facet normal 0.207911 -0.978148 0
    outer loop
      vertex 17.9271 -19.8532 0.3
      vertex 17.3136 -19.9836 0.3
      vertex 17.9271 -19.8532 0
    endloop
  endfacet
  facet normal 0.406738 -0.913545 0
    outer loop
      vertex 17.9271 -19.8532 0.3
      vertex 17.9271 -19.8532 0
      vertex 18.5 -19.5981 0
    endloop
  endfacet
  facet normal 0.406738 -0.913545 0
    outer loop
      vertex 18.5 -19.5981 0.3
      vertex 17.9271 -19.8532 0.3
      vertex 18.5 -19.5981 0
    endloop
  endfacet
  facet normal 0.587785 -0.809017 0
    outer loop
      vertex 18.5 -19.5981 0.3
      vertex 18.5 -19.5981 0
      vertex 19.0074 -19.2294 0
    endloop
  endfacet
  facet normal 0.587785 -0.809017 0
    outer loop
      vertex 19.0074 -19.2294 0.3
      vertex 18.5 -19.5981 0.3
      vertex 19.0074 -19.2294 0
    endloop
  endfacet
  facet normal 0.743144 -0.669131 0
    outer loop
      vertex 19.0074 -19.2294 0.3
      vertex 19.0074 -19.2294 0
      vertex 19.4271 -18.7634 0
    endloop
  endfacet
  facet normal 0.743144 -0.669131 0
    outer loop
      vertex 19.4271 -18.7634 0.3
      vertex 19.0074 -19.2294 0.3
      vertex 19.4271 -18.7634 0
    endloop
  endfacet
  facet normal 0.866026 -0.499999 0
    outer loop
      vertex 19.4271 -18.7634 0.3
      vertex 19.4271 -18.7634 0
      vertex 19.7406 -18.2202 0
    endloop
  endfacet
  facet normal 0.866026 -0.499999 0
    outer loop
      vertex 19.7406 -18.2202 0.3
      vertex 19.4271 -18.7634 0.3
      vertex 19.7406 -18.2202 0
    endloop
  endfacet
  facet normal 0.951056 -0.309018 0
    outer loop
      vertex 19.7406 -18.2202 0.3
      vertex 19.7406 -18.2202 0
      vertex 19.9344 -17.6237 0
    endloop
  endfacet
  facet normal 0.951056 -0.309018 0
    outer loop
      vertex 19.9344 -17.6237 0.3
      vertex 19.7406 -18.2202 0.3
      vertex 19.9344 -17.6237 0
    endloop
  endfacet
  facet normal 0.994522 -0.104528 0
    outer loop
      vertex 19.9344 -17.6237 0.3
      vertex 19.9344 -17.6237 0
      vertex 20 -17 0
    endloop
  endfacet
  facet normal 0.994522 -0.104528 0
    outer loop
      vertex 20 -17 0.3
      vertex 19.9344 -17.6237 0.3
      vertex 20 -17 0
    endloop
  endfacet
  facet normal 1 0 0
    outer loop
      vertex 20 -17 0.3
      vertex 20 -17 0
      vertex 20 17 0
    endloop
  endfacet
  facet normal 1 0 0
    outer loop
      vertex 20 17 0.3
      vertex 20 -17 0.3
      vertex 20 17 0
    endloop
  endfacet
  facet normal 0.994522 0.104528 0
    outer loop
      vertex 20 17 0
      vertex 19.9344 17.6237 0
      vertex 19.9344 17.6237 0.3
    endloop
  endfacet
  facet normal 0.994522 0.104528 0
    outer loop
      vertex 20 17 0.3
      vertex 20 17 0
      vertex 19.9344 17.6237 0.3
    endloop
  endfacet
  facet normal 0.951056 0.309018 0
    outer loop
      vertex 19.9344 17.6237 0
      vertex 19.7406 18.2202 0
      vertex 19.7406 18.2202 0.3
    endloop
  endfacet
  facet normal 0.951056 0.309018 0
    outer loop
      vertex 19.9344 17.6237 0.3
      vertex 19.9344 17.6237 0
      vertex 19.7406 18.2202 0.3
    endloop
  endfacet
  facet normal 0.866026 0.499999 0
    outer loop
      vertex 19.7406 18.2202 0
      vertex 19.4271 18.7634 0
      vertex 19.4271 18.7634 0.3
    endloop
  endfacet
  facet normal 0.866026 0.499999 0
    outer loop
      vertex 19.7406 18.2202 0.3
      vertex 19.7406 18.2202 0
      vertex 19.4271 18.7634 0.3
    endloop
  endfacet
  facet normal 0.743144 0.669131 0
    outer loop
      vertex 19.4271 18.7634 0
      vertex 19.0074 19.2294 0
      vertex 19.0074 19.2294 0.3
    endloop
  endfacet
  facet normal 0.743144 0.669131 0
    outer loop
      vertex 19.4271 18.7634 0.3
      vertex 19.4271 18.7634 0
      vertex 19.0074 19.2294 0.3
    endloop
  endfacet
  facet normal 0.587785 0.809017 0
    outer loop
      vertex 18.5 19.5981 0
      vertex 18.5 19.5981 0.3
      vertex 19.0074 19.2294 0
    endloop
  endfacet
  facet normal 0.587785 0.809017 0
    outer loop
      vertex 19.0074 19.2294 0
      vertex 18.5 19.5981 0.3
      vertex 19.0074 19.2294 0.3
    endloop
  endfacet
  facet normal 0.406738 0.913545 0
    outer loop
      vertex 17.9271 19.8532 0
      vertex 17.9271 19.8532 0.3
      vertex 18.5 19.5981 0
    endloop
  endfacet
  facet normal 0.406738 0.913545 0
    outer loop
      vertex 18.5 19.5981 0
      vertex 17.9271 19.8532 0.3
      vertex 18.5 19.5981 0.3
    endloop
  endfacet
  facet normal 0.207911 0.978148 0
    outer loop
      vertex 17.3136 19.9836 0
      vertex 17.3136 19.9836 0.3
      vertex 17.9271 19.8532 0
    endloop
  endfacet
  facet normal 0.207911 0.978148 0
    outer loop
      vertex 17.9271 19.8532 0
      vertex 17.3136 19.9836 0.3
      vertex 17.9271 19.8532 0.3
    endloop
  endfacet
  facet normal 0 1 0
    outer loop
      vertex 17 19.9836 0
      vertex 17 19.9836 0.3
      vertex 17.3136 19.9836 0
    endloop
  endfacet
  facet normal 0 1 0
    outer loop
      vertex 17.3136 19.9836 0
      vertex 17 19.9836 0.3
      vertex 17.3136 19.9836 0.3
    endloop
  endfacet
  facet normal 1 0 0
    outer loop
      vertex 17 19.9836 0.3
      vertex 17 19.9836 0
      vertex 17 20 0
    endloop
  endfacet
  facet normal 1 0 0
    outer loop
      vertex 17 20 0.3
      vertex 17 19.9836 0.3
      vertex 17 20 0
    endloop
  endfacet
  facet normal 0 1 0
    outer loop
      vertex -17 20 0
      vertex -17 20 0.3
      vertex 17 20 0
    endloop
  endfacet
  facet normal 0 1 0
    outer loop
      vertex 17 20 0
      vertex -17 20 0.3
      vertex 17 20 0.3
    endloop
  endfacet
  facet normal -1 0 0
    outer loop
      vertex -17 19.9836 0
      vertex -17 19.9836 0.3
      vertex -17 20 0
    endloop
  endfacet
  facet normal -1 0 0
    outer loop
      vertex -17 20 0
      vertex -17 19.9836 0.3
      vertex -17 20 0.3
    endloop
  endfacet
  facet normal 0 1 0
    outer loop
      vertex -17.3136 19.9836 0
      vertex -17.3136 19.9836 0.3
      vertex -17 19.9836 0
    endloop
  endfacet
  facet normal 0 1 0
    outer loop
      vertex -17 19.9836 0
      vertex -17.3136 19.9836 0.3
      vertex -17 19.9836 0.3
    endloop
  endfacet
  facet normal -0.207911 0.978148 0
    outer loop
      vertex -17.9271 19.8532 0
      vertex -17.9271 19.8532 0.3
      vertex -17.3136 19.9836 0
    endloop
  endfacet
  facet normal -0.207911 0.978148 0
    outer loop
      vertex -17.3136 19.9836 0
      vertex -17.9271 19.8532 0.3
      vertex -17.3136 19.9836 0.3
    endloop
  endfacet
  facet normal -0.406738 0.913545 0
    outer loop
      vertex -18.5 19.5981 0
      vertex -18.5 19.5981 0.3
      vertex -17.9271 19.8532 0
    endloop
  endfacet
  facet normal -0.406738 0.913545 0
    outer loop
      vertex -17.9271 19.8532 0
      vertex -18.5 19.5981 0.3
      vertex -17.9271 19.8532 0.3
    endloop
  endfacet
  facet normal -0.587785 0.809017 0
    outer loop
      vertex -19.0074 19.2294 0
      vertex -19.0074 19.2294 0.3
      vertex -18.5 19.5981 0
    endloop
  endfacet
  facet normal -0.587785 0.809017 0
    outer loop
      vertex -18.5 19.5981 0
      vertex -19.0074 19.2294 0.3
      vertex -18.5 19.5981 0.3
    endloop
  endfacet
  facet normal -0.743144 0.669131 0
    outer loop
      vertex -19.4271 18.7634 0
      vertex -19.4271 18.7634 0.3
      vertex -19.0074 19.2294 0
    endloop
  endfacet
  facet normal -0.743144 0.669131 0
    outer loop
      vertex -19.0074 19.2294 0
      vertex -19.4271 18.7634 0.3
      vertex -19.0074 19.2294 0.3
    endloop
  endfacet
  facet normal -0.866026 0.499999 0
    outer loop
      vertex -19.7406 18.2202 0
      vertex -19.7406 18.2202 0.3
      vertex -19.4271 18.7634 0
    endloop
  endfacet
  facet normal -0.866026 0.499999 0
    outer loop
      vertex -19.4271 18.7634 0
      vertex -19.7406 18.2202 0.3
      vertex -19.4271 18.7634 0.3
    endloop
  endfacet
  facet normal -0.951056 0.309018 0
    outer loop
      vertex -19.9344 17.6237 0
      vertex -19.9344 17.6237 0.3
      vertex -19.7406 18.2202 0
    endloop
  endfacet
  facet normal -0.951056 0.309018 0
    outer loop
      vertex -19.7406 18.2202 0
      vertex -19.9344 17.6237 0.3
      vertex -19.7406 18.2202 0.3
    endloop
  endfacet
  facet normal 0.994522 0.104528 0
    outer loop
      vertex -18 0 0.3
      vertex -17.6067 -3.74241 0.3
      vertex -17.6067 -3.74241 0
    endloop
  endfacet
  facet normal 0.994522 0.104528 0
    outer loop
      vertex -18 0 0
      vertex -18 0 0.3
      vertex -17.6067 -3.74241 0
    endloop
  endfacet
  facet normal 0.994522 -0.104528 0
    outer loop
      vertex -17.6067 3.74241 0
      vertex -17.6067 3.74241 0.3
      vertex -18 0 0.3
    endloop
  endfacet
  facet normal 0.994522 -0.104528 0
    outer loop
      vertex -18 0 0
      vertex -17.6067 3.74241 0
      vertex -18 0 0.3
    endloop
  endfacet
  facet normal 0.951057 -0.309017 0
    outer loop
      vertex -16.4438 7.32126 0
      vertex -16.4438 7.32126 0.3
      vertex -17.6067 3.74241 0.3
    endloop
  endfacet
  facet normal 0.951057 -0.309017 0
    outer loop
      vertex -17.6067 3.74241 0
      vertex -16.4438 7.32126 0
      vertex -17.6067 3.74241 0.3
    endloop
  endfacet
  facet normal 0.866025 -0.5 0
    outer loop
      vertex -14.5623 10.5801 0
      vertex -14.5623 10.5801 0.3
      vertex -16.4438 7.32126 0.3
    endloop
  endfacet
  facet normal 0.866025 -0.5 0
    outer loop
      vertex -16.4438 7.32126 0
      vertex -14.5623 10.5801 0
      vertex -16.4438 7.32126 0.3
    endloop
  endfacet
  facet normal 0.743145 -0.669131 0
    outer loop
      vertex -12.0444 13.3766 0
      vertex -12.0444 13.3766 0.3
      vertex -14.5623 10.5801 0.3
    endloop
  endfacet
  facet normal 0.743145 -0.669131 0
    outer loop
      vertex -14.5623 10.5801 0
      vertex -12.0444 13.3766 0
      vertex -14.5623 10.5801 0.3
    endloop
  endfacet
  facet normal 0.587785 -0.809017 0
    outer loop
      vertex -9 15.5885 0
      vertex -9 15.5885 0.3
      vertex -12.0444 13.3766 0.3
    endloop
  endfacet
  facet normal 0.587785 -0.809017 0
    outer loop
      vertex -12.0444 13.3766 0
      vertex -9 15.5885 0
      vertex -12.0444 13.3766 0.3
    endloop
  endfacet
  facet normal 0.406737 -0.913545 0
    outer loop
      vertex -5.56231 17.119 0
      vertex -5.56231 17.119 0.3
      vertex -9 15.5885 0.3
    endloop
  endfacet
  facet normal 0.406737 -0.913545 0
    outer loop
      vertex -9 15.5885 0
      vertex -5.56231 17.119 0
      vertex -9 15.5885 0.3
    endloop
  endfacet
  facet normal 0.207912 -0.978148 0
    outer loop
      vertex -1.88151 17.9014 0
      vertex -1.88151 17.9014 0.3
      vertex -5.56231 17.119 0.3
    endloop
  endfacet
  facet normal 0.207912 -0.978148 0
    outer loop
      vertex -5.56231 17.119 0
      vertex -1.88151 17.9014 0
      vertex -5.56231 17.119 0.3
    endloop
  endfacet
  facet normal 0 -1 0
    outer loop
      vertex 1.88151 17.9014 0
      vertex 1.88151 17.9014 0.3
      vertex -1.88151 17.9014 0.3
    endloop
  endfacet
  facet normal 0 -1 0
    outer loop
      vertex -1.88151 17.9014 0
      vertex 1.88151 17.9014 0
      vertex -1.88151 17.9014 0.3
    endloop
  endfacet
  facet normal -0.207912 -0.978148 0
    outer loop
      vertex 5.56231 17.119 0
      vertex 5.56231 17.119 0.3
      vertex 1.88151 17.9014 0.3
    endloop
  endfacet
  facet normal -0.207912 -0.978148 0
    outer loop
      vertex 1.88151 17.9014 0
      vertex 5.56231 17.119 0
      vertex 1.88151 17.9014 0.3
    endloop
  endfacet
  facet normal -0.406737 -0.913545 0
    outer loop
      vertex 9 15.5885 0
      vertex 9 15.5885 0.3
      vertex 5.56231 17.119 0.3
    endloop
  endfacet
  facet normal -0.406737 -0.913545 0
    outer loop
      vertex 5.56231 17.119 0
      vertex 9 15.5885 0
      vertex 5.56231 17.119 0.3
    endloop
  endfacet
  facet normal -0.587785 -0.809017 0
    outer loop
      vertex 12.0444 13.3766 0
      vertex 12.0444 13.3766 0.3
      vertex 9 15.5885 0.3
    endloop
  endfacet
  facet normal -0.587785 -0.809017 0
    outer loop
      vertex 9 15.5885 0
      vertex 12.0444 13.3766 0
      vertex 9 15.5885 0.3
    endloop
  endfacet
  facet normal -0.743145 -0.669131 0
    outer loop
      vertex 14.5623 10.5801 0.3
      vertex 12.0444 13.3766 0.3
      vertex 14.5623 10.5801 0
    endloop
  endfacet
  facet normal -0.743145 -0.669131 0
    outer loop
      vertex 14.5623 10.5801 0
      vertex 12.0444 13.3766 0.3
      vertex 12.0444 13.3766 0
    endloop
  endfacet
  facet normal -0.866025 -0.5 0
    outer loop
      vertex 16.4438 7.32126 0.3
      vertex 14.5623 10.5801 0.3
      vertex 16.4438 7.32126 0
    endloop
  endfacet
  facet normal -0.866025 -0.5 0
    outer loop
      vertex 16.4438 7.32126 0
      vertex 14.5623 10.5801 0.3
      vertex 14.5623 10.5801 0
    endloop
  endfacet
  facet normal -0.951057 -0.309017 0
    outer loop
      vertex 17.6067 3.74241 0.3
      vertex 16.4438 7.32126 0.3
      vertex 17.6067 3.74241 0
    endloop
  endfacet
  facet normal -0.951057 -0.309017 0
    outer loop
      vertex 17.6067 3.74241 0
      vertex 16.4438 7.32126 0.3
      vertex 16.4438 7.32126 0
    endloop
  endfacet
  facet normal -0.994522 -0.104528 0
    outer loop
      vertex 18 0 0.3
      vertex 17.6067 3.74241 0.3
      vertex 18 0 0
    endloop
  endfacet
  facet normal -0.994522 -0.104528 0
    outer loop
      vertex 18 0 0
      vertex 17.6067 3.74241 0.3
      vertex 17.6067 3.74241 0
    endloop
  endfacet
  facet normal -0.994522 0.104528 0
    outer loop
      vertex 18 0 0.3
      vertex 18 0 0
      vertex 17.6067 -3.74241 0.3
    endloop
  endfacet
  facet normal -0.994522 0.104528 0
    outer loop
      vertex 17.6067 -3.74241 0.3
      vertex 18 0 0
      vertex 17.6067 -3.74241 0
    endloop
  endfacet
  facet normal -0.951057 0.309017 0
    outer loop
      vertex 17.6067 -3.74241 0.3
      vertex 17.6067 -3.74241 0
      vertex 16.4438 -7.32126 0.3
    endloop
  endfacet
  facet normal -0.951057 0.309017 0
    outer loop
      vertex 16.4438 -7.32126 0.3
      vertex 17.6067 -3.74241 0
      vertex 16.4438 -7.32126 0
    endloop
  endfacet
  facet normal -0.866025 0.5 0
    outer loop
      vertex 16.4438 -7.32126 0.3
      vertex 16.4438 -7.32126 0
      vertex 14.5623 -10.5801 0.3
    endloop
  endfacet
  facet normal -0.866025 0.5 0
    outer loop
      vertex 14.5623 -10.5801 0.3
      vertex 16.4438 -7.32126 0
      vertex 14.5623 -10.5801 0
    endloop
  endfacet
  facet normal -0.743145 0.669131 0
    outer loop
      vertex 14.5623 -10.5801 0.3
      vertex 14.5623 -10.5801 0
      vertex 12.0444 -13.3766 0.3
    endloop
  endfacet
  facet normal -0.743145 0.669131 0
    outer loop
      vertex 12.0444 -13.3766 0.3
      vertex 14.5623 -10.5801 0
      vertex 12.0444 -13.3766 0
    endloop
  endfacet
  facet normal -0.587785 0.809017 0
    outer loop
      vertex 12.0444 -13.3766 0.3
      vertex 12.0444 -13.3766 0
      vertex 9 -15.5885 0.3
    endloop
  endfacet
  facet normal -0.587785 0.809017 0
    outer loop
      vertex 9 -15.5885 0.3
      vertex 12.0444 -13.3766 0
      vertex 9 -15.5885 0
    endloop
  endfacet
  facet normal -0.406737 0.913545 0
    outer loop
      vertex 9 -15.5885 0.3
      vertex 9 -15.5885 0
      vertex 5.56231 -17.119 0.3
    endloop
  endfacet
  facet normal -0.406737 0.913545 0
    outer loop
      vertex 5.56231 -17.119 0.3
      vertex 9 -15.5885 0
      vertex 5.56231 -17.119 0
    endloop
  endfacet
  facet normal -0.207912 0.978148 0
    outer loop
      vertex 5.56231 -17.119 0.3
      vertex 5.56231 -17.119 0
      vertex 1.88151 -17.9014 0.3
    endloop
  endfacet
  facet normal -0.207912 0.978148 0
    outer loop
      vertex 1.88151 -17.9014 0.3
      vertex 5.56231 -17.119 0
      vertex 1.88151 -17.9014 0
    endloop
  endfacet
  facet normal 0 1 0
    outer loop
      vertex 1.88151 -17.9014 0.3
      vertex 1.88151 -17.9014 0
      vertex -1.88151 -17.9014 0.3
    endloop
  endfacet
  facet normal 0 1 0
    outer loop
      vertex -1.88151 -17.9014 0.3
      vertex 1.88151 -17.9014 0
      vertex -1.88151 -17.9014 0
    endloop
  endfacet
  facet normal 0.207912 0.978148 0
    outer loop
      vertex -1.88151 -17.9014 0.3
      vertex -1.88151 -17.9014 0
      vertex -5.56231 -17.119 0.3
    endloop
  endfacet
  facet normal 0.207912 0.978148 0
    outer loop
      vertex -5.56231 -17.119 0.3
      vertex -1.88151 -17.9014 0
      vertex -5.56231 -17.119 0
    endloop
  endfacet
  facet normal 0.406737 0.913545 0
    outer loop
      vertex -5.56231 -17.119 0.3
      vertex -5.56231 -17.119 0
      vertex -9 -15.5885 0.3
    endloop
  endfacet
  facet normal 0.406737 0.913545 0
    outer loop
      vertex -9 -15.5885 0.3
      vertex -5.56231 -17.119 0
      vertex -9 -15.5885 0
    endloop
  endfacet
  facet normal 0.587785 0.809017 0
    outer loop
      vertex -9 -15.5885 0.3
      vertex -9 -15.5885 0
      vertex -12.0444 -13.3766 0.3
    endloop
  endfacet
  facet normal 0.587785 0.809017 0
    outer loop
      vertex -12.0444 -13.3766 0.3
      vertex -9 -15.5885 0
      vertex -12.0444 -13.3766 0
    endloop
  endfacet
  facet normal 0.743145 0.669131 0
    outer loop
      vertex -14.5623 -10.5801 0.3
      vertex -12.0444 -13.3766 0.3
      vertex -12.0444 -13.3766 0
    endloop
  endfacet
  facet normal 0.743145 0.669131 0
    outer loop
      vertex -14.5623 -10.5801 0
      vertex -14.5623 -10.5801 0.3
      vertex -12.0444 -13.3766 0
    endloop
  endfacet
  facet normal 0.866025 0.5 0
    outer loop
      vertex -16.4438 -7.32126 0.3
      vertex -14.5623 -10.5801 0.3
      vertex -14.5623 -10.5801 0
    endloop
  endfacet
  facet normal 0.866025 0.5 0
    outer loop
      vertex -16.4438 -7.32126 0
      vertex -16.4438 -7.32126 0.3
      vertex -14.5623 -10.5801 0
    endloop
  endfacet
  facet normal 0.951057 0.309017 0
    outer loop
      vertex -17.6067 -3.74241 0.3
      vertex -16.4438 -7.32126 0.3
      vertex -16.4438 -7.32126 0
    endloop
  endfacet
  facet normal 0.951057 0.309017 0
    outer loop
      vertex -17.6067 -3.74241 0
      vertex -17.6067 -3.74241 0.3
      vertex -16.4438 -7.32126 0
    endloop
  endfacet
  facet normal 0.866025 0.5 0
    outer loop
      vertex -17.75 -16 0.3
      vertex -16.875 -17.5155 0.3
      vertex -16.875 -17.5155 0
    endloop
  endfacet
  facet normal 0.866025 0.5 0
    outer loop
      vertex -17.75 -16 0
      vertex -17.75 -16 0.3
      vertex -16.875 -17.5155 0
    endloop
  endfacet
  facet normal 0.866025 -0.5 0
    outer loop
      vertex -16.875 -14.4845 0
      vertex -16.875 -14.4845 0.3
      vertex -17.75 -16 0.3
    endloop
  endfacet
  facet normal 0.866025 -0.5 0
    outer loop
      vertex -17.75 -16 0
      vertex -16.875 -14.4845 0
      vertex -17.75 -16 0.3
    endloop
  endfacet
  facet normal 0 -1 0
    outer loop
      vertex -15.125 -14.4845 0
      vertex -15.125 -14.4845 0.3
      vertex -16.875 -14.4845 0.3
    endloop
  endfacet
  facet normal 0 -1 0
    outer loop
      vertex -16.875 -14.4845 0
      vertex -15.125 -14.4845 0
      vertex -16.875 -14.4845 0.3
    endloop
  endfacet
  facet normal -0.866025 -0.5 0
    outer loop
      vertex -14.25 -16 0.3
      vertex -15.125 -14.4845 0.3
      vertex -14.25 -16 0
    endloop
  endfacet
  facet normal -0.866025 -0.5 0
    outer loop
      vertex -14.25 -16 0
      vertex -15.125 -14.4845 0.3
      vertex -15.125 -14.4845 0
    endloop
  endfacet
  facet normal -0.866025 0.5 0
    outer loop
      vertex -14.25 -16 0.3
      vertex -14.25 -16 0
      vertex -15.125 -17.5155 0.3
    endloop
  endfacet
  facet normal -0.866025 0.5 0
    outer loop
      vertex -15.125 -17.5155 0.3
      vertex -14.25 -16 0
      vertex -15.125 -17.5155 0
    endloop
  endfacet
  facet normal 0 1 0
    outer loop
      vertex -15.125 -17.5155 0.3
      vertex -15.125 -17.5155 0
      vertex -16.875 -17.5155 0.3
    endloop
  endfacet
  facet normal 0 1 0
    outer loop
      vertex -16.875 -17.5155 0.3
      vertex -15.125 -17.5155 0
      vertex -16.875 -17.5155 0
    endloop
  endfacet
  facet normal 0.866025 -0.5 0
    outer loop
      vertex -16.875 17.5155 0
      vertex -16.875 17.5155 0.3
      vertex -17.75 16 0.3
    endloop
  endfacet
  facet normal 0.866025 -0.5 0
    outer loop
      vertex -17.75 16 0
      vertex -16.875 17.5155 0
      vertex -17.75 16 0.3
    endloop
  endfacet
  facet normal 0.866025 0.5 0
    outer loop
      vertex -17.75 16 0.3
      vertex -16.875 14.4845 0.3
      vertex -16.875 14.4845 0
    endloop
  endfacet
  facet normal 0.866025 0.5 0
    outer loop
      vertex -17.75 16 0
      vertex -17.75 16 0.3
      vertex -16.875 14.4845 0
    endloop
  endfacet
  facet normal 0 -1 0
    outer loop
      vertex -15.125 17.5155 0
      vertex -15.125 17.5155 0.3
      vertex -16.875 17.5155 0.3
    endloop
  endfacet
  facet normal 0 -1 0
    outer loop
      vertex -16.875 17.5155 0
      vertex -15.125 17.5155 0
      vertex -16.875 17.5155 0.3
    endloop
  endfacet
  facet normal -0.866025 -0.5 0
    outer loop
      vertex -14.25 16 0.3
      vertex -15.125 17.5155 0.3
      vertex -14.25 16 0
    endloop
  endfacet
  facet normal -0.866025 -0.5 0
    outer loop
      vertex -14.25 16 0
      vertex -15.125 17.5155 0.3
      vertex -15.125 17.5155 0
    endloop
  endfacet
  facet normal -0.866025 0.5 0
    outer loop
      vertex -14.25 16 0.3
      vertex -14.25 16 0
      vertex -15.125 14.4845 0.3
    endloop
  endfacet
  facet normal -0.866025 0.5 0
    outer loop
      vertex -15.125 14.4845 0.3
      vertex -14.25 16 0
      vertex -15.125 14.4845 0
    endloop
  endfacet
  facet normal 0 1 0
    outer loop
      vertex -15.125 14.4845 0.3
      vertex -15.125 14.4845 0
      vertex -16.875 14.4845 0.3
    endloop
  endfacet
  facet normal 0 1 0
    outer loop
      vertex -16.875 14.4845 0.3
      vertex -15.125 14.4845 0
      vertex -16.875 14.4845 0
    endloop
  endfacet
  facet normal 0.866025 -0.5 0
    outer loop
      vertex 15.125 -14.4845 0
      vertex 15.125 -14.4845 0.3
      vertex 14.25 -16 0.3
    endloop
  endfacet
  facet normal 0.866025 -0.5 0
    outer loop
      vertex 14.25 -16 0
      vertex 15.125 -14.4845 0
      vertex 14.25 -16 0.3
    endloop
  endfacet
  facet normal 0.866025 0.5 0
    outer loop
      vertex 14.25 -16 0.3
      vertex 15.125 -17.5155 0.3
      vertex 15.125 -17.5155 0
    endloop
  endfacet
  facet normal 0.866025 0.5 0
    outer loop
      vertex 14.25 -16 0
      vertex 14.25 -16 0.3
      vertex 15.125 -17.5155 0
    endloop
  endfacet
  facet normal 0 -1 0
    outer loop
      vertex 16.875 -14.4845 0
      vertex 16.875 -14.4845 0.3
      vertex 15.125 -14.4845 0.3
    endloop
  endfacet
  facet normal 0 -1 0
    outer loop
      vertex 15.125 -14.4845 0
      vertex 16.875 -14.4845 0
      vertex 15.125 -14.4845 0.3
    endloop
  endfacet
  facet normal -0.866025 -0.5 0
    outer loop
      vertex 17.75 -16 0.3
      vertex 16.875 -14.4845 0.3
      vertex 17.75 -16 0
    endloop
  endfacet
  facet normal -0.866025 -0.5 0
    outer loop
      vertex 17.75 -16 0
      vertex 16.875 -14.4845 0.3
      vertex 16.875 -14.4845 0
    endloop
  endfacet
  facet normal -0.866025 0.5 0
    outer loop
      vertex 17.75 -16 0.3
      vertex 17.75 -16 0
      vertex 16.875 -17.5155 0.3
    endloop
  endfacet
  facet normal -0.866025 0.5 0
    outer loop
      vertex 16.875 -17.5155 0.3
      vertex 17.75 -16 0
      vertex 16.875 -17.5155 0
    endloop
  endfacet
  facet normal 0 1 0
    outer loop
      vertex 16.875 -17.5155 0.3
      vertex 16.875 -17.5155 0
      vertex 15.125 -17.5155 0.3
    endloop
  endfacet
  facet normal 0 1 0
    outer loop
      vertex 15.125 -17.5155 0.3
      vertex 16.875 -17.5155 0
      vertex 15.125 -17.5155 0
    endloop
  endfacet
  facet normal 0.866025 -0.5 0
    outer loop
      vertex 15.125 17.5155 0
      vertex 15.125 17.5155 0.3
      vertex 14.25 16 0.3
    endloop
  endfacet
  facet normal 0.866025 -0.5 0
    outer loop
      vertex 14.25 16 0
      vertex 15.125 17.5155 0
      vertex 14.25 16 0.3
    endloop
  endfacet
  facet normal 0.866025 0.5 0
    outer loop
      vertex 14.25 16 0.3
      vertex 15.125 14.4845 0.3
      vertex 15.125 14.4845 0
    endloop
  endfacet
  facet normal 0.866025 0.5 0
    outer loop
      vertex 14.25 16 0
      vertex 14.25 16 0.3
      vertex 15.125 14.4845 0
    endloop
  endfacet
  facet normal 0 -1 0
    outer loop
      vertex 16.875 17.5155 0
      vertex 16.875 17.5155 0.3
      vertex 15.125 17.5155 0.3
    endloop
  endfacet
  facet normal 0 -1 0
    outer loop
      vertex 15.125 17.5155 0
      vertex 16.875 17.5155 0
      vertex 15.125 17.5155 0.3
    endloop
  endfacet
  facet normal -0.866025 -0.5 0
    outer loop
      vertex 17.75 16 0.3
      vertex 16.875 17.5155 0.3
      vertex 17.75 16 0
    endloop
  endfacet
  facet normal -0.866025 -0.5 0
    outer loop
      vertex 17.75 16 0
      vertex 16.875 17.5155 0.3
      vertex 16.875 17.5155 0
    endloop
  endfacet
  facet normal -0.866025 0.5 0
    outer loop
      vertex 17.75 16 0.3
      vertex 17.75 16 0
      vertex 16.875 14.4845 0.3
    endloop
  endfacet
  facet normal -0.866025 0.5 0
    outer loop
      vertex 16.875 14.4845 0.3
      vertex 17.75 16 0
      vertex 16.875 14.4845 0
    endloop
  endfacet
  facet normal 0 1 0
    outer loop
      vertex 16.875 14.4845 0.3
      vertex 16.875 14.4845 0
      vertex 15.125 14.4845 0.3
    endloop
  endfacet
  facet normal 0 1 0
    outer loop
      vertex 15.125 14.4845 0.3
      vertex 16.875 14.4845 0
      vertex 15.125 14.4845 0
    endloop
  endfacet
endsolid OpenSCAD_Model
