solid OpenSCAD_Model
  facet normal -1 -1.57009e-16 -1.57009e-16
    outer loop
      vertex -20 0.234651 2.48153
      vertex -20 1.48153 1.23465
      vertex -20 -0.902252 1.90225
    endloop
  endfacet
  facet normal -1 -1.57009e-16 -1.57009e-16
    outer loop
      vertex -20 -1.77636e-15 1
      vertex -20 1.48153 1.23465
      vertex -20 0.680986 -0.33651
    endloop
  endfacet
  facet normal -1 -1.57009e-16 -1.57009e-16
    outer loop
      vertex -20 -0.902252 1.90225
      vertex -20 1.48153 1.23465
      vertex -20 -1.77636e-15 1
    endloop
  endfacet
  facet normal -1 -1.57009e-16 -1.57009e-16
    outer loop
      vertex -20 -1.77636e-15 1
      vertex -20 0.680986 -0.33651
      vertex -20 -1.77636e-15 -0.228652
    endloop
  endfacet
  facet normal -2.22045e-16 0.707107 0.707107
    outer loop
      vertex -20 0.234651 2.48153
      vertex -19.9813 0.234651 2.48153
      vertex -20 1.48153 1.23465
    endloop
  endfacet
  facet normal -2.22045e-16 0.707107 0.707107
    outer loop
      vertex -20 1.48153 1.23465
      vertex -19.9813 0.234651 2.48153
      vertex -19.9813 1.48153 1.23465
    endloop
  endfacet
  facet normal -6.86156e-17 -0.45399 0.891007
    outer loop
      vertex -20 -1.77636e-15 2.36197
      vertex -20 0.234651 2.48153
      vertex -20 -0.902252 1.90225
    endloop
  endfacet
  facet normal -6.86156e-17 -0.45399 0.891007
    outer loop
      vertex -19.9813 0.234651 2.48153
      vertex -20 0.234651 2.48153
      vertex -20 -1.77636e-15 2.36197
    endloop
  endfacet
  facet normal -6.86156e-17 -0.45399 0.891007
    outer loop
      vertex -19.9813 0.234651 2.48153
      vertex -20 -1.77636e-15 2.36197
      vertex -19.9855 -1.77636e-15 2.36197
    endloop
  endfacet
  facet normal -1 0 0
    outer loop
      vertex -20 -40 2.5
      vertex -20 -1.77636e-15 2.5
      vertex -20 -40 -0.5
    endloop
  endfacet
  facet normal -1 0 0
    outer loop
      vertex -20 -40 -0.5
      vertex -20 -1.77636e-15 2.5
      vertex -20 -1.77636e-15 2.36197
    endloop
  endfacet
  facet normal -1 0 0
    outer loop
      vertex -20 -40 -0.5
      vertex -20 -1.77636e-15 2.36197
      vertex -20 -0.902252 1.90225
    endloop
  endfacet
  facet normal -1 0 0
    outer loop
      vertex -20 -40 -0.5
      vertex -20 -0.902252 1.90225
      vertex -20 -1.77636e-15 1
    endloop
  endfacet
  facet normal -1 0 0
    outer loop
      vertex -20 -40 -0.5
      vertex -20 -1.77636e-15 1
      vertex -20 -1.77636e-15 -0.5
    endloop
  endfacet
  facet normal 0 1 0
    outer loop
      vertex -20 -1.77636e-15 1
      vertex -20 -1.77636e-15 -0.228652
      vertex -20 -1.77636e-15 -0.5
    endloop
  endfacet
  facet normal 0 1 0
    outer loop
      vertex -20 -1.77636e-15 -0.5
      vertex -20 -1.77636e-15 -0.228652
      vertex 20 -1.77636e-15 -0.228652
    endloop
  endfacet
  facet normal 0 1 0
    outer loop
      vertex -20 -1.77636e-15 -0.5
      vertex 20 -1.77636e-15 -0.228652
      vertex 20 -1.77636e-15 -0.5
    endloop
  endfacet
  facet normal 1.79638e-16 -0.156434 -0.987688
    outer loop
      vertex -20 0.680986 -0.33651
      vertex 20 0.680986 -0.33651
      vertex -20 -1.77636e-15 -0.228652
    endloop
  endfacet
  facet normal 1.79638e-16 -0.156434 -0.987688
    outer loop
      vertex 20 -1.77636e-15 -0.228652
      vertex 20 0.680986 -0.33651
      vertex 20 -1.06066 -0.0606602
    endloop
  endfacet
  facet normal 1.79638e-16 -0.156434 -0.987688
    outer loop
      vertex -20 -1.77636e-15 -0.228652
      vertex 20 0.680986 -0.33651
      vertex 20 -1.77636e-15 -0.228652
    endloop
  endfacet
  facet normal -6.86156e-17 0.891007 -0.45399
    outer loop
      vertex -20 1.48153 1.23465
      vertex -19.9813 1.48153 1.23465
      vertex -20 0.949987 0.191434
    endloop
  endfacet
  facet normal -6.86156e-17 0.891007 -0.45399
    outer loop
      vertex -20 1.48153 1.23465
      vertex -20 0.949987 0.191434
      vertex -20 0.902252 0.0977484
    endloop
  endfacet
  facet normal -6.86156e-17 0.891007 -0.45399
    outer loop
      vertex -20 1.48153 1.23465
      vertex -20 0.902252 0.0977484
      vertex -20 0.680986 -0.33651
    endloop
  endfacet
  facet normal -6.86156e-17 0.891007 -0.45399
    outer loop
      vertex 20 0.902252 0.0977484
      vertex 20 0.680986 -0.33651
      vertex -20 0.680986 -0.33651
    endloop
  endfacet
  facet normal -6.86156e-17 0.891007 -0.45399
    outer loop
      vertex 20 0.902252 0.0977484
      vertex -20 0.680986 -0.33651
      vertex -20 0.902252 0.0977484
    endloop
  endfacet
  facet normal -0.999858 0.0118996 0.0118996
    outer loop
      vertex -20 0.949987 0.191434
      vertex -19.9813 1.48153 1.23465
      vertex -20 1.13137 0.0100505
    endloop
  endfacet
  facet normal -0.999858 0.0118996 0.0118996
    outer loop
      vertex -20 1.13137 0.0100505
      vertex -19.9813 1.48153 1.23465
      vertex -19.8019 7.33112 10.4524
    endloop
  endfacet
  facet normal -0.999858 0.0118996 0.0118996
    outer loop
      vertex -19.9838 -1.77636e-15 2.5
      vertex -19.9813 0.234651 2.48153
      vertex -19.9855 -1.77636e-15 2.36197
    endloop
  endfacet
  facet normal -0.999858 0.0118996 0.0118996
    outer loop
      vertex -19.8019 7.33112 10.4524
      vertex -19.9813 0.234651 2.48153
      vertex -19.9838 -1.77636e-15 2.5
    endloop
  endfacet
  facet normal -0.999858 0.0118996 0.0118996
    outer loop
      vertex -19.8019 7.33112 10.4524
      vertex -19.9838 -1.77636e-15 2.5
      vertex -19.9912 -0.62132 2.5
    endloop
  endfacet
  facet normal -0.999858 0.0118996 0.0118996
    outer loop
      vertex -19.9813 1.48153 1.23465
      vertex -19.9813 0.234651 2.48153
      vertex -19.8019 7.33112 10.4524
    endloop
  endfacet
  facet normal 0 1 0
    outer loop
      vertex -20 -1.77636e-15 2.5
      vertex -19.9838 -1.77636e-15 2.5
      vertex -20 -1.77636e-15 2.36197
    endloop
  endfacet
  facet normal 0 1 0
    outer loop
      vertex -20 -1.77636e-15 2.36197
      vertex -19.9838 -1.77636e-15 2.5
      vertex -19.9855 -1.77636e-15 2.36197
    endloop
  endfacet
  facet normal -0.994522 -0.104528 0
    outer loop
      vertex -20 -40 2.5
      vertex -20 -40 -0.5
      vertex -19.9344 -40.6237 2.5
    endloop
  endfacet
  facet normal -0.994522 -0.104528 0
    outer loop
      vertex -19.9344 -40.6237 2.5
      vertex -20 -40 -0.5
      vertex -19.9344 -40.6237 -0.5
    endloop
  endfacet
  facet normal 0 0 -1
    outer loop
      vertex -20 -40 -0.5
      vertex -20 -1.77636e-15 -0.5
      vertex -19.9344 -40.6237 -0.5
    endloop
  endfacet
  facet normal 0 0 -1
    outer loop
      vertex 5.56231 -5.88098 -0.5
      vertex -20 -1.77636e-15 -0.5
      vertex 20 -1.77636e-15 -0.5
    endloop
  endfacet
  facet normal 0 0 -1
    outer loop
      vertex 18 -23 -0.5
      vertex 20 -1.77636e-15 -0.5
      vertex 20 -40 -0.5
    endloop
  endfacet
  facet normal 0 0 -1
    outer loop
      vertex 16.875 -40.5155 -0.5
      vertex 20 -40 -0.5
      vertex 19.9344 -40.6237 -0.5
    endloop
  endfacet
  facet normal 0 0 -1
    outer loop
      vertex 1.88151 -40.9014 -0.5
      vertex 19.9344 -40.6237 -0.5
      vertex 19.7406 -41.2202 -0.5
    endloop
  endfacet
  facet normal 0 0 -1
    outer loop
      vertex -1.88151 -40.9014 -0.5
      vertex 19.7406 -41.2202 -0.5
      vertex 19.4271 -41.7634 -0.5
    endloop
  endfacet
  facet normal 0 0 -1
    outer loop
      vertex -19.9344 -40.6237 -0.5
      vertex 19.4271 -41.7634 -0.5
      vertex 19.0074 -42.2294 -0.5
    endloop
  endfacet
  facet normal 0 0 -1
    outer loop
      vertex -19.9344 -40.6237 -0.5
      vertex 19.0074 -42.2294 -0.5
      vertex 18.5 -42.5981 -0.5
    endloop
  endfacet
  facet normal 0 0 -1
    outer loop
      vertex -19.9344 -40.6237 -0.5
      vertex 18.5 -42.5981 -0.5
      vertex 17.9271 -42.8532 -0.5
    endloop
  endfacet
  facet normal 0 0 -1
    outer loop
      vertex -19.9344 -40.6237 -0.5
      vertex 17.9271 -42.8532 -0.5
      vertex 17.3136 -42.9836 -0.5
    endloop
  endfacet
  facet normal 0 0 -1
    outer loop
      vertex -19.9344 -40.6237 -0.5
      vertex 17.3136 -42.9836 -0.5
      vertex 17 -42.9836 -0.5
    endloop
  endfacet
  facet normal 0 0 -1
    outer loop
      vertex -19.9344 -40.6237 -0.5
      vertex 17 -42.9836 -0.5
      vertex 17 -43 -0.5
    endloop
  endfacet
  facet normal 0 0 -1
    outer loop
      vertex -17 -42.9836 -0.5
      vertex 17 -43 -0.5
      vertex -17 -43 -0.5
    endloop
  endfacet
  facet normal 0 0 -1
    outer loop
      vertex -19.9344 -40.6237 -0.5
      vertex 17 -43 -0.5
      vertex -17 -42.9836 -0.5
    endloop
  endfacet
  facet normal 0 0 -1
    outer loop
      vertex -17.75 -39 -0.5
      vertex -19.9344 -40.6237 -0.5
      vertex -16.875 -37.4845 -0.5
    endloop
  endfacet
  facet normal 0 0 -1
    outer loop
      vertex -19.9344 -40.6237 -0.5
      vertex -17.3136 -42.9836 -0.5
      vertex -17.9271 -42.8532 -0.5
    endloop
  endfacet
  facet normal 0 0 -1
    outer loop
      vertex -19.9344 -40.6237 -0.5
      vertex -17.9271 -42.8532 -0.5
      vertex -18.5 -42.5981 -0.5
    endloop
  endfacet
  facet normal 0 0 -1
    outer loop
      vertex -19.9344 -40.6237 -0.5
      vertex -18.5 -42.5981 -0.5
      vertex -19.0074 -42.2294 -0.5
    endloop
  endfacet
  facet normal 0 0 -1
    outer loop
      vertex -19.9344 -40.6237 -0.5
      vertex -19.0074 -42.2294 -0.5
      vertex -19.4271 -41.7634 -0.5
    endloop
  endfacet
  facet normal 0 0 -1
    outer loop
      vertex -19.9344 -40.6237 -0.5
      vertex -19.4271 -41.7634 -0.5
      vertex -19.7406 -41.2202 -0.5
    endloop
  endfacet
  facet normal 0 0 -1
    outer loop
      vertex -19.9344 -40.6237 -0.5
      vertex -20 -1.77636e-15 -0.5
      vertex -18 -23 -0.5
    endloop
  endfacet
  facet normal 0 0 -1
    outer loop
      vertex -19.9344 -40.6237 -0.5
      vertex -18 -23 -0.5
      vertex -17.6067 -26.7424 -0.5
    endloop
  endfacet
  facet normal 0 0 -1
    outer loop
      vertex -19.9344 -40.6237 -0.5
      vertex -17.6067 -26.7424 -0.5
      vertex -16.4438 -30.3213 -0.5
    endloop
  endfacet
  facet normal 0 0 -1
    outer loop
      vertex -15.125 -37.4845 -0.5
      vertex -12.0444 -36.3766 -0.5
      vertex -14.25 -39 -0.5
    endloop
  endfacet
  facet normal 0 0 -1
    outer loop
      vertex -19.9344 -40.6237 -0.5
      vertex -16.4438 -30.3213 -0.5
      vertex -14.5623 -33.5801 -0.5
    endloop
  endfacet
  facet normal 0 0 -1
    outer loop
      vertex -14.25 -39 -0.5
      vertex -12.0444 -36.3766 -0.5
      vertex -9 -38.5885 -0.5
    endloop
  endfacet
  facet normal 0 0 -1
    outer loop
      vertex 15.125 -40.5155 -0.5
      vertex 19.9344 -40.6237 -0.5
      vertex 1.88151 -40.9014 -0.5
    endloop
  endfacet
  facet normal 0 0 -1
    outer loop
      vertex -19.9344 -40.6237 -0.5
      vertex -1.88151 -40.9014 -0.5
      vertex 19.4271 -41.7634 -0.5
    endloop
  endfacet
  facet normal 0 0 -1
    outer loop
      vertex 5.56231 -40.119 -0.5
      vertex 15.125 -40.5155 -0.5
      vertex 1.88151 -40.9014 -0.5
    endloop
  endfacet
  facet normal 0 0 -1
    outer loop
      vertex 9 -7.41154 -0.5
      vertex 15.125 -5.48446 -0.5
      vertex 12.0444 -9.62339 -0.5
    endloop
  endfacet
  facet normal 0 0 -1
    outer loop
      vertex 17.6067 -19.2576 -0.5
      vertex 20 -1.77636e-15 -0.5
      vertex 18 -23 -0.5
    endloop
  endfacet
  facet normal 0 0 -1
    outer loop
      vertex 17.75 -7 -0.5
      vertex 20 -1.77636e-15 -0.5
      vertex 16.4438 -15.6787 -0.5
    endloop
  endfacet
  facet normal 0 0 -1
    outer loop
      vertex 15.125 -40.5155 -0.5
      vertex 9 -38.5885 -0.5
      vertex 14.25 -39 -0.5
    endloop
  endfacet
  facet normal 0 0 -1
    outer loop
      vertex 16.875 -8.51554 -0.5
      vertex 17.75 -7 -0.5
      vertex 16.4438 -15.6787 -0.5
    endloop
  endfacet
  facet normal 0 0 -1
    outer loop
      vertex 16.875 -37.4845 -0.5
      vertex 14.5623 -33.5801 -0.5
      vertex 20 -40 -0.5
    endloop
  endfacet
  facet normal 0 0 -1
    outer loop
      vertex 16.4438 -15.6787 -0.5
      vertex 20 -1.77636e-15 -0.5
      vertex 17.6067 -19.2576 -0.5
    endloop
  endfacet
  facet normal 0 0 -1
    outer loop
      vertex 14.5623 -33.5801 -0.5
      vertex 16.4438 -30.3213 -0.5
      vertex 20 -40 -0.5
    endloop
  endfacet
  facet normal 0 0 -1
    outer loop
      vertex 16.4438 -30.3213 -0.5
      vertex 17.6067 -26.7424 -0.5
      vertex 20 -40 -0.5
    endloop
  endfacet
  facet normal 0 0 -1
    outer loop
      vertex 17.6067 -26.7424 -0.5
      vertex 18 -23 -0.5
      vertex 20 -40 -0.5
    endloop
  endfacet
  facet normal 0 0 -1
    outer loop
      vertex 14.5623 -12.4199 -0.5
      vertex 16.875 -8.51554 -0.5
      vertex 16.4438 -15.6787 -0.5
    endloop
  endfacet
  facet normal 0 0 -1
    outer loop
      vertex 5.56231 -5.88098 -0.5
      vertex 20 -1.77636e-15 -0.5
      vertex 9 -7.41154 -0.5
    endloop
  endfacet
  facet normal 0 0 -1
    outer loop
      vertex 1.88151 -5.09861 -0.5
      vertex -20 -1.77636e-15 -0.5
      vertex 5.56231 -5.88098 -0.5
    endloop
  endfacet
  facet normal 0 0 -1
    outer loop
      vertex -16.875 -40.5155 -0.5
      vertex -19.9344 -40.6237 -0.5
      vertex -17.75 -39 -0.5
    endloop
  endfacet
  facet normal 0 0 -1
    outer loop
      vertex -1.88151 -5.09861 -0.5
      vertex -20 -1.77636e-15 -0.5
      vertex 1.88151 -5.09861 -0.5
    endloop
  endfacet
  facet normal 0 0 -1
    outer loop
      vertex -5.56231 -5.88098 -0.5
      vertex -20 -1.77636e-15 -0.5
      vertex -1.88151 -5.09861 -0.5
    endloop
  endfacet
  facet normal 0 0 -1
    outer loop
      vertex -9 -7.41154 -0.5
      vertex -20 -1.77636e-15 -0.5
      vertex -5.56231 -5.88098 -0.5
    endloop
  endfacet
  facet normal 0 0 -1
    outer loop
      vertex -15.125 -5.48446 -0.5
      vertex -20 -1.77636e-15 -0.5
      vertex -9 -7.41154 -0.5
    endloop
  endfacet
  facet normal 0 0 -1
    outer loop
      vertex -15.125 -8.51554 -0.5
      vertex -14.5623 -12.4199 -0.5
      vertex -16.875 -8.51554 -0.5
    endloop
  endfacet
  facet normal 0 0 -1
    outer loop
      vertex -17.6067 -19.2576 -0.5
      vertex -20 -1.77636e-15 -0.5
      vertex -16.4438 -15.6787 -0.5
    endloop
  endfacet
  facet normal 0 0 -1
    outer loop
      vertex -18 -23 -0.5
      vertex -20 -1.77636e-15 -0.5
      vertex -17.6067 -19.2576 -0.5
    endloop
  endfacet
  facet normal 0 0 -1
    outer loop
      vertex -15.125 -40.5155 -0.5
      vertex -19.9344 -40.6237 -0.5
      vertex -16.875 -40.5155 -0.5
    endloop
  endfacet
  facet normal 0 0 -1
    outer loop
      vertex -14.25 -39 -0.5
      vertex -5.56231 -40.119 -0.5
      vertex -15.125 -40.5155 -0.5
    endloop
  endfacet
  facet normal 0 0 -1
    outer loop
      vertex -14.25 -39 -0.5
      vertex -9 -38.5885 -0.5
      vertex -5.56231 -40.119 -0.5
    endloop
  endfacet
  facet normal 0 0 -1
    outer loop
      vertex 17.75 -39 -0.5
      vertex 20 -40 -0.5
      vertex 16.875 -40.5155 -0.5
    endloop
  endfacet
  facet normal 0 0 -1
    outer loop
      vertex -17.75 -7 -0.5
      vertex -20 -1.77636e-15 -0.5
      vertex -16.875 -5.48446 -0.5
    endloop
  endfacet
  facet normal 0 0 -1
    outer loop
      vertex -19.9344 -40.6237 -0.5
      vertex -14.5623 -33.5801 -0.5
      vertex -16.875 -37.4845 -0.5
    endloop
  endfacet
  facet normal 0 0 -1
    outer loop
      vertex -16.4438 -15.6787 -0.5
      vertex -20 -1.77636e-15 -0.5
      vertex -17.75 -7 -0.5
    endloop
  endfacet
  facet normal 0 0 -1
    outer loop
      vertex -16.4438 -15.6787 -0.5
      vertex -17.75 -7 -0.5
      vertex -16.875 -8.51554 -0.5
    endloop
  endfacet
  facet normal 0 0 -1
    outer loop
      vertex -16.4438 -15.6787 -0.5
      vertex -16.875 -8.51554 -0.5
      vertex -14.5623 -12.4199 -0.5
    endloop
  endfacet
  facet normal 0 0 -1
    outer loop
      vertex 14.25 -39 -0.5
      vertex 12.0444 -36.3766 -0.5
      vertex 15.125 -37.4845 -0.5
    endloop
  endfacet
  facet normal 0 0 -1
    outer loop
      vertex -14.5623 -12.4199 -0.5
      vertex -15.125 -8.51554 -0.5
      vertex -12.0444 -9.62339 -0.5
    endloop
  endfacet
  facet normal 0 0 -1
    outer loop
      vertex -15.125 -8.51554 -0.5
      vertex -14.25 -7 -0.5
      vertex -12.0444 -9.62339 -0.5
    endloop
  endfacet
  facet normal 0 0 -1
    outer loop
      vertex -16.875 -5.48446 -0.5
      vertex -20 -1.77636e-15 -0.5
      vertex -15.125 -5.48446 -0.5
    endloop
  endfacet
  facet normal 0 0 -1
    outer loop
      vertex -12.0444 -9.62339 -0.5
      vertex -15.125 -5.48446 -0.5
      vertex -9 -7.41154 -0.5
    endloop
  endfacet
  facet normal 0 0 -1
    outer loop
      vertex -15.125 -5.48446 -0.5
      vertex -12.0444 -9.62339 -0.5
      vertex -14.25 -7 -0.5
    endloop
  endfacet
  facet normal 0 0 -1
    outer loop
      vertex 9 -38.5885 -0.5
      vertex 12.0444 -36.3766 -0.5
      vertex 14.25 -39 -0.5
    endloop
  endfacet
  facet normal 0 0 -1
    outer loop
      vertex 15.125 -40.5155 -0.5
      vertex 16.875 -40.5155 -0.5
      vertex 19.9344 -40.6237 -0.5
    endloop
  endfacet
  facet normal 0 0 -1
    outer loop
      vertex 15.125 -40.5155 -0.5
      vertex 5.56231 -40.119 -0.5
      vertex 9 -38.5885 -0.5
    endloop
  endfacet
  facet normal 0 0 -1
    outer loop
      vertex 16.875 -37.4845 -0.5
      vertex 20 -40 -0.5
      vertex 17.75 -39 -0.5
    endloop
  endfacet
  facet normal 0 0 -1
    outer loop
      vertex 12.0444 -36.3766 -0.5
      vertex 14.5623 -33.5801 -0.5
      vertex 16.875 -37.4845 -0.5
    endloop
  endfacet
  facet normal 0 0 -1
    outer loop
      vertex 14.25 -7 -0.5
      vertex 12.0444 -9.62339 -0.5
      vertex 15.125 -5.48446 -0.5
    endloop
  endfacet
  facet normal 0 0 -1
    outer loop
      vertex 12.0444 -36.3766 -0.5
      vertex 16.875 -37.4845 -0.5
      vertex 15.125 -37.4845 -0.5
    endloop
  endfacet
  facet normal 0 0 -1
    outer loop
      vertex 16.875 -8.51554 -0.5
      vertex 14.5623 -12.4199 -0.5
      vertex 15.125 -8.51554 -0.5
    endloop
  endfacet
  facet normal 0 0 -1
    outer loop
      vertex 12.0444 -9.62339 -0.5
      vertex 14.25 -7 -0.5
      vertex 14.5623 -12.4199 -0.5
    endloop
  endfacet
  facet normal 0 0 -1
    outer loop
      vertex 14.25 -7 -0.5
      vertex 15.125 -8.51554 -0.5
      vertex 14.5623 -12.4199 -0.5
    endloop
  endfacet
  facet normal 0 0 -1
    outer loop
      vertex 16.875 -5.48446 -0.5
      vertex 20 -1.77636e-15 -0.5
      vertex 17.75 -7 -0.5
    endloop
  endfacet
  facet normal 0 0 -1
    outer loop
      vertex 9 -7.41154 -0.5
      vertex 20 -1.77636e-15 -0.5
      vertex 15.125 -5.48446 -0.5
    endloop
  endfacet
  facet normal 0 0 -1
    outer loop
      vertex 15.125 -5.48446 -0.5
      vertex 20 -1.77636e-15 -0.5
      vertex 16.875 -5.48446 -0.5
    endloop
  endfacet
  facet normal 0 0 -1
    outer loop
      vertex -1.88151 -40.9014 -0.5
      vertex -15.125 -40.5155 -0.5
      vertex -5.56231 -40.119 -0.5
    endloop
  endfacet
  facet normal 0 0 -1
    outer loop
      vertex -1.88151 -40.9014 -0.5
      vertex -19.9344 -40.6237 -0.5
      vertex -15.125 -40.5155 -0.5
    endloop
  endfacet
  facet normal 0 0 -1
    outer loop
      vertex -17.3136 -42.9836 -0.5
      vertex -19.9344 -40.6237 -0.5
      vertex -17 -42.9836 -0.5
    endloop
  endfacet
  facet normal 0 0 -1
    outer loop
      vertex -12.0444 -36.3766 -0.5
      vertex -15.125 -37.4845 -0.5
      vertex -16.875 -37.4845 -0.5
    endloop
  endfacet
  facet normal 0 0 -1
    outer loop
      vertex -12.0444 -36.3766 -0.5
      vertex -16.875 -37.4845 -0.5
      vertex -14.5623 -33.5801 -0.5
    endloop
  endfacet
  facet normal 0 0 -1
    outer loop
      vertex 1.88151 -40.9014 -0.5
      vertex 19.7406 -41.2202 -0.5
      vertex -1.88151 -40.9014 -0.5
    endloop
  endfacet
  facet normal 0 0 1
    outer loop
      vertex -20 -1.77636e-15 2.5
      vertex -20 -40 2.5
      vertex -19.9344 -40.6237 2.5
    endloop
  endfacet
  facet normal 0 0 1
    outer loop
      vertex -19.4271 -41.7634 2.5
      vertex -20 -1.77636e-15 2.5
      vertex -19.7406 -41.2202 2.5
    endloop
  endfacet
  facet normal 0 0 1
    outer loop
      vertex -19.7406 -41.2202 2.5
      vertex -20 -1.77636e-15 2.5
      vertex -19.9344 -40.6237 2.5
    endloop
  endfacet
  facet normal 0 0 1
    outer loop
      vertex -19.9912 -0.62132 2.5
      vertex -20 -1.77636e-15 2.5
      vertex -19.4271 -41.7634 2.5
    endloop
  endfacet
  facet normal 0 0 1
    outer loop
      vertex -19.9912 -0.62132 2.5
      vertex -19.9838 -1.77636e-15 2.5
      vertex -20 -1.77636e-15 2.5
    endloop
  endfacet
  facet normal 0 0 1
    outer loop
      vertex 17 -43 2.5
      vertex -17 -42.9836 2.5
      vertex -17 -43 2.5
    endloop
  endfacet
  facet normal 0 0 1
    outer loop
      vertex -19.8932 -0.62132 2.5
      vertex -17.9271 -42.8532 2.5
      vertex -17.75 -39 2.5
    endloop
  endfacet
  facet normal 0 0 1
    outer loop
      vertex -19.8932 -0.62132 2.5
      vertex -18.5 -42.5981 2.5
      vertex -17.9271 -42.8532 2.5
    endloop
  endfacet
  facet normal 0 0 1
    outer loop
      vertex -19.8932 -0.62132 2.5
      vertex -19.9879 -0.62132 2.5
      vertex -19.0074 -42.2294 2.5
    endloop
  endfacet
  facet normal 0 0 1
    outer loop
      vertex 14.5623 -33.5801 2.5
      vertex 12.0444 -36.3766 2.5
      vertex 15.125 -37.4845 2.5
    endloop
  endfacet
  facet normal 0 0 1
    outer loop
      vertex 20 -0.62132 2.5
      vertex 19.9504 -0.62132 2.5
      vertex 20 -40 2.5
    endloop
  endfacet
  facet normal 0 0 1
    outer loop
      vertex -18 -23 2.5
      vertex -17.6067 -19.2576 2.5
      vertex -19.8932 -0.62132 2.5
    endloop
  endfacet
  facet normal 0 0 1
    outer loop
      vertex 19.9504 -0.62132 2.5
      vertex 19.8321 -0.62132 2.5
      vertex 20 -40 2.5
    endloop
  endfacet
  facet normal 0 0 1
    outer loop
      vertex 15.125 -40.5155 2.5
      vertex 14.25 -39 2.5
      vertex 12.0444 -36.3766 2.5
    endloop
  endfacet
  facet normal 0 0 1
    outer loop
      vertex -16.875 -37.4845 2.5
      vertex -15.125 -37.4845 2.5
      vertex -14.5623 -33.5801 2.5
    endloop
  endfacet
  facet normal 0 0 1
    outer loop
      vertex -15.125 -40.5155 2.5
      vertex -16.875 -40.5155 2.5
      vertex -17 -42.9836 2.5
    endloop
  endfacet
  facet normal 0 0 1
    outer loop
      vertex -19.0074 -42.2294 2.5
      vertex -19.9879 -0.62132 2.5
      vertex -19.4271 -41.7634 2.5
    endloop
  endfacet
  facet normal 0 0 1
    outer loop
      vertex -19.9879 -0.62132 2.5
      vertex -19.9897 -0.62132 2.5
      vertex -19.4271 -41.7634 2.5
    endloop
  endfacet
  facet normal 0 0 1
    outer loop
      vertex -16.875 -40.5155 2.5
      vertex -17.3136 -42.9836 2.5
      vertex -17 -42.9836 2.5
    endloop
  endfacet
  facet normal 0 0 1
    outer loop
      vertex -19.9897 -0.62132 2.5
      vertex -19.9912 -0.62132 2.5
      vertex -19.4271 -41.7634 2.5
    endloop
  endfacet
  facet normal 0 0 1
    outer loop
      vertex 16.875 -40.5155 2.5
      vertex 17.3136 -42.9836 2.5
      vertex 17.9271 -42.8532 2.5
    endloop
  endfacet
  facet normal 0 0 1
    outer loop
      vertex -16.4438 -15.6787 2.5
      vertex -19.8932 -0.62132 2.5
      vertex -17.6067 -19.2576 2.5
    endloop
  endfacet
  facet normal 0 0 1
    outer loop
      vertex 9 -38.5885 2.5
      vertex 5.56231 -40.119 2.5
      vertex 17 -43 2.5
    endloop
  endfacet
  facet normal 0 0 1
    outer loop
      vertex -17.75 -7 2.5
      vertex -19.8932 -0.62132 2.5
      vertex -16.4438 -15.6787 2.5
    endloop
  endfacet
  facet normal 0 0 1
    outer loop
      vertex -14.25 -39 2.5
      vertex -15.125 -40.5155 2.5
      vertex -12.0444 -36.3766 2.5
    endloop
  endfacet
  facet normal 0 0 1
    outer loop
      vertex -17.75 -7 2.5
      vertex -16.875 -5.48446 2.5
      vertex -19.8932 -0.62132 2.5
    endloop
  endfacet
  facet normal 0 0 1
    outer loop
      vertex 18 -23 2.5
      vertex 17.6067 -26.7424 2.5
      vertex 20 -40 2.5
    endloop
  endfacet
  facet normal 0 0 1
    outer loop
      vertex 14.5623 -33.5801 2.5
      vertex 16.875 -37.4845 2.5
      vertex 20 -40 2.5
    endloop
  endfacet
  facet normal 0 0 1
    outer loop
      vertex 19.8321 -0.62132 2.5
      vertex 1.88151 -5.09861 2.5
      vertex 5.56231 -5.88098 2.5
    endloop
  endfacet
  facet normal 0 0 1
    outer loop
      vertex 19.8321 -0.62132 2.5
      vertex 5.56231 -5.88098 2.5
      vertex 9 -7.41154 2.5
    endloop
  endfacet
  facet normal 0 0 1
    outer loop
      vertex 16.4438 -30.3213 2.5
      vertex 14.5623 -33.5801 2.5
      vertex 20 -40 2.5
    endloop
  endfacet
  facet normal 0 0 1
    outer loop
      vertex 14.25 -7 2.5
      vertex 9 -7.41154 2.5
      vertex 12.0444 -9.62339 2.5
    endloop
  endfacet
  facet normal 0 0 1
    outer loop
      vertex 16.875 -8.51554 2.5
      vertex 15.125 -8.51554 2.5
      vertex 14.5623 -12.4199 2.5
    endloop
  endfacet
  facet normal 0 0 1
    outer loop
      vertex 15.125 -8.51554 2.5
      vertex 12.0444 -9.62339 2.5
      vertex 14.5623 -12.4199 2.5
    endloop
  endfacet
  facet normal 0 0 1
    outer loop
      vertex 16.875 -8.51554 2.5
      vertex 14.5623 -12.4199 2.5
      vertex 16.4438 -15.6787 2.5
    endloop
  endfacet
  facet normal 0 0 1
    outer loop
      vertex 19.8321 -0.62132 2.5
      vertex 17.6067 -19.2576 2.5
      vertex 20 -40 2.5
    endloop
  endfacet
  facet normal 0 0 1
    outer loop
      vertex 19.8321 -0.62132 2.5
      vertex 16.4438 -15.6787 2.5
      vertex 17.6067 -19.2576 2.5
    endloop
  endfacet
  facet normal 0 0 1
    outer loop
      vertex 17.6067 -19.2576 2.5
      vertex 18 -23 2.5
      vertex 20 -40 2.5
    endloop
  endfacet
  facet normal 0 0 1
    outer loop
      vertex 15.125 -37.4845 2.5
      vertex 16.875 -37.4845 2.5
      vertex 14.5623 -33.5801 2.5
    endloop
  endfacet
  facet normal 0 0 1
    outer loop
      vertex -12.0444 -9.62339 2.5
      vertex -9 -7.41154 2.5
      vertex -15.125 -5.48446 2.5
    endloop
  endfacet
  facet normal 0 0 1
    outer loop
      vertex 1.88151 -40.9014 2.5
      vertex -1.88151 -40.9014 2.5
      vertex -17 -42.9836 2.5
    endloop
  endfacet
  facet normal 0 0 1
    outer loop
      vertex 17 -43 2.5
      vertex 1.88151 -40.9014 2.5
      vertex -17 -42.9836 2.5
    endloop
  endfacet
  facet normal 0 0 1
    outer loop
      vertex 17 -43 2.5
      vertex 5.56231 -40.119 2.5
      vertex 1.88151 -40.9014 2.5
    endloop
  endfacet
  facet normal 0 0 1
    outer loop
      vertex 14.25 -39 2.5
      vertex 15.125 -37.4845 2.5
      vertex 12.0444 -36.3766 2.5
    endloop
  endfacet
  facet normal 0 0 1
    outer loop
      vertex -1.88151 -40.9014 2.5
      vertex -5.56231 -40.119 2.5
      vertex -17 -42.9836 2.5
    endloop
  endfacet
  facet normal 0 0 1
    outer loop
      vertex -5.56231 -40.119 2.5
      vertex -9 -38.5885 2.5
      vertex -17 -42.9836 2.5
    endloop
  endfacet
  facet normal 0 0 1
    outer loop
      vertex -17.75 -39 2.5
      vertex -17.6067 -26.7424 2.5
      vertex -18 -23 2.5
    endloop
  endfacet
  facet normal 0 0 1
    outer loop
      vertex -17.75 -39 2.5
      vertex -18 -23 2.5
      vertex -19.8932 -0.62132 2.5
    endloop
  endfacet
  facet normal 0 0 1
    outer loop
      vertex -17.3136 -42.9836 2.5
      vertex -17.75 -39 2.5
      vertex -17.9271 -42.8532 2.5
    endloop
  endfacet
  facet normal 0 0 1
    outer loop
      vertex 16.875 -40.5155 2.5
      vertex 15.125 -40.5155 2.5
      vertex 17.3136 -42.9836 2.5
    endloop
  endfacet
  facet normal 0 0 1
    outer loop
      vertex -16.4438 -30.3213 2.5
      vertex -17.6067 -26.7424 2.5
      vertex -16.875 -37.4845 2.5
    endloop
  endfacet
  facet normal 0 0 1
    outer loop
      vertex -17.75 -39 2.5
      vertex -16.875 -37.4845 2.5
      vertex -17.6067 -26.7424 2.5
    endloop
  endfacet
  facet normal 0 0 1
    outer loop
      vertex -12.0444 -36.3766 2.5
      vertex -14.5623 -33.5801 2.5
      vertex -15.125 -37.4845 2.5
    endloop
  endfacet
  facet normal 0 0 1
    outer loop
      vertex -15.125 -8.51554 2.5
      vertex -16.875 -8.51554 2.5
      vertex -14.5623 -12.4199 2.5
    endloop
  endfacet
  facet normal 0 0 1
    outer loop
      vertex -12.0444 -36.3766 2.5
      vertex -15.125 -37.4845 2.5
      vertex -14.25 -39 2.5
    endloop
  endfacet
  facet normal 0 0 1
    outer loop
      vertex -9 -38.5885 2.5
      vertex -15.125 -40.5155 2.5
      vertex -17 -42.9836 2.5
    endloop
  endfacet
  facet normal 0 0 1
    outer loop
      vertex -9 -38.5885 2.5
      vertex -12.0444 -36.3766 2.5
      vertex -15.125 -40.5155 2.5
    endloop
  endfacet
  facet normal 0 0 1
    outer loop
      vertex -14.5623 -12.4199 2.5
      vertex -16.875 -8.51554 2.5
      vertex -16.4438 -15.6787 2.5
    endloop
  endfacet
  facet normal 0 0 1
    outer loop
      vertex -16.875 -8.51554 2.5
      vertex -17.75 -7 2.5
      vertex -16.4438 -15.6787 2.5
    endloop
  endfacet
  facet normal 0 0 1
    outer loop
      vertex -16.875 -5.48446 2.5
      vertex -15.125 -5.48446 2.5
      vertex -19.8932 -0.62132 2.5
    endloop
  endfacet
  facet normal 0 0 1
    outer loop
      vertex -14.25 -7 2.5
      vertex -15.125 -8.51554 2.5
      vertex -12.0444 -9.62339 2.5
    endloop
  endfacet
  facet normal 0 0 1
    outer loop
      vertex -16.875 -37.4845 2.5
      vertex -14.5623 -33.5801 2.5
      vertex -16.4438 -30.3213 2.5
    endloop
  endfacet
  facet normal 0 0 1
    outer loop
      vertex 15.125 -40.5155 2.5
      vertex 17 -43 2.5
      vertex 17 -42.9836 2.5
    endloop
  endfacet
  facet normal 0 0 1
    outer loop
      vertex 17.3136 -42.9836 2.5
      vertex 15.125 -40.5155 2.5
      vertex 17 -42.9836 2.5
    endloop
  endfacet
  facet normal 0 0 1
    outer loop
      vertex -19.8932 -0.62132 2.5
      vertex -19.0074 -42.2294 2.5
      vertex -18.5 -42.5981 2.5
    endloop
  endfacet
  facet normal 0 0 1
    outer loop
      vertex 17.75 -39 2.5
      vertex 16.875 -40.5155 2.5
      vertex 19.0074 -42.2294 2.5
    endloop
  endfacet
  facet normal 0 0 1
    outer loop
      vertex 20 -40 2.5
      vertex 16.875 -37.4845 2.5
      vertex 19.9344 -40.6237 2.5
    endloop
  endfacet
  facet normal 0 0 1
    outer loop
      vertex 19.9344 -40.6237 2.5
      vertex 17.75 -39 2.5
      vertex 19.7406 -41.2202 2.5
    endloop
  endfacet
  facet normal 0 0 1
    outer loop
      vertex 19.0074 -42.2294 2.5
      vertex 16.875 -40.5155 2.5
      vertex 18.5 -42.5981 2.5
    endloop
  endfacet
  facet normal 0 0 1
    outer loop
      vertex 15.125 -5.48446 2.5
      vertex 9 -7.41154 2.5
      vertex 14.25 -7 2.5
    endloop
  endfacet
  facet normal 0 0 1
    outer loop
      vertex 16.875 -5.48446 2.5
      vertex 17.75 -7 2.5
      vertex 19.8321 -0.62132 2.5
    endloop
  endfacet
  facet normal 0 0 1
    outer loop
      vertex 19.8321 -0.62132 2.5
      vertex 9 -7.41154 2.5
      vertex 15.125 -5.48446 2.5
    endloop
  endfacet
  facet normal 0 0 1
    outer loop
      vertex 15.125 -5.48446 2.5
      vertex 16.875 -5.48446 2.5
      vertex 19.8321 -0.62132 2.5
    endloop
  endfacet
  facet normal 0 0 1
    outer loop
      vertex 19.8321 -0.62132 2.5
      vertex 17.75 -7 2.5
      vertex 16.4438 -15.6787 2.5
    endloop
  endfacet
  facet normal 0 0 1
    outer loop
      vertex 17.75 -7 2.5
      vertex 16.875 -8.51554 2.5
      vertex 16.4438 -15.6787 2.5
    endloop
  endfacet
  facet normal 0 0 1
    outer loop
      vertex 15.125 -8.51554 2.5
      vertex 14.25 -7 2.5
      vertex 12.0444 -9.62339 2.5
    endloop
  endfacet
  facet normal 0 0 1
    outer loop
      vertex -14.5623 -12.4199 2.5
      vertex -12.0444 -9.62339 2.5
      vertex -15.125 -8.51554 2.5
    endloop
  endfacet
  facet normal 0 0 1
    outer loop
      vertex 16.875 -37.4845 2.5
      vertex 17.75 -39 2.5
      vertex 19.9344 -40.6237 2.5
    endloop
  endfacet
  facet normal 0 0 1
    outer loop
      vertex -16.875 -40.5155 2.5
      vertex -17.75 -39 2.5
      vertex -17.3136 -42.9836 2.5
    endloop
  endfacet
  facet normal 0 0 1
    outer loop
      vertex 17.75 -39 2.5
      vertex 19.4271 -41.7634 2.5
      vertex 19.7406 -41.2202 2.5
    endloop
  endfacet
  facet normal 0 0 1
    outer loop
      vertex 12.0444 -36.3766 2.5
      vertex 9 -38.5885 2.5
      vertex 15.125 -40.5155 2.5
    endloop
  endfacet
  facet normal 0 0 1
    outer loop
      vertex 15.125 -40.5155 2.5
      vertex 9 -38.5885 2.5
      vertex 17 -43 2.5
    endloop
  endfacet
  facet normal 0 0 1
    outer loop
      vertex -5.56231 -5.88098 2.5
      vertex -15.125 -5.48446 2.5
      vertex -9 -7.41154 2.5
    endloop
  endfacet
  facet normal 0 0 1
    outer loop
      vertex -1.88151 -5.09861 2.5
      vertex -15.125 -5.48446 2.5
      vertex -5.56231 -5.88098 2.5
    endloop
  endfacet
  facet normal 0 0 1
    outer loop
      vertex 19.8321 -0.62132 2.5
      vertex -15.125 -5.48446 2.5
      vertex -1.88151 -5.09861 2.5
    endloop
  endfacet
  facet normal 0 0 1
    outer loop
      vertex -1.88151 -5.09861 2.5
      vertex 1.88151 -5.09861 2.5
      vertex 19.8321 -0.62132 2.5
    endloop
  endfacet
  facet normal 0 0 1
    outer loop
      vertex 17.6067 -26.7424 2.5
      vertex 16.4438 -30.3213 2.5
      vertex 20 -40 2.5
    endloop
  endfacet
  facet normal 0 0 1
    outer loop
      vertex 17.75 -39 2.5
      vertex 19.0074 -42.2294 2.5
      vertex 19.4271 -41.7634 2.5
    endloop
  endfacet
  facet normal 0 0 1
    outer loop
      vertex 16.875 -40.5155 2.5
      vertex 17.9271 -42.8532 2.5
      vertex 18.5 -42.5981 2.5
    endloop
  endfacet
  facet normal 0 0 1
    outer loop
      vertex -15.125 -5.48446 2.5
      vertex -14.25 -7 2.5
      vertex -12.0444 -9.62339 2.5
    endloop
  endfacet
  facet normal 0 0 1
    outer loop
      vertex 19.8321 -0.62132 2.5
      vertex -19.8932 -0.62132 2.5
      vertex -15.125 -5.48446 2.5
    endloop
  endfacet
  facet normal 1 0 0
    outer loop
      vertex 20 -0.62132 2.5
      vertex 20 -40 2.5
      vertex 20 -40 -0.5
    endloop
  endfacet
  facet normal 1 0 0
    outer loop
      vertex 20 -1.33651 1.68099
      vertex 20 -0.62132 2.5
      vertex 20 -40 -0.5
    endloop
  endfacet
  facet normal 1 0 0
    outer loop
      vertex 20 -1.77636e-15 -0.5
      vertex 20 -1.06066 -0.0606602
      vertex 20 -40 -0.5
    endloop
  endfacet
  facet normal 1 0 0
    outer loop
      vertex 20 -1.06066 -0.0606602
      vertex 20 -1.33651 1.68099
      vertex 20 -40 -0.5
    endloop
  endfacet
  facet normal 1 0 0
    outer loop
      vertex 20 -0.902252 1.90225
      vertex 20 -0.62132 2.5
      vertex 20 -1.33651 1.68099
    endloop
  endfacet
  facet normal 1 0 0
    outer loop
      vertex 20 1.06066 -0.0606602
      vertex 20 -0.62132 2.5
      vertex 20 0.902252 0.0977484
    endloop
  endfacet
  facet normal 1 0 0
    outer loop
      vertex 20 8.83883 7.71751
      vertex 20 -0.62132 2.5
      vertex 20 1.06066 -0.0606602
    endloop
  endfacet
  facet normal 1 0 0
    outer loop
      vertex 20 -1.77636e-15 -0.228652
      vertex 20 -1.06066 -0.0606602
      vertex 20 -1.77636e-15 -0.5
    endloop
  endfacet
  facet normal 1 0 0
    outer loop
      vertex 20 6.71751 9.83883
      vertex 20 -0.62132 2.5
      vertex 20 8.83883 7.71751
    endloop
  endfacet
  facet normal 1 0 0
    outer loop
      vertex 20 -0.902252 1.90225
      vertex 20 0.902252 0.0977484
      vertex 20 -0.62132 2.5
    endloop
  endfacet
  facet normal 1 1.57009e-16 1.57009e-16
    outer loop
      vertex 20 0.902252 0.0977484
      vertex 20 -0.902252 1.90225
      vertex 20 -1.33651 1.68099
    endloop
  endfacet
  facet normal 1 1.57009e-16 1.57009e-16
    outer loop
      vertex 20 0.680986 -0.33651
      vertex 20 0.902252 0.0977484
      vertex 20 -1.06066 -0.0606602
    endloop
  endfacet
  facet normal 1 1.57009e-16 1.57009e-16
    outer loop
      vertex 20 -1.06066 -0.0606602
      vertex 20 0.902252 0.0977484
      vertex 20 -1.33651 1.68099
    endloop
  endfacet
  facet normal 0 -0.707107 -0.707107
    outer loop
      vertex 20 0.902252 0.0977484
      vertex -20 0.902252 0.0977484
      vertex -20 1.06066 -0.0606602
    endloop
  endfacet
  facet normal 0 -0.707107 -0.707107
    outer loop
      vertex 20 1.06066 -0.0606602
      vertex 20 0.902252 0.0977484
      vertex -20 1.06066 -0.0606602
    endloop
  endfacet
  facet normal -1 0 0
    outer loop
      vertex -20 0.949987 0.191434
      vertex -20 1.13137 0.0100505
      vertex -20 0.902252 0.0977484
    endloop
  endfacet
  facet normal -1 0 0
    outer loop
      vertex -20 0.902252 0.0977484
      vertex -20 1.13137 0.0100505
      vertex -20 1.06066 -0.0606602
    endloop
  endfacet
  facet normal -9.72842e-16 0.707107 -0.707107
    outer loop
      vertex -19.8019 9.45244 8.33112
      vertex -20 1.06066 -0.0606602
      vertex -20 1.13137 0.0100505
    endloop
  endfacet
  facet normal -0.999858 0.0118996 0.0118996
    outer loop
      vertex -19.8019 9.45244 8.33112
      vertex -20 1.13137 0.0100505
      vertex -19.8019 7.33112 10.4524
    endloop
  endfacet
  facet normal -0.62349 0.552838 0.552838
    outer loop
      vertex -19.8019 7.33112 10.4524
      vertex -18.445 8.09627 11.2176
      vertex -19.8019 9.45244 8.33112
    endloop
  endfacet
  facet normal -0.62349 0.552838 0.552838
    outer loop
      vertex -19.8019 9.45244 8.33112
      vertex -18.445 8.09627 11.2176
      vertex -18.445 10.2176 9.09627
    endloop
  endfacet
  facet normal 0 -0.707107 0.707107
    outer loop
      vertex -19.8019 7.33112 10.4524
      vertex -19.8019 6.10391 9.22523
      vertex -18.445 5.33876 8.46008
    endloop
  endfacet
  facet normal 0 -0.707107 0.707107
    outer loop
      vertex -17.2135 5.92674 9.04806
      vertex -19.8019 7.33112 10.4524
      vertex -17.2135 5.33876 8.46008
    endloop
  endfacet
  facet normal 0 -0.707107 0.707107
    outer loop
      vertex -17.2135 5.33876 8.46008
      vertex -19.8019 7.33112 10.4524
      vertex -18.445 5.33876 8.46008
    endloop
  endfacet
  facet normal 0 -0.707107 0.707107
    outer loop
      vertex -15.5365 6.31205 9.43337
      vertex -19.8019 7.33112 10.4524
      vertex -17.2135 5.92674 9.04806
    endloop
  endfacet
  facet normal 0 -0.707107 0.707107
    outer loop
      vertex 14.7865 5.33876 8.46008
      vertex -19.8019 7.33112 10.4524
      vertex -15.5365 6.31205 9.43337
    endloop
  endfacet
  facet normal 0 -0.707107 0.707107
    outer loop
      vertex 14.7865 5.33876 8.46008
      vertex -15.5365 6.31205 9.43337
      vertex -14.5364 5.33876 8.46008
    endloop
  endfacet
  facet normal 0 -0.707107 0.707107
    outer loop
      vertex 14.7865 5.92674 9.04806
      vertex -19.8019 7.33112 10.4524
      vertex 14.7865 5.33876 8.46008
    endloop
  endfacet
  facet normal 0 -0.707107 0.707107
    outer loop
      vertex 16.4635 6.31205 9.43337
      vertex -19.8019 7.33112 10.4524
      vertex 14.7865 5.92674 9.04806
    endloop
  endfacet
  facet normal 0 -0.707107 0.707107
    outer loop
      vertex 20 6.71751 9.83883
      vertex -19.8019 7.33112 10.4524
      vertex 16.4635 6.31205 9.43337
    endloop
  endfacet
  facet normal 0 -0.707107 0.707107
    outer loop
      vertex 17.555 5.33876 8.46008
      vertex 16.4635 6.31205 9.43337
      vertex 17.4636 5.33876 8.46008
    endloop
  endfacet
  facet normal 0 -0.707107 0.707107
    outer loop
      vertex 19.247 5.61184 8.73316
      vertex 16.4635 6.31205 9.43337
      vertex 17.555 5.33876 8.46008
    endloop
  endfacet
  facet normal 0 -0.707107 0.707107
    outer loop
      vertex 20 6.71751 9.83883
      vertex 16.4635 6.31205 9.43337
      vertex 19.247 5.61184 8.73316
    endloop
  endfacet
  facet normal 0 -0.707107 0.707107
    outer loop
      vertex 19.247 7.82319 10.9445
      vertex -19.8019 7.33112 10.4524
      vertex 20 6.71751 9.83883
    endloop
  endfacet
  facet normal 0 -0.707107 0.707107
    outer loop
      vertex 17.555 8.09627 11.2176
      vertex -19.8019 7.33112 10.4524
      vertex 19.247 7.82319 10.9445
    endloop
  endfacet
  facet normal 0 -0.707107 0.707107
    outer loop
      vertex -18.445 8.09627 11.2176
      vertex -19.8019 7.33112 10.4524
      vertex 17.555 8.09627 11.2176
    endloop
  endfacet
  facet normal -1.22198e-14 -0.707107 0.707107
    outer loop
      vertex -19.8019 7.33112 10.4524
      vertex -19.9912 -0.62132 2.5
      vertex -19.9897 -0.62132 2.5
    endloop
  endfacet
  facet normal -1.22198e-14 -0.707107 0.707107
    outer loop
      vertex -19.8019 6.10391 9.22523
      vertex -19.8019 7.33112 10.4524
      vertex -19.9897 -0.62132 2.5
    endloop
  endfacet
  facet normal -0.951056 -0.309018 0
    outer loop
      vertex -19.9344 -40.6237 2.5
      vertex -19.9344 -40.6237 -0.5
      vertex -19.7406 -41.2202 2.5
    endloop
  endfacet
  facet normal -0.951056 -0.309018 0
    outer loop
      vertex -19.7406 -41.2202 2.5
      vertex -19.9344 -40.6237 -0.5
      vertex -19.7406 -41.2202 -0.5
    endloop
  endfacet
  facet normal -0.866026 -0.499999 0
    outer loop
      vertex -19.7406 -41.2202 2.5
      vertex -19.7406 -41.2202 -0.5
      vertex -19.4271 -41.7634 2.5
    endloop
  endfacet
  facet normal -0.866026 -0.499999 0
    outer loop
      vertex -19.4271 -41.7634 2.5
      vertex -19.7406 -41.2202 -0.5
      vertex -19.4271 -41.7634 -0.5
    endloop
  endfacet
  facet normal -0.743144 -0.669131 0
    outer loop
      vertex -19.4271 -41.7634 2.5
      vertex -19.4271 -41.7634 -0.5
      vertex -19.0074 -42.2294 2.5
    endloop
  endfacet
  facet normal -0.743144 -0.669131 0
    outer loop
      vertex -19.0074 -42.2294 2.5
      vertex -19.4271 -41.7634 -0.5
      vertex -19.0074 -42.2294 -0.5
    endloop
  endfacet
  facet normal -0.587785 -0.809017 0
    outer loop
      vertex -18.5 -42.5981 2.5
      vertex -19.0074 -42.2294 2.5
      vertex -19.0074 -42.2294 -0.5
    endloop
  endfacet
  facet normal -0.587785 -0.809017 0
    outer loop
      vertex -18.5 -42.5981 -0.5
      vertex -18.5 -42.5981 2.5
      vertex -19.0074 -42.2294 -0.5
    endloop
  endfacet
  facet normal -0.406738 -0.913545 0
    outer loop
      vertex -17.9271 -42.8532 2.5
      vertex -18.5 -42.5981 2.5
      vertex -18.5 -42.5981 -0.5
    endloop
  endfacet
  facet normal -0.406738 -0.913545 0
    outer loop
      vertex -17.9271 -42.8532 -0.5
      vertex -17.9271 -42.8532 2.5
      vertex -18.5 -42.5981 -0.5
    endloop
  endfacet
  facet normal -0.207911 -0.978148 0
    outer loop
      vertex -17.3136 -42.9836 2.5
      vertex -17.9271 -42.8532 2.5
      vertex -17.9271 -42.8532 -0.5
    endloop
  endfacet
  facet normal -0.207911 -0.978148 0
    outer loop
      vertex -17.3136 -42.9836 -0.5
      vertex -17.3136 -42.9836 2.5
      vertex -17.9271 -42.8532 -0.5
    endloop
  endfacet
  facet normal 0 -1 0
    outer loop
      vertex -17 -42.9836 2.5
      vertex -17.3136 -42.9836 2.5
      vertex -17.3136 -42.9836 -0.5
    endloop
  endfacet
  facet normal 0 -1 0
    outer loop
      vertex -17 -42.9836 -0.5
      vertex -17 -42.9836 2.5
      vertex -17.3136 -42.9836 -0.5
    endloop
  endfacet
  facet normal -1 0 0
    outer loop
      vertex -17 -43 2.5
      vertex -17 -42.9836 2.5
      vertex -17 -43 -0.5
    endloop
  endfacet
  facet normal -1 0 0
    outer loop
      vertex -17 -43 -0.5
      vertex -17 -42.9836 2.5
      vertex -17 -42.9836 -0.5
    endloop
  endfacet
  facet normal 0 -1 0
    outer loop
      vertex 17 -43 2.5
      vertex -17 -43 2.5
      vertex -17 -43 -0.5
    endloop
  endfacet
  facet normal 0 -1 0
    outer loop
      vertex 17 -43 -0.5
      vertex 17 -43 2.5
      vertex -17 -43 -0.5
    endloop
  endfacet
  facet normal 1 0 0
    outer loop
      vertex 17 -42.9836 2.5
      vertex 17 -43 2.5
      vertex 17 -43 -0.5
    endloop
  endfacet
  facet normal 1 0 0
    outer loop
      vertex 17 -42.9836 -0.5
      vertex 17 -42.9836 2.5
      vertex 17 -43 -0.5
    endloop
  endfacet
  facet normal 0 -1 0
    outer loop
      vertex 17.3136 -42.9836 2.5
      vertex 17 -42.9836 2.5
      vertex 17 -42.9836 -0.5
    endloop
  endfacet
  facet normal 0 -1 0
    outer loop
      vertex 17.3136 -42.9836 -0.5
      vertex 17.3136 -42.9836 2.5
      vertex 17 -42.9836 -0.5
    endloop
  endfacet
  facet normal 0.207911 -0.978148 0
    outer loop
      vertex 17.9271 -42.8532 2.5
      vertex 17.3136 -42.9836 2.5
      vertex 17.3136 -42.9836 -0.5
    endloop
  endfacet
  facet normal 0.207911 -0.978148 0
    outer loop
      vertex 17.9271 -42.8532 -0.5
      vertex 17.9271 -42.8532 2.5
      vertex 17.3136 -42.9836 -0.5
    endloop
  endfacet
  facet normal 0.406738 -0.913545 0
    outer loop
      vertex 18.5 -42.5981 2.5
      vertex 17.9271 -42.8532 2.5
      vertex 17.9271 -42.8532 -0.5
    endloop
  endfacet
  facet normal 0.406738 -0.913545 0
    outer loop
      vertex 18.5 -42.5981 -0.5
      vertex 18.5 -42.5981 2.5
      vertex 17.9271 -42.8532 -0.5
    endloop
  endfacet
  facet normal 0.587785 -0.809017 0
    outer loop
      vertex 19.0074 -42.2294 2.5
      vertex 18.5 -42.5981 2.5
      vertex 18.5 -42.5981 -0.5
    endloop
  endfacet
  facet normal 0.587785 -0.809017 0
    outer loop
      vertex 19.0074 -42.2294 -0.5
      vertex 19.0074 -42.2294 2.5
      vertex 18.5 -42.5981 -0.5
    endloop
  endfacet
  facet normal 0.743144 -0.669131 0
    outer loop
      vertex 19.4271 -41.7634 2.5
      vertex 19.0074 -42.2294 2.5
      vertex 19.0074 -42.2294 -0.5
    endloop
  endfacet
  facet normal 0.743144 -0.669131 0
    outer loop
      vertex 19.4271 -41.7634 -0.5
      vertex 19.4271 -41.7634 2.5
      vertex 19.0074 -42.2294 -0.5
    endloop
  endfacet
  facet normal 0.866026 -0.499999 0
    outer loop
      vertex 19.7406 -41.2202 2.5
      vertex 19.4271 -41.7634 2.5
      vertex 19.4271 -41.7634 -0.5
    endloop
  endfacet
  facet normal 0.866026 -0.499999 0
    outer loop
      vertex 19.7406 -41.2202 -0.5
      vertex 19.7406 -41.2202 2.5
      vertex 19.4271 -41.7634 -0.5
    endloop
  endfacet
  facet normal 0.951056 -0.309018 0
    outer loop
      vertex 19.9344 -40.6237 2.5
      vertex 19.7406 -41.2202 2.5
      vertex 19.7406 -41.2202 -0.5
    endloop
  endfacet
  facet normal 0.951056 -0.309018 0
    outer loop
      vertex 19.9344 -40.6237 -0.5
      vertex 19.9344 -40.6237 2.5
      vertex 19.7406 -41.2202 -0.5
    endloop
  endfacet
  facet normal 0.994522 -0.104528 0
    outer loop
      vertex 20 -40 2.5
      vertex 19.9344 -40.6237 2.5
      vertex 19.9344 -40.6237 -0.5
    endloop
  endfacet
  facet normal 0.994522 -0.104528 0
    outer loop
      vertex 20 -40 -0.5
      vertex 20 -40 2.5
      vertex 19.9344 -40.6237 -0.5
    endloop
  endfacet
  facet normal 0.994522 -0.104528 0
    outer loop
      vertex -18 -23 -0.5
      vertex -17.6067 -19.2576 -0.5
      vertex -17.6067 -19.2576 2.5
    endloop
  endfacet
  facet normal 0.994522 -0.104528 0
    outer loop
      vertex -18 -23 2.5
      vertex -18 -23 -0.5
      vertex -17.6067 -19.2576 2.5
    endloop
  endfacet
  facet normal 0.994522 0.104528 0
    outer loop
      vertex -17.6067 -26.7424 2.5
      vertex -17.6067 -26.7424 -0.5
      vertex -18 -23 -0.5
    endloop
  endfacet
  facet normal 0.994522 0.104528 0
    outer loop
      vertex -18 -23 2.5
      vertex -17.6067 -26.7424 2.5
      vertex -18 -23 -0.5
    endloop
  endfacet
  facet normal 0.951057 -0.309017 0
    outer loop
      vertex -17.6067 -19.2576 -0.5
      vertex -16.4438 -15.6787 -0.5
      vertex -16.4438 -15.6787 2.5
    endloop
  endfacet
  facet normal 0.951057 -0.309017 0
    outer loop
      vertex -17.6067 -19.2576 2.5
      vertex -17.6067 -19.2576 -0.5
      vertex -16.4438 -15.6787 2.5
    endloop
  endfacet
  facet normal 0.866025 -0.5 0
    outer loop
      vertex -16.4438 -15.6787 -0.5
      vertex -14.5623 -12.4199 -0.5
      vertex -14.5623 -12.4199 2.5
    endloop
  endfacet
  facet normal 0.866025 -0.5 0
    outer loop
      vertex -16.4438 -15.6787 2.5
      vertex -16.4438 -15.6787 -0.5
      vertex -14.5623 -12.4199 2.5
    endloop
  endfacet
  facet normal 0.743145 -0.669131 0
    outer loop
      vertex -14.5623 -12.4199 -0.5
      vertex -12.0444 -9.62339 -0.5
      vertex -12.0444 -9.62339 2.5
    endloop
  endfacet
  facet normal 0.743145 -0.669131 0
    outer loop
      vertex -14.5623 -12.4199 2.5
      vertex -14.5623 -12.4199 -0.5
      vertex -12.0444 -9.62339 2.5
    endloop
  endfacet
  facet normal 0.587785 -0.809017 0
    outer loop
      vertex -12.0444 -9.62339 -0.5
      vertex -9 -7.41154 -0.5
      vertex -9 -7.41154 2.5
    endloop
  endfacet
  facet normal 0.587785 -0.809017 0
    outer loop
      vertex -12.0444 -9.62339 2.5
      vertex -12.0444 -9.62339 -0.5
      vertex -9 -7.41154 2.5
    endloop
  endfacet
  facet normal 0.406737 -0.913545 0
    outer loop
      vertex -9 -7.41154 -0.5
      vertex -5.56231 -5.88098 -0.5
      vertex -5.56231 -5.88098 2.5
    endloop
  endfacet
  facet normal 0.406737 -0.913545 0
    outer loop
      vertex -9 -7.41154 2.5
      vertex -9 -7.41154 -0.5
      vertex -5.56231 -5.88098 2.5
    endloop
  endfacet
  facet normal 0.207912 -0.978148 0
    outer loop
      vertex -5.56231 -5.88098 -0.5
      vertex -1.88151 -5.09861 -0.5
      vertex -1.88151 -5.09861 2.5
    endloop
  endfacet
  facet normal 0.207912 -0.978148 0
    outer loop
      vertex -5.56231 -5.88098 2.5
      vertex -5.56231 -5.88098 -0.5
      vertex -1.88151 -5.09861 2.5
    endloop
  endfacet
  facet normal 0 -1 0
    outer loop
      vertex -1.88151 -5.09861 -0.5
      vertex 1.88151 -5.09861 -0.5
      vertex 1.88151 -5.09861 2.5
    endloop
  endfacet
  facet normal 0 -1 0
    outer loop
      vertex -1.88151 -5.09861 2.5
      vertex -1.88151 -5.09861 -0.5
      vertex 1.88151 -5.09861 2.5
    endloop
  endfacet
  facet normal -0.207912 -0.978148 0
    outer loop
      vertex 1.88151 -5.09861 -0.5
      vertex 5.56231 -5.88098 -0.5
      vertex 5.56231 -5.88098 2.5
    endloop
  endfacet
  facet normal -0.207912 -0.978148 0
    outer loop
      vertex 1.88151 -5.09861 2.5
      vertex 1.88151 -5.09861 -0.5
      vertex 5.56231 -5.88098 2.5
    endloop
  endfacet
  facet normal -0.406737 -0.913545 0
    outer loop
      vertex 5.56231 -5.88098 -0.5
      vertex 9 -7.41154 -0.5
      vertex 9 -7.41154 2.5
    endloop
  endfacet
  facet normal -0.406737 -0.913545 0
    outer loop
      vertex 5.56231 -5.88098 2.5
      vertex 5.56231 -5.88098 -0.5
      vertex 9 -7.41154 2.5
    endloop
  endfacet
  facet normal -0.587785 -0.809017 0
    outer loop
      vertex 9 -7.41154 -0.5
      vertex 12.0444 -9.62339 -0.5
      vertex 12.0444 -9.62339 2.5
    endloop
  endfacet
  facet normal -0.587785 -0.809017 0
    outer loop
      vertex 9 -7.41154 2.5
      vertex 9 -7.41154 -0.5
      vertex 12.0444 -9.62339 2.5
    endloop
  endfacet
  facet normal -0.743145 -0.669131 0
    outer loop
      vertex 14.5623 -12.4199 -0.5
      vertex 14.5623 -12.4199 2.5
      vertex 12.0444 -9.62339 -0.5
    endloop
  endfacet
  facet normal -0.743145 -0.669131 0
    outer loop
      vertex 12.0444 -9.62339 -0.5
      vertex 14.5623 -12.4199 2.5
      vertex 12.0444 -9.62339 2.5
    endloop
  endfacet
  facet normal -0.866025 -0.5 0
    outer loop
      vertex 16.4438 -15.6787 -0.5
      vertex 16.4438 -15.6787 2.5
      vertex 14.5623 -12.4199 -0.5
    endloop
  endfacet
  facet normal -0.866025 -0.5 0
    outer loop
      vertex 14.5623 -12.4199 -0.5
      vertex 16.4438 -15.6787 2.5
      vertex 14.5623 -12.4199 2.5
    endloop
  endfacet
  facet normal -0.951057 -0.309017 0
    outer loop
      vertex 17.6067 -19.2576 -0.5
      vertex 17.6067 -19.2576 2.5
      vertex 16.4438 -15.6787 -0.5
    endloop
  endfacet
  facet normal -0.951057 -0.309017 0
    outer loop
      vertex 16.4438 -15.6787 -0.5
      vertex 17.6067 -19.2576 2.5
      vertex 16.4438 -15.6787 2.5
    endloop
  endfacet
  facet normal -0.994522 -0.104528 0
    outer loop
      vertex 18 -23 -0.5
      vertex 18 -23 2.5
      vertex 17.6067 -19.2576 -0.5
    endloop
  endfacet
  facet normal -0.994522 -0.104528 0
    outer loop
      vertex 17.6067 -19.2576 -0.5
      vertex 18 -23 2.5
      vertex 17.6067 -19.2576 2.5
    endloop
  endfacet
  facet normal -0.994522 0.104528 0
    outer loop
      vertex 18 -23 -0.5
      vertex 17.6067 -26.7424 -0.5
      vertex 18 -23 2.5
    endloop
  endfacet
  facet normal -0.994522 0.104528 0
    outer loop
      vertex 18 -23 2.5
      vertex 17.6067 -26.7424 -0.5
      vertex 17.6067 -26.7424 2.5
    endloop
  endfacet
  facet normal -0.951057 0.309017 0
    outer loop
      vertex 17.6067 -26.7424 -0.5
      vertex 16.4438 -30.3213 -0.5
      vertex 17.6067 -26.7424 2.5
    endloop
  endfacet
  facet normal -0.951057 0.309017 0
    outer loop
      vertex 17.6067 -26.7424 2.5
      vertex 16.4438 -30.3213 -0.5
      vertex 16.4438 -30.3213 2.5
    endloop
  endfacet
  facet normal -0.866025 0.5 0
    outer loop
      vertex 16.4438 -30.3213 -0.5
      vertex 14.5623 -33.5801 -0.5
      vertex 16.4438 -30.3213 2.5
    endloop
  endfacet
  facet normal -0.866025 0.5 0
    outer loop
      vertex 16.4438 -30.3213 2.5
      vertex 14.5623 -33.5801 -0.5
      vertex 14.5623 -33.5801 2.5
    endloop
  endfacet
  facet normal -0.743145 0.669131 0
    outer loop
      vertex 14.5623 -33.5801 -0.5
      vertex 12.0444 -36.3766 -0.5
      vertex 14.5623 -33.5801 2.5
    endloop
  endfacet
  facet normal -0.743145 0.669131 0
    outer loop
      vertex 14.5623 -33.5801 2.5
      vertex 12.0444 -36.3766 -0.5
      vertex 12.0444 -36.3766 2.5
    endloop
  endfacet
  facet normal -0.587785 0.809017 0
    outer loop
      vertex 12.0444 -36.3766 -0.5
      vertex 9 -38.5885 -0.5
      vertex 12.0444 -36.3766 2.5
    endloop
  endfacet
  facet normal -0.587785 0.809017 0
    outer loop
      vertex 12.0444 -36.3766 2.5
      vertex 9 -38.5885 -0.5
      vertex 9 -38.5885 2.5
    endloop
  endfacet
  facet normal -0.406737 0.913545 0
    outer loop
      vertex 9 -38.5885 -0.5
      vertex 5.56231 -40.119 -0.5
      vertex 9 -38.5885 2.5
    endloop
  endfacet
  facet normal -0.406737 0.913545 0
    outer loop
      vertex 9 -38.5885 2.5
      vertex 5.56231 -40.119 -0.5
      vertex 5.56231 -40.119 2.5
    endloop
  endfacet
  facet normal -0.207912 0.978148 0
    outer loop
      vertex 5.56231 -40.119 -0.5
      vertex 1.88151 -40.9014 -0.5
      vertex 5.56231 -40.119 2.5
    endloop
  endfacet
  facet normal -0.207912 0.978148 0
    outer loop
      vertex 5.56231 -40.119 2.5
      vertex 1.88151 -40.9014 -0.5
      vertex 1.88151 -40.9014 2.5
    endloop
  endfacet
  facet normal 0 1 0
    outer loop
      vertex 1.88151 -40.9014 -0.5
      vertex -1.88151 -40.9014 -0.5
      vertex 1.88151 -40.9014 2.5
    endloop
  endfacet
  facet normal 0 1 0
    outer loop
      vertex 1.88151 -40.9014 2.5
      vertex -1.88151 -40.9014 -0.5
      vertex -1.88151 -40.9014 2.5
    endloop
  endfacet
  facet normal 0.207912 0.978148 0
    outer loop
      vertex -1.88151 -40.9014 -0.5
      vertex -5.56231 -40.119 -0.5
      vertex -1.88151 -40.9014 2.5
    endloop
  endfacet
  facet normal 0.207912 0.978148 0
    outer loop
      vertex -1.88151 -40.9014 2.5
      vertex -5.56231 -40.119 -0.5
      vertex -5.56231 -40.119 2.5
    endloop
  endfacet
  facet normal 0.406737 0.913545 0
    outer loop
      vertex -5.56231 -40.119 -0.5
      vertex -9 -38.5885 -0.5
      vertex -5.56231 -40.119 2.5
    endloop
  endfacet
  facet normal 0.406737 0.913545 0
    outer loop
      vertex -5.56231 -40.119 2.5
      vertex -9 -38.5885 -0.5
      vertex -9 -38.5885 2.5
    endloop
  endfacet
  facet normal 0.587785 0.809017 0
    outer loop
      vertex -9 -38.5885 -0.5
      vertex -12.0444 -36.3766 -0.5
      vertex -9 -38.5885 2.5
    endloop
  endfacet
  facet normal 0.587785 0.809017 0
    outer loop
      vertex -9 -38.5885 2.5
      vertex -12.0444 -36.3766 -0.5
      vertex -12.0444 -36.3766 2.5
    endloop
  endfacet
  facet normal 0.743145 0.669131 0
    outer loop
      vertex -12.0444 -36.3766 2.5
      vertex -12.0444 -36.3766 -0.5
      vertex -14.5623 -33.5801 -0.5
    endloop
  endfacet
  facet normal 0.743145 0.669131 0
    outer loop
      vertex -14.5623 -33.5801 2.5
      vertex -12.0444 -36.3766 2.5
      vertex -14.5623 -33.5801 -0.5
    endloop
  endfacet
  facet normal 0.866025 0.5 0
    outer loop
      vertex -14.5623 -33.5801 2.5
      vertex -14.5623 -33.5801 -0.5
      vertex -16.4438 -30.3213 -0.5
    endloop
  endfacet
  facet normal 0.866025 0.5 0
    outer loop
      vertex -16.4438 -30.3213 2.5
      vertex -14.5623 -33.5801 2.5
      vertex -16.4438 -30.3213 -0.5
    endloop
  endfacet
  facet normal 0.951057 0.309017 0
    outer loop
      vertex -16.4438 -30.3213 2.5
      vertex -16.4438 -30.3213 -0.5
      vertex -17.6067 -26.7424 -0.5
    endloop
  endfacet
  facet normal 0.951057 0.309017 0
    outer loop
      vertex -17.6067 -26.7424 2.5
      vertex -16.4438 -30.3213 2.5
      vertex -17.6067 -26.7424 -0.5
    endloop
  endfacet
  facet normal 0.866025 -0.5 0
    outer loop
      vertex -17.75 -39 -0.5
      vertex -16.875 -37.4845 -0.5
      vertex -16.875 -37.4845 2.5
    endloop
  endfacet
  facet normal 0.866025 -0.5 0
    outer loop
      vertex -17.75 -39 2.5
      vertex -17.75 -39 -0.5
      vertex -16.875 -37.4845 2.5
    endloop
  endfacet
  facet normal 0.866025 0.5 0
    outer loop
      vertex -16.875 -40.5155 2.5
      vertex -16.875 -40.5155 -0.5
      vertex -17.75 -39 -0.5
    endloop
  endfacet
  facet normal 0.866025 0.5 0
    outer loop
      vertex -17.75 -39 2.5
      vertex -16.875 -40.5155 2.5
      vertex -17.75 -39 -0.5
    endloop
  endfacet
  facet normal 0 -1 0
    outer loop
      vertex -16.875 -37.4845 -0.5
      vertex -15.125 -37.4845 -0.5
      vertex -15.125 -37.4845 2.5
    endloop
  endfacet
  facet normal 0 -1 0
    outer loop
      vertex -16.875 -37.4845 2.5
      vertex -16.875 -37.4845 -0.5
      vertex -15.125 -37.4845 2.5
    endloop
  endfacet
  facet normal -0.866025 -0.5 0
    outer loop
      vertex -14.25 -39 -0.5
      vertex -14.25 -39 2.5
      vertex -15.125 -37.4845 -0.5
    endloop
  endfacet
  facet normal -0.866025 -0.5 0
    outer loop
      vertex -15.125 -37.4845 -0.5
      vertex -14.25 -39 2.5
      vertex -15.125 -37.4845 2.5
    endloop
  endfacet
  facet normal -0.866025 0.5 0
    outer loop
      vertex -14.25 -39 -0.5
      vertex -15.125 -40.5155 -0.5
      vertex -14.25 -39 2.5
    endloop
  endfacet
  facet normal -0.866025 0.5 0
    outer loop
      vertex -14.25 -39 2.5
      vertex -15.125 -40.5155 -0.5
      vertex -15.125 -40.5155 2.5
    endloop
  endfacet
  facet normal 0 1 0
    outer loop
      vertex -15.125 -40.5155 -0.5
      vertex -16.875 -40.5155 -0.5
      vertex -15.125 -40.5155 2.5
    endloop
  endfacet
  facet normal 0 1 0
    outer loop
      vertex -15.125 -40.5155 2.5
      vertex -16.875 -40.5155 -0.5
      vertex -16.875 -40.5155 2.5
    endloop
  endfacet
  facet normal 0.866025 -0.5 0
    outer loop
      vertex -17.75 -7 -0.5
      vertex -16.875 -5.48446 -0.5
      vertex -16.875 -5.48446 2.5
    endloop
  endfacet
  facet normal 0.866025 -0.5 0
    outer loop
      vertex -17.75 -7 2.5
      vertex -17.75 -7 -0.5
      vertex -16.875 -5.48446 2.5
    endloop
  endfacet
  facet normal 0.866025 0.5 0
    outer loop
      vertex -16.875 -8.51554 2.5
      vertex -16.875 -8.51554 -0.5
      vertex -17.75 -7 -0.5
    endloop
  endfacet
  facet normal 0.866025 0.5 0
    outer loop
      vertex -17.75 -7 2.5
      vertex -16.875 -8.51554 2.5
      vertex -17.75 -7 -0.5
    endloop
  endfacet
  facet normal 0 -1 0
    outer loop
      vertex -16.875 -5.48446 -0.5
      vertex -15.125 -5.48446 -0.5
      vertex -15.125 -5.48446 2.5
    endloop
  endfacet
  facet normal 0 -1 0
    outer loop
      vertex -16.875 -5.48446 2.5
      vertex -16.875 -5.48446 -0.5
      vertex -15.125 -5.48446 2.5
    endloop
  endfacet
  facet normal -0.866025 -0.5 0
    outer loop
      vertex -14.25 -7 -0.5
      vertex -14.25 -7 2.5
      vertex -15.125 -5.48446 -0.5
    endloop
  endfacet
  facet normal -0.866025 -0.5 0
    outer loop
      vertex -15.125 -5.48446 -0.5
      vertex -14.25 -7 2.5
      vertex -15.125 -5.48446 2.5
    endloop
  endfacet
  facet normal -0.866025 0.5 0
    outer loop
      vertex -14.25 -7 -0.5
      vertex -15.125 -8.51554 -0.5
      vertex -14.25 -7 2.5
    endloop
  endfacet
  facet normal -0.866025 0.5 0
    outer loop
      vertex -14.25 -7 2.5
      vertex -15.125 -8.51554 -0.5
      vertex -15.125 -8.51554 2.5
    endloop
  endfacet
  facet normal 0 1 0
    outer loop
      vertex -15.125 -8.51554 -0.5
      vertex -16.875 -8.51554 -0.5
      vertex -15.125 -8.51554 2.5
    endloop
  endfacet
  facet normal 0 1 0
    outer loop
      vertex -15.125 -8.51554 2.5
      vertex -16.875 -8.51554 -0.5
      vertex -16.875 -8.51554 2.5
    endloop
  endfacet
  facet normal 0.866025 -0.5 0
    outer loop
      vertex 14.25 -39 -0.5
      vertex 15.125 -37.4845 -0.5
      vertex 15.125 -37.4845 2.5
    endloop
  endfacet
  facet normal 0.866025 -0.5 0
    outer loop
      vertex 14.25 -39 2.5
      vertex 14.25 -39 -0.5
      vertex 15.125 -37.4845 2.5
    endloop
  endfacet
  facet normal 0.866025 0.5 0
    outer loop
      vertex 15.125 -40.5155 2.5
      vertex 15.125 -40.5155 -0.5
      vertex 14.25 -39 -0.5
    endloop
  endfacet
  facet normal 0.866025 0.5 0
    outer loop
      vertex 14.25 -39 2.5
      vertex 15.125 -40.5155 2.5
      vertex 14.25 -39 -0.5
    endloop
  endfacet
  facet normal 0 -1 0
    outer loop
      vertex 15.125 -37.4845 -0.5
      vertex 16.875 -37.4845 -0.5
      vertex 16.875 -37.4845 2.5
    endloop
  endfacet
  facet normal 0 -1 0
    outer loop
      vertex 15.125 -37.4845 2.5
      vertex 15.125 -37.4845 -0.5
      vertex 16.875 -37.4845 2.5
    endloop
  endfacet
  facet normal -0.866025 -0.5 0
    outer loop
      vertex 17.75 -39 -0.5
      vertex 17.75 -39 2.5
      vertex 16.875 -37.4845 -0.5
    endloop
  endfacet
  facet normal -0.866025 -0.5 0
    outer loop
      vertex 16.875 -37.4845 -0.5
      vertex 17.75 -39 2.5
      vertex 16.875 -37.4845 2.5
    endloop
  endfacet
  facet normal -0.866025 0.5 0
    outer loop
      vertex 17.75 -39 -0.5
      vertex 16.875 -40.5155 -0.5
      vertex 17.75 -39 2.5
    endloop
  endfacet
  facet normal -0.866025 0.5 0
    outer loop
      vertex 17.75 -39 2.5
      vertex 16.875 -40.5155 -0.5
      vertex 16.875 -40.5155 2.5
    endloop
  endfacet
  facet normal 0 1 0
    outer loop
      vertex 16.875 -40.5155 -0.5
      vertex 15.125 -40.5155 -0.5
      vertex 16.875 -40.5155 2.5
    endloop
  endfacet
  facet normal 0 1 0
    outer loop
      vertex 16.875 -40.5155 2.5
      vertex 15.125 -40.5155 -0.5
      vertex 15.125 -40.5155 2.5
    endloop
  endfacet
  facet normal 0.866025 -0.5 0
    outer loop
      vertex 14.25 -7 -0.5
      vertex 15.125 -5.48446 -0.5
      vertex 15.125 -5.48446 2.5
    endloop
  endfacet
  facet normal 0.866025 -0.5 0
    outer loop
      vertex 14.25 -7 2.5
      vertex 14.25 -7 -0.5
      vertex 15.125 -5.48446 2.5
    endloop
  endfacet
  facet normal 0.866025 0.5 0
    outer loop
      vertex 15.125 -8.51554 2.5
      vertex 15.125 -8.51554 -0.5
      vertex 14.25 -7 -0.5
    endloop
  endfacet
  facet normal 0.866025 0.5 0
    outer loop
      vertex 14.25 -7 2.5
      vertex 15.125 -8.51554 2.5
      vertex 14.25 -7 -0.5
    endloop
  endfacet
  facet normal 0 -1 0
    outer loop
      vertex 15.125 -5.48446 -0.5
      vertex 16.875 -5.48446 -0.5
      vertex 16.875 -5.48446 2.5
    endloop
  endfacet
  facet normal 0 -1 0
    outer loop
      vertex 15.125 -5.48446 2.5
      vertex 15.125 -5.48446 -0.5
      vertex 16.875 -5.48446 2.5
    endloop
  endfacet
  facet normal -0.866025 -0.5 0
    outer loop
      vertex 17.75 -7 -0.5
      vertex 17.75 -7 2.5
      vertex 16.875 -5.48446 -0.5
    endloop
  endfacet
  facet normal -0.866025 -0.5 0
    outer loop
      vertex 16.875 -5.48446 -0.5
      vertex 17.75 -7 2.5
      vertex 16.875 -5.48446 2.5
    endloop
  endfacet
  facet normal -0.866025 0.5 0
    outer loop
      vertex 17.75 -7 -0.5
      vertex 16.875 -8.51554 -0.5
      vertex 17.75 -7 2.5
    endloop
  endfacet
  facet normal -0.866025 0.5 0
    outer loop
      vertex 17.75 -7 2.5
      vertex 16.875 -8.51554 -0.5
      vertex 16.875 -8.51554 2.5
    endloop
  endfacet
  facet normal 0 1 0
    outer loop
      vertex 16.875 -8.51554 -0.5
      vertex 15.125 -8.51554 -0.5
      vertex 16.875 -8.51554 2.5
    endloop
  endfacet
  facet normal 0 1 0
    outer loop
      vertex 16.875 -8.51554 2.5
      vertex 15.125 -8.51554 -0.5
      vertex 15.125 -8.51554 2.5
    endloop
  endfacet
  facet normal -9.72842e-16 -0.707107 0.707107
    outer loop
      vertex -19.8019 6.10391 9.22523
      vertex -19.9897 -0.62132 2.5
      vertex -19.9879 -0.62132 2.5
    endloop
  endfacet
  facet normal -1.89289e-16 -0.707107 0.707107
    outer loop
      vertex -19.8019 6.10391 9.22523
      vertex -19.9879 -0.62132 2.5
      vertex -19.8932 -0.62132 2.5
    endloop
  endfacet
  facet normal -1.89289e-16 -0.707107 0.707107
    outer loop
      vertex -18.445 5.33876 8.46008
      vertex -19.8019 6.10391 9.22523
      vertex -19.8932 -0.62132 2.5
    endloop
  endfacet
  facet normal 0 -0.707107 0.707107
    outer loop
      vertex -15.5365 4.29455 7.41587
      vertex -19.8932 -0.62132 2.5
      vertex 19.8321 -0.62132 2.5
    endloop
  endfacet
  facet normal 0 -0.707107 0.707107
    outer loop
      vertex -14.5 5.3033 8.42462
      vertex 16.4635 4.29455 7.41587
      vertex 14.7865 4.67986 7.80118
    endloop
  endfacet
  facet normal 0 -0.707107 0.707107
    outer loop
      vertex 17.555 5.33876 8.46008
      vertex 17.5 5.3033 8.42462
      vertex 19.8321 -0.62132 2.5
    endloop
  endfacet
  facet normal 0 -0.707107 0.707107
    outer loop
      vertex 17.555 5.33876 8.46008
      vertex 17.4636 5.33876 8.46008
      vertex 17.5 5.3033 8.42462
    endloop
  endfacet
  facet normal 0 -0.707107 0.707107
    outer loop
      vertex -17.2135 4.67986 7.80118
      vertex -17.2135 5.33876 8.46008
      vertex -18.445 5.33876 8.46008
    endloop
  endfacet
  facet normal 0 -0.707107 0.707107
    outer loop
      vertex 14.7865 5.33876 8.46008
      vertex -14.5364 5.33876 8.46008
      vertex 14.7865 4.67986 7.80118
    endloop
  endfacet
  facet normal 0 -0.707107 0.707107
    outer loop
      vertex -14.5364 5.33876 8.46008
      vertex -14.5 5.3033 8.42462
      vertex 14.7865 4.67986 7.80118
    endloop
  endfacet
  facet normal 0 -0.707107 0.707107
    outer loop
      vertex -17.2135 4.67986 7.80118
      vertex -19.8932 -0.62132 2.5
      vertex -15.5365 4.29455 7.41587
    endloop
  endfacet
  facet normal 0 -0.707107 0.707107
    outer loop
      vertex -18.445 5.33876 8.46008
      vertex -19.8932 -0.62132 2.5
      vertex -17.2135 4.67986 7.80118
    endloop
  endfacet
  facet normal 0 -0.707107 0.707107
    outer loop
      vertex 17.5 5.3033 8.42462
      vertex 16.4635 4.29455 7.41587
      vertex 19.8321 -0.62132 2.5
    endloop
  endfacet
  facet normal 0 -0.707107 0.707107
    outer loop
      vertex -14.5 5.3033 8.42462
      vertex 19.8321 -0.62132 2.5
      vertex 16.4635 4.29455 7.41587
    endloop
  endfacet
  facet normal 0 -0.707107 0.707107
    outer loop
      vertex -14.5 5.3033 8.42462
      vertex -15.5365 4.29455 7.41587
      vertex 19.8321 -0.62132 2.5
    endloop
  endfacet
  facet normal 5.80215e-17 -0.707107 0.707107
    outer loop
      vertex 19.247 5.61184 8.73316
      vertex 17.555 5.33876 8.46008
      vertex 19.8321 -0.62132 2.5
    endloop
  endfacet
  facet normal 5.80215e-17 -0.707107 0.707107
    outer loop
      vertex 19.9504 -0.62132 2.5
      vertex 19.247 5.61184 8.73316
      vertex 19.8321 -0.62132 2.5
    endloop
  endfacet
  facet normal 4.61081e-16 -0.707107 0.707107
    outer loop
      vertex 20 6.71751 9.83883
      vertex 19.247 5.61184 8.73316
      vertex 19.9504 -0.62132 2.5
    endloop
  endfacet
  facet normal 4.61081e-16 -0.707107 0.707107
    outer loop
      vertex 20 -0.62132 2.5
      vertex 20 6.71751 9.83883
      vertex 19.9504 -0.62132 2.5
    endloop
  endfacet
  facet normal 0.900969 0.306802 0.306802
    outer loop
      vertex 19.247 9.94451 8.82319
      vertex 19.247 7.82319 10.9445
      vertex 20 6.71751 9.83883
    endloop
  endfacet
  facet normal 0.900969 0.306802 0.306802
    outer loop
      vertex 20 8.83883 7.71751
      vertex 19.247 9.94451 8.82319
      vertex 20 6.71751 9.83883
    endloop
  endfacet
  facet normal 4.61081e-16 0.707107 -0.707107
    outer loop
      vertex 20 1.06066 -0.0606602
      vertex 19.247 9.94451 8.82319
      vertex 20 8.83883 7.71751
    endloop
  endfacet
  facet normal 0 0.707107 -0.707107
    outer loop
      vertex -15.5365 8.43337 7.31205
      vertex -18.445 10.2176 9.09627
      vertex 20 1.06066 -0.0606602
    endloop
  endfacet
  facet normal 0 0.707107 -0.707107
    outer loop
      vertex 14.7865 8.04806 6.92674
      vertex -18.445 10.2176 9.09627
      vertex 17.555 10.2176 9.09627
    endloop
  endfacet
  facet normal 0 0.707107 -0.707107
    outer loop
      vertex -20 1.06066 -0.0606602
      vertex -18.445 10.2176 9.09627
      vertex -17.2135 8.04806 6.92674
    endloop
  endfacet
  facet normal 0 0.707107 -0.707107
    outer loop
      vertex -20 1.06066 -0.0606602
      vertex -17.2135 8.04806 6.92674
      vertex -17.2135 6.80118 5.67986
    endloop
  endfacet
  facet normal 0 0.707107 -0.707107
    outer loop
      vertex -20 1.06066 -0.0606602
      vertex -17.2135 6.80118 5.67986
      vertex -15.5365 6.41587 5.29455
    endloop
  endfacet
  facet normal 0 0.707107 -0.707107
    outer loop
      vertex -20 1.06066 -0.0606602
      vertex -15.5365 6.41587 5.29455
      vertex 20 1.06066 -0.0606602
    endloop
  endfacet
  facet normal 0 0.707107 -0.707107
    outer loop
      vertex -15.5365 8.43337 7.31205
      vertex 20 1.06066 -0.0606602
      vertex -14.5 7.42462 6.3033
    endloop
  endfacet
  facet normal 0 0.707107 -0.707107
    outer loop
      vertex -17.2135 8.04806 6.92674
      vertex -18.445 10.2176 9.09627
      vertex -15.5365 8.43337 7.31205
    endloop
  endfacet
  facet normal 0 0.707107 -0.707107
    outer loop
      vertex 16.4635 6.41587 5.29455
      vertex 20 1.06066 -0.0606602
      vertex 14.7865 6.80118 5.67986
    endloop
  endfacet
  facet normal 0 0.707107 -0.707107
    outer loop
      vertex 14.7865 6.80118 5.67986
      vertex -18.445 10.2176 9.09627
      vertex 14.7865 8.04806 6.92674
    endloop
  endfacet
  facet normal 0 0.707107 -0.707107
    outer loop
      vertex 16.4635 8.43337 7.31205
      vertex 14.7865 8.04806 6.92674
      vertex 17.555 10.2176 9.09627
    endloop
  endfacet
  facet normal 0 0.707107 -0.707107
    outer loop
      vertex 20 1.06066 -0.0606602
      vertex -18.445 10.2176 9.09627
      vertex 14.7865 6.80118 5.67986
    endloop
  endfacet
  facet normal 0 0.707107 -0.707107
    outer loop
      vertex 16.4635 8.43337 7.31205
      vertex 17.555 10.2176 9.09627
      vertex 17.5 7.42462 6.3033
    endloop
  endfacet
  facet normal 0 0.707107 -0.707107
    outer loop
      vertex 20 1.06066 -0.0606602
      vertex 16.4635 6.41587 5.29455
      vertex 17.5 7.42462 6.3033
    endloop
  endfacet
  facet normal 0 0.707107 -0.707107
    outer loop
      vertex 20 1.06066 -0.0606602
      vertex 17.5 7.42462 6.3033
      vertex 17.555 10.2176 9.09627
    endloop
  endfacet
  facet normal 0 0.707107 -0.707107
    outer loop
      vertex -14.5 7.42462 6.3033
      vertex 20 1.06066 -0.0606602
      vertex -15.5365 6.41587 5.29455
    endloop
  endfacet
  facet normal 4.49881e-17 0.707107 -0.707107
    outer loop
      vertex 20 1.06066 -0.0606602
      vertex 17.555 10.2176 9.09627
      vertex 19.247 9.94451 8.82319
    endloop
  endfacet
  facet normal -1.66341e-16 0.707107 -0.707107
    outer loop
      vertex -18.445 10.2176 9.09627
      vertex -20 1.06066 -0.0606602
      vertex -19.8019 9.45244 8.33112
    endloop
  endfacet
  facet normal 0 0.707107 0.707107
    outer loop
      vertex -18.445 8.09627 11.2176
      vertex 17.555 8.09627 11.2176
      vertex -18.445 10.2176 9.09627
    endloop
  endfacet
  facet normal 0 0.707107 0.707107
    outer loop
      vertex -18.445 10.2176 9.09627
      vertex 17.555 8.09627 11.2176
      vertex 17.555 10.2176 9.09627
    endloop
  endfacet
  facet normal 0.222521 0.689378 0.689378
    outer loop
      vertex 17.555 8.09627 11.2176
      vertex 19.247 7.82319 10.9445
      vertex 17.555 10.2176 9.09627
    endloop
  endfacet
  facet normal 0.222521 0.689378 0.689378
    outer loop
      vertex 17.555 10.2176 9.09627
      vertex 19.247 7.82319 10.9445
      vertex 19.247 9.94451 8.82319
    endloop
  endfacet
  facet normal -0.809017 -0.415627 -0.415627
    outer loop
      vertex 17.5 7.42462 6.3033
      vertex 17.5 5.3033 8.42462
      vertex 16.4635 8.43337 7.31205
    endloop
  endfacet
  facet normal -0.809017 -0.415627 -0.415627
    outer loop
      vertex 16.4635 8.43337 7.31205
      vertex 17.5 5.3033 8.42462
      vertex 17.4636 5.33876 8.46008
    endloop
  endfacet
  facet normal -0.809017 -0.415627 -0.415627
    outer loop
      vertex 16.4635 8.43337 7.31205
      vertex 17.4636 5.33876 8.46008
      vertex 16.4635 6.31205 9.43337
    endloop
  endfacet
  facet normal 0.309017 -0.672498 -0.672498
    outer loop
      vertex 14.7865 8.04806 6.92674
      vertex 16.4635 8.43337 7.31205
      vertex 16.4635 6.31205 9.43337
    endloop
  endfacet
  facet normal 0.309017 -0.672498 -0.672498
    outer loop
      vertex 14.7865 5.92674 9.04806
      vertex 14.7865 8.04806 6.92674
      vertex 16.4635 6.31205 9.43337
    endloop
  endfacet
  facet normal 1 0 0
    outer loop
      vertex 14.7865 4.67986 7.80118
      vertex 14.7865 6.80118 5.67986
      vertex 14.7865 8.04806 6.92674
    endloop
  endfacet
  facet normal 1 0 0
    outer loop
      vertex 14.7865 5.33876 8.46008
      vertex 14.7865 4.67986 7.80118
      vertex 14.7865 5.92674 9.04806
    endloop
  endfacet
  facet normal 1 0 0
    outer loop
      vertex 14.7865 5.92674 9.04806
      vertex 14.7865 4.67986 7.80118
      vertex 14.7865 8.04806 6.92674
    endloop
  endfacet
  facet normal -0.809017 -0.415627 -0.415627
    outer loop
      vertex -14.5 7.42462 6.3033
      vertex -14.5 5.3033 8.42462
      vertex -15.5365 8.43337 7.31205
    endloop
  endfacet
  facet normal -0.809017 -0.415627 -0.415627
    outer loop
      vertex -15.5365 8.43337 7.31205
      vertex -14.5 5.3033 8.42462
      vertex -14.5364 5.33876 8.46008
    endloop
  endfacet
  facet normal -0.809017 -0.415627 -0.415627
    outer loop
      vertex -15.5365 8.43337 7.31205
      vertex -14.5364 5.33876 8.46008
      vertex -15.5365 6.31205 9.43337
    endloop
  endfacet
  facet normal 0.309017 -0.672498 -0.672498
    outer loop
      vertex -17.2135 8.04806 6.92674
      vertex -15.5365 8.43337 7.31205
      vertex -15.5365 6.31205 9.43337
    endloop
  endfacet
  facet normal 0.309017 -0.672498 -0.672498
    outer loop
      vertex -17.2135 5.92674 9.04806
      vertex -17.2135 8.04806 6.92674
      vertex -15.5365 6.31205 9.43337
    endloop
  endfacet
  facet normal 1 0 0
    outer loop
      vertex -17.2135 4.67986 7.80118
      vertex -17.2135 6.80118 5.67986
      vertex -17.2135 8.04806 6.92674
    endloop
  endfacet
  facet normal 1 0 0
    outer loop
      vertex -17.2135 5.33876 8.46008
      vertex -17.2135 4.67986 7.80118
      vertex -17.2135 5.92674 9.04806
    endloop
  endfacet
  facet normal 1 0 0
    outer loop
      vertex -17.2135 5.92674 9.04806
      vertex -17.2135 4.67986 7.80118
      vertex -17.2135 8.04806 6.92674
    endloop
  endfacet
  facet normal 0.309017 0.672498 0.672498
    outer loop
      vertex -15.5365 6.41587 5.29455
      vertex -17.2135 6.80118 5.67986
      vertex -15.5365 4.29455 7.41587
    endloop
  endfacet
  facet normal 0.309017 0.672498 0.672498
    outer loop
      vertex -15.5365 4.29455 7.41587
      vertex -17.2135 6.80118 5.67986
      vertex -17.2135 4.67986 7.80118
    endloop
  endfacet
  facet normal -0.809017 0.415627 0.415627
    outer loop
      vertex -14.5 7.42462 6.3033
      vertex -15.5365 6.41587 5.29455
      vertex -14.5 5.3033 8.42462
    endloop
  endfacet
  facet normal -0.809017 0.415627 0.415627
    outer loop
      vertex -14.5 5.3033 8.42462
      vertex -15.5365 6.41587 5.29455
      vertex -15.5365 4.29455 7.41587
    endloop
  endfacet
  facet normal 0.309017 0.672498 0.672498
    outer loop
      vertex 16.4635 6.41587 5.29455
      vertex 14.7865 6.80118 5.67986
      vertex 16.4635 4.29455 7.41587
    endloop
  endfacet
  facet normal 0.309017 0.672498 0.672498
    outer loop
      vertex 16.4635 4.29455 7.41587
      vertex 14.7865 6.80118 5.67986
      vertex 14.7865 4.67986 7.80118
    endloop
  endfacet
  facet normal -0.809017 0.415627 0.415627
    outer loop
      vertex 17.5 7.42462 6.3033
      vertex 16.4635 6.41587 5.29455
      vertex 17.5 5.3033 8.42462
    endloop
  endfacet
  facet normal -0.809017 0.415627 0.415627
    outer loop
      vertex 17.5 5.3033 8.42462
      vertex 16.4635 6.41587 5.29455
      vertex 16.4635 4.29455 7.41587
    endloop
  endfacet
endsolid OpenSCAD_Model
