solid OpenSCAD_Model
  facet normal -1 -1.57009e-16 -1.57009e-16
    outer loop
      vertex -20 0.234651 3.48153
      vertex -20 1.48153 2.23465
      vertex -20 -0.902252 2.90225
    endloop
  endfacet
  facet normal -1 -1.57009e-16 -1.57009e-16
    outer loop
      vertex -20 -1.77636e-15 2
      vertex -20 1.48153 2.23465
      vertex -20 0.680986 0.66349
    endloop
  endfacet
  facet normal -1 -1.57009e-16 -1.57009e-16
    outer loop
      vertex -20 -0.902252 2.90225
      vertex -20 1.48153 2.23465
      vertex -20 -1.77636e-15 2
    endloop
  endfacet
  facet normal -1 -1.57009e-16 -1.57009e-16
    outer loop
      vertex -20 -1.77636e-15 2
      vertex -20 0.680986 0.66349
      vertex -20 -1.77636e-15 0.771348
    endloop
  endfacet
  facet normal -2.22045e-16 0.707107 0.707107
    outer loop
      vertex -20 0.234651 3.48153
      vertex -19.9899 0.234651 3.48153
      vertex -20 1.48153 2.23465
    endloop
  endfacet
  facet normal -2.22045e-16 0.707107 0.707107
    outer loop
      vertex -20 1.48153 2.23465
      vertex -19.9899 0.234651 3.48153
      vertex -19.9899 1.48153 2.23465
    endloop
  endfacet
  facet normal -6.86156e-17 -0.45399 0.891007
    outer loop
      vertex -20 -1.77636e-15 3.36197
      vertex -20 0.234651 3.48153
      vertex -20 -0.902252 2.90225
    endloop
  endfacet
  facet normal -6.86156e-17 -0.45399 0.891007
    outer loop
      vertex -19.9899 0.234651 3.48153
      vertex -20 0.234651 3.48153
      vertex -20 -1.77636e-15 3.36197
    endloop
  endfacet
  facet normal -6.86156e-17 -0.45399 0.891007
    outer loop
      vertex -19.9899 0.234651 3.48153
      vertex -20 -1.77636e-15 3.36197
      vertex -19.9921 -1.77636e-15 3.36197
    endloop
  endfacet
  facet normal -1 0 0
    outer loop
      vertex -20 -40 3.5
      vertex -20 -1.77636e-15 3.5
      vertex -20 -40 0.5
    endloop
  endfacet
  facet normal -1 0 0
    outer loop
      vertex -20 -40 0.5
      vertex -20 -1.77636e-15 3.5
      vertex -20 -1.77636e-15 3.36197
    endloop
  endfacet
  facet normal -1 0 0
    outer loop
      vertex -20 -40 0.5
      vertex -20 -1.77636e-15 3.36197
      vertex -20 -0.902252 2.90225
    endloop
  endfacet
  facet normal -1 0 0
    outer loop
      vertex -20 -40 0.5
      vertex -20 -0.902252 2.90225
      vertex -20 -1.77636e-15 2
    endloop
  endfacet
  facet normal -1 0 0
    outer loop
      vertex -20 -40 0.5
      vertex -20 -1.77636e-15 2
      vertex -20 -1.77636e-15 0.5
    endloop
  endfacet
  facet normal 0 1 0
    outer loop
      vertex -20 -1.77636e-15 2
      vertex -20 -1.77636e-15 0.771348
      vertex -20 -1.77636e-15 0.5
    endloop
  endfacet
  facet normal 0 1 0
    outer loop
      vertex -20 -1.77636e-15 0.5
      vertex -20 -1.77636e-15 0.771348
      vertex 20 -1.77636e-15 0.771348
    endloop
  endfacet
  facet normal 0 1 0
    outer loop
      vertex -20 -1.77636e-15 0.5
      vertex 20 -1.77636e-15 0.771348
      vertex 20 -1.77636e-15 0.5
    endloop
  endfacet
  facet normal 1.79638e-16 -0.156434 -0.987688
    outer loop
      vertex -20 0.680986 0.66349
      vertex 20 0.680986 0.66349
      vertex -20 -1.77636e-15 0.771348
    endloop
  endfacet
  facet normal 1.79638e-16 -0.156434 -0.987688
    outer loop
      vertex 20 -1.77636e-15 0.771348
      vertex 20 0.680986 0.66349
      vertex 20 -1.06066 0.93934
    endloop
  endfacet
  facet normal 1.79638e-16 -0.156434 -0.987688
    outer loop
      vertex -20 -1.77636e-15 0.771348
      vertex 20 0.680986 0.66349
      vertex 20 -1.77636e-15 0.771348
    endloop
  endfacet
  facet normal -6.86156e-17 0.891007 -0.45399
    outer loop
      vertex -20 1.48153 2.23465
      vertex -19.9899 1.48153 2.23465
      vertex -20 0.949987 1.19143
    endloop
  endfacet
  facet normal -6.86156e-17 0.891007 -0.45399
    outer loop
      vertex -20 1.48153 2.23465
      vertex -20 0.949987 1.19143
      vertex -20 0.902252 1.09775
    endloop
  endfacet
  facet normal -6.86156e-17 0.891007 -0.45399
    outer loop
      vertex -20 1.48153 2.23465
      vertex -20 0.902252 1.09775
      vertex -20 0.680986 0.66349
    endloop
  endfacet
  facet normal -6.86156e-17 0.891007 -0.45399
    outer loop
      vertex 20 0.902252 1.09775
      vertex 20 0.680986 0.66349
      vertex -20 0.680986 0.66349
    endloop
  endfacet
  facet normal -6.86156e-17 0.891007 -0.45399
    outer loop
      vertex 20 0.902252 1.09775
      vertex -20 0.680986 0.66349
      vertex -20 0.902252 1.09775
    endloop
  endfacet
  facet normal -0.999959 0.0064336 0.0064336
    outer loop
      vertex -20 0.949987 1.19143
      vertex -19.9899 1.48153 2.23465
      vertex -20 1.13137 1.01005
    endloop
  endfacet
  facet normal -0.999959 0.0064336 0.0064336
    outer loop
      vertex -20 1.13137 1.01005
      vertex -19.9899 1.48153 2.23465
      vertex -19.8019 14.4022 18.5235
    endloop
  endfacet
  facet normal -0.999959 0.0064336 0.0064336
    outer loop
      vertex -19.9913 -1.77636e-15 3.5
      vertex -19.9899 0.234651 3.48153
      vertex -19.9921 -1.77636e-15 3.36197
    endloop
  endfacet
  facet normal -0.999959 0.0064336 0.0064336
    outer loop
      vertex -19.8019 14.4022 18.5235
      vertex -19.9899 0.234651 3.48153
      vertex -19.9913 -1.77636e-15 3.5
    endloop
  endfacet
  facet normal -0.999959 0.0064336 0.0064336
    outer loop
      vertex -19.8019 14.4022 18.5235
      vertex -19.9913 -1.77636e-15 3.5
      vertex -19.9953 -0.62132 3.5
    endloop
  endfacet
  facet normal -0.999959 0.0064336 0.0064336
    outer loop
      vertex -19.9899 1.48153 2.23465
      vertex -19.9899 0.234651 3.48153
      vertex -19.8019 14.4022 18.5235
    endloop
  endfacet
  facet normal 0 1 0
    outer loop
      vertex -20 -1.77636e-15 3.5
      vertex -19.9913 -1.77636e-15 3.5
      vertex -20 -1.77636e-15 3.36197
    endloop
  endfacet
  facet normal 0 1 0
    outer loop
      vertex -20 -1.77636e-15 3.36197
      vertex -19.9913 -1.77636e-15 3.5
      vertex -19.9921 -1.77636e-15 3.36197
    endloop
  endfacet
  facet normal -0.994522 -0.104528 0
    outer loop
      vertex -20 -40 3.5
      vertex -20 -40 0.5
      vertex -19.9344 -40.6237 3.5
    endloop
  endfacet
  facet normal -0.994522 -0.104528 0
    outer loop
      vertex -19.9344 -40.6237 3.5
      vertex -20 -40 0.5
      vertex -19.9344 -40.6237 0.5
    endloop
  endfacet
  facet normal 0 0 -1
    outer loop
      vertex -20 -40 0.5
      vertex -20 -1.77636e-15 0.5
      vertex -19.9344 -40.6237 0.5
    endloop
  endfacet
  facet normal 0 0 -1
    outer loop
      vertex 5.56231 -5.88098 0.5
      vertex -20 -1.77636e-15 0.5
      vertex 20 -1.77636e-15 0.5
    endloop
  endfacet
  facet normal 0 0 -1
    outer loop
      vertex 18 -23 0.5
      vertex 20 -1.77636e-15 0.5
      vertex 20 -40 0.5
    endloop
  endfacet
  facet normal 0 0 -1
    outer loop
      vertex 16.875 -40.5155 0.5
      vertex 20 -40 0.5
      vertex 19.9344 -40.6237 0.5
    endloop
  endfacet
  facet normal 0 0 -1
    outer loop
      vertex 1.88151 -40.9014 0.5
      vertex 19.9344 -40.6237 0.5
      vertex 19.7406 -41.2202 0.5
    endloop
  endfacet
  facet normal 0 0 -1
    outer loop
      vertex -1.88151 -40.9014 0.5
      vertex 19.7406 -41.2202 0.5
      vertex 19.4271 -41.7634 0.5
    endloop
  endfacet
  facet normal 0 0 -1
    outer loop
      vertex -19.9344 -40.6237 0.5
      vertex 19.4271 -41.7634 0.5
      vertex 19.0074 -42.2294 0.5
    endloop
  endfacet
  facet normal 0 0 -1
    outer loop
      vertex -19.9344 -40.6237 0.5
      vertex 19.0074 -42.2294 0.5
      vertex 18.5 -42.5981 0.5
    endloop
  endfacet
  facet normal 0 0 -1
    outer loop
      vertex -19.9344 -40.6237 0.5
      vertex 18.5 -42.5981 0.5
      vertex 17.9271 -42.8532 0.5
    endloop
  endfacet
  facet normal 0 0 -1
    outer loop
      vertex -19.9344 -40.6237 0.5
      vertex 17.9271 -42.8532 0.5
      vertex 17.3136 -42.9836 0.5
    endloop
  endfacet
  facet normal 0 0 -1
    outer loop
      vertex -19.9344 -40.6237 0.5
      vertex 17.3136 -42.9836 0.5
      vertex 17 -42.9836 0.5
    endloop
  endfacet
  facet normal 0 0 -1
    outer loop
      vertex -19.9344 -40.6237 0.5
      vertex 17 -42.9836 0.5
      vertex 17 -43 0.5
    endloop
  endfacet
  facet normal 0 0 -1
    outer loop
      vertex -17 -42.9836 0.5
      vertex 17 -43 0.5
      vertex -17 -43 0.5
    endloop
  endfacet
  facet normal 0 0 -1
    outer loop
      vertex -19.9344 -40.6237 0.5
      vertex 17 -43 0.5
      vertex -17 -42.9836 0.5
    endloop
  endfacet
  facet normal 0 0 -1
    outer loop
      vertex -17.75 -39 0.5
      vertex -19.9344 -40.6237 0.5
      vertex -16.875 -37.4845 0.5
    endloop
  endfacet
  facet normal 0 0 -1
    outer loop
      vertex -19.9344 -40.6237 0.5
      vertex -17.3136 -42.9836 0.5
      vertex -17.9271 -42.8532 0.5
    endloop
  endfacet
  facet normal 0 0 -1
    outer loop
      vertex -19.9344 -40.6237 0.5
      vertex -17.9271 -42.8532 0.5
      vertex -18.5 -42.5981 0.5
    endloop
  endfacet
  facet normal 0 0 -1
    outer loop
      vertex -19.9344 -40.6237 0.5
      vertex -18.5 -42.5981 0.5
      vertex -19.0074 -42.2294 0.5
    endloop
  endfacet
  facet normal 0 0 -1
    outer loop
      vertex -19.9344 -40.6237 0.5
      vertex -19.0074 -42.2294 0.5
      vertex -19.4271 -41.7634 0.5
    endloop
  endfacet
  facet normal 0 0 -1
    outer loop
      vertex -19.9344 -40.6237 0.5
      vertex -19.4271 -41.7634 0.5
      vertex -19.7406 -41.2202 0.5
    endloop
  endfacet
  facet normal 0 0 -1
    outer loop
      vertex -19.9344 -40.6237 0.5
      vertex -20 -1.77636e-15 0.5
      vertex -18 -23 0.5
    endloop
  endfacet
  facet normal 0 0 -1
    outer loop
      vertex -19.9344 -40.6237 0.5
      vertex -18 -23 0.5
      vertex -17.6067 -26.7424 0.5
    endloop
  endfacet
  facet normal 0 0 -1
    outer loop
      vertex -19.9344 -40.6237 0.5
      vertex -17.6067 -26.7424 0.5
      vertex -16.4438 -30.3213 0.5
    endloop
  endfacet
  facet normal 0 0 -1
    outer loop
      vertex -15.125 -37.4845 0.5
      vertex -12.0444 -36.3766 0.5
      vertex -14.25 -39 0.5
    endloop
  endfacet
  facet normal 0 0 -1
    outer loop
      vertex -19.9344 -40.6237 0.5
      vertex -16.4438 -30.3213 0.5
      vertex -14.5623 -33.5801 0.5
    endloop
  endfacet
  facet normal 0 0 -1
    outer loop
      vertex -14.25 -39 0.5
      vertex -12.0444 -36.3766 0.5
      vertex -9 -38.5885 0.5
    endloop
  endfacet
  facet normal 0 0 -1
    outer loop
      vertex 15.125 -40.5155 0.5
      vertex 19.9344 -40.6237 0.5
      vertex 1.88151 -40.9014 0.5
    endloop
  endfacet
  facet normal 0 0 -1
    outer loop
      vertex -19.9344 -40.6237 0.5
      vertex -1.88151 -40.9014 0.5
      vertex 19.4271 -41.7634 0.5
    endloop
  endfacet
  facet normal 0 0 -1
    outer loop
      vertex 5.56231 -40.119 0.5
      vertex 15.125 -40.5155 0.5
      vertex 1.88151 -40.9014 0.5
    endloop
  endfacet
  facet normal 0 0 -1
    outer loop
      vertex 9 -7.41154 0.5
      vertex 15.125 -5.48446 0.5
      vertex 12.0444 -9.62339 0.5
    endloop
  endfacet
  facet normal 0 0 -1
    outer loop
      vertex 17.6067 -19.2576 0.5
      vertex 20 -1.77636e-15 0.5
      vertex 18 -23 0.5
    endloop
  endfacet
  facet normal 0 0 -1
    outer loop
      vertex 17.75 -7 0.5
      vertex 20 -1.77636e-15 0.5
      vertex 16.4438 -15.6787 0.5
    endloop
  endfacet
  facet normal 0 0 -1
    outer loop
      vertex 15.125 -40.5155 0.5
      vertex 9 -38.5885 0.5
      vertex 14.25 -39 0.5
    endloop
  endfacet
  facet normal 0 0 -1
    outer loop
      vertex 16.875 -8.51554 0.5
      vertex 17.75 -7 0.5
      vertex 16.4438 -15.6787 0.5
    endloop
  endfacet
  facet normal 0 0 -1
    outer loop
      vertex 16.875 -37.4845 0.5
      vertex 14.5623 -33.5801 0.5
      vertex 20 -40 0.5
    endloop
  endfacet
  facet normal 0 0 -1
    outer loop
      vertex 16.4438 -15.6787 0.5
      vertex 20 -1.77636e-15 0.5
      vertex 17.6067 -19.2576 0.5
    endloop
  endfacet
  facet normal 0 0 -1
    outer loop
      vertex 14.5623 -33.5801 0.5
      vertex 16.4438 -30.3213 0.5
      vertex 20 -40 0.5
    endloop
  endfacet
  facet normal 0 0 -1
    outer loop
      vertex 16.4438 -30.3213 0.5
      vertex 17.6067 -26.7424 0.5
      vertex 20 -40 0.5
    endloop
  endfacet
  facet normal 0 0 -1
    outer loop
      vertex 17.6067 -26.7424 0.5
      vertex 18 -23 0.5
      vertex 20 -40 0.5
    endloop
  endfacet
  facet normal 0 0 -1
    outer loop
      vertex 14.5623 -12.4199 0.5
      vertex 16.875 -8.51554 0.5
      vertex 16.4438 -15.6787 0.5
    endloop
  endfacet
  facet normal 0 0 -1
    outer loop
      vertex 5.56231 -5.88098 0.5
      vertex 20 -1.77636e-15 0.5
      vertex 9 -7.41154 0.5
    endloop
  endfacet
  facet normal 0 0 -1
    outer loop
      vertex 1.88151 -5.09861 0.5
      vertex -20 -1.77636e-15 0.5
      vertex 5.56231 -5.88098 0.5
    endloop
  endfacet
  facet normal 0 0 -1
    outer loop
      vertex -16.875 -40.5155 0.5
      vertex -19.9344 -40.6237 0.5
      vertex -17.75 -39 0.5
    endloop
  endfacet
  facet normal 0 0 -1
    outer loop
      vertex -1.88151 -5.09861 0.5
      vertex -20 -1.77636e-15 0.5
      vertex 1.88151 -5.09861 0.5
    endloop
  endfacet
  facet normal 0 0 -1
    outer loop
      vertex -5.56231 -5.88098 0.5
      vertex -20 -1.77636e-15 0.5
      vertex -1.88151 -5.09861 0.5
    endloop
  endfacet
  facet normal 0 0 -1
    outer loop
      vertex -9 -7.41154 0.5
      vertex -20 -1.77636e-15 0.5
      vertex -5.56231 -5.88098 0.5
    endloop
  endfacet
  facet normal 0 0 -1
    outer loop
      vertex -15.125 -5.48446 0.5
      vertex -20 -1.77636e-15 0.5
      vertex -9 -7.41154 0.5
    endloop
  endfacet
  facet normal 0 0 -1
    outer loop
      vertex -15.125 -8.51554 0.5
      vertex -14.5623 -12.4199 0.5
      vertex -16.875 -8.51554 0.5
    endloop
  endfacet
  facet normal 0 0 -1
    outer loop
      vertex -17.6067 -19.2576 0.5
      vertex -20 -1.77636e-15 0.5
      vertex -16.4438 -15.6787 0.5
    endloop
  endfacet
  facet normal 0 0 -1
    outer loop
      vertex -18 -23 0.5
      vertex -20 -1.77636e-15 0.5
      vertex -17.6067 -19.2576 0.5
    endloop
  endfacet
  facet normal 0 0 -1
    outer loop
      vertex -15.125 -40.5155 0.5
      vertex -19.9344 -40.6237 0.5
      vertex -16.875 -40.5155 0.5
    endloop
  endfacet
  facet normal 0 0 -1
    outer loop
      vertex -14.25 -39 0.5
      vertex -5.56231 -40.119 0.5
      vertex -15.125 -40.5155 0.5
    endloop
  endfacet
  facet normal 0 0 -1
    outer loop
      vertex -14.25 -39 0.5
      vertex -9 -38.5885 0.5
      vertex -5.56231 -40.119 0.5
    endloop
  endfacet
  facet normal 0 0 -1
    outer loop
      vertex 17.75 -39 0.5
      vertex 20 -40 0.5
      vertex 16.875 -40.5155 0.5
    endloop
  endfacet
  facet normal 0 0 -1
    outer loop
      vertex -17.75 -7 0.5
      vertex -20 -1.77636e-15 0.5
      vertex -16.875 -5.48446 0.5
    endloop
  endfacet
  facet normal 0 0 -1
    outer loop
      vertex -19.9344 -40.6237 0.5
      vertex -14.5623 -33.5801 0.5
      vertex -16.875 -37.4845 0.5
    endloop
  endfacet
  facet normal 0 0 -1
    outer loop
      vertex -16.4438 -15.6787 0.5
      vertex -20 -1.77636e-15 0.5
      vertex -17.75 -7 0.5
    endloop
  endfacet
  facet normal 0 0 -1
    outer loop
      vertex -16.4438 -15.6787 0.5
      vertex -17.75 -7 0.5
      vertex -16.875 -8.51554 0.5
    endloop
  endfacet
  facet normal 0 0 -1
    outer loop
      vertex -16.4438 -15.6787 0.5
      vertex -16.875 -8.51554 0.5
      vertex -14.5623 -12.4199 0.5
    endloop
  endfacet
  facet normal 0 0 -1
    outer loop
      vertex 14.25 -39 0.5
      vertex 12.0444 -36.3766 0.5
      vertex 15.125 -37.4845 0.5
    endloop
  endfacet
  facet normal 0 0 -1
    outer loop
      vertex -14.5623 -12.4199 0.5
      vertex -15.125 -8.51554 0.5
      vertex -12.0444 -9.62339 0.5
    endloop
  endfacet
  facet normal 0 0 -1
    outer loop
      vertex -15.125 -8.51554 0.5
      vertex -14.25 -7 0.5
      vertex -12.0444 -9.62339 0.5
    endloop
  endfacet
  facet normal 0 0 -1
    outer loop
      vertex -16.875 -5.48446 0.5
      vertex -20 -1.77636e-15 0.5
      vertex -15.125 -5.48446 0.5
    endloop
  endfacet
  facet normal 0 0 -1
    outer loop
      vertex -12.0444 -9.62339 0.5
      vertex -15.125 -5.48446 0.5
      vertex -9 -7.41154 0.5
    endloop
  endfacet
  facet normal 0 0 -1
    outer loop
      vertex -15.125 -5.48446 0.5
      vertex -12.0444 -9.62339 0.5
      vertex -14.25 -7 0.5
    endloop
  endfacet
  facet normal 0 0 -1
    outer loop
      vertex 9 -38.5885 0.5
      vertex 12.0444 -36.3766 0.5
      vertex 14.25 -39 0.5
    endloop
  endfacet
  facet normal 0 0 -1
    outer loop
      vertex 15.125 -40.5155 0.5
      vertex 16.875 -40.5155 0.5
      vertex 19.9344 -40.6237 0.5
    endloop
  endfacet
  facet normal 0 0 -1
    outer loop
      vertex 15.125 -40.5155 0.5
      vertex 5.56231 -40.119 0.5
      vertex 9 -38.5885 0.5
    endloop
  endfacet
  facet normal 0 0 -1
    outer loop
      vertex 16.875 -37.4845 0.5
      vertex 20 -40 0.5
      vertex 17.75 -39 0.5
    endloop
  endfacet
  facet normal 0 0 -1
    outer loop
      vertex 12.0444 -36.3766 0.5
      vertex 14.5623 -33.5801 0.5
      vertex 16.875 -37.4845 0.5
    endloop
  endfacet
  facet normal 0 0 -1
    outer loop
      vertex 14.25 -7 0.5
      vertex 12.0444 -9.62339 0.5
      vertex 15.125 -5.48446 0.5
    endloop
  endfacet
  facet normal 0 0 -1
    outer loop
      vertex 12.0444 -36.3766 0.5
      vertex 16.875 -37.4845 0.5
      vertex 15.125 -37.4845 0.5
    endloop
  endfacet
  facet normal 0 0 -1
    outer loop
      vertex 16.875 -8.51554 0.5
      vertex 14.5623 -12.4199 0.5
      vertex 15.125 -8.51554 0.5
    endloop
  endfacet
  facet normal 0 0 -1
    outer loop
      vertex 12.0444 -9.62339 0.5
      vertex 14.25 -7 0.5
      vertex 14.5623 -12.4199 0.5
    endloop
  endfacet
  facet normal 0 0 -1
    outer loop
      vertex 14.25 -7 0.5
      vertex 15.125 -8.51554 0.5
      vertex 14.5623 -12.4199 0.5
    endloop
  endfacet
  facet normal 0 0 -1
    outer loop
      vertex 16.875 -5.48446 0.5
      vertex 20 -1.77636e-15 0.5
      vertex 17.75 -7 0.5
    endloop
  endfacet
  facet normal 0 0 -1
    outer loop
      vertex 9 -7.41154 0.5
      vertex 20 -1.77636e-15 0.5
      vertex 15.125 -5.48446 0.5
    endloop
  endfacet
  facet normal 0 0 -1
    outer loop
      vertex 15.125 -5.48446 0.5
      vertex 20 -1.77636e-15 0.5
      vertex 16.875 -5.48446 0.5
    endloop
  endfacet
  facet normal 0 0 -1
    outer loop
      vertex -1.88151 -40.9014 0.5
      vertex -15.125 -40.5155 0.5
      vertex -5.56231 -40.119 0.5
    endloop
  endfacet
  facet normal 0 0 -1
    outer loop
      vertex -1.88151 -40.9014 0.5
      vertex -19.9344 -40.6237 0.5
      vertex -15.125 -40.5155 0.5
    endloop
  endfacet
  facet normal 0 0 -1
    outer loop
      vertex -17.3136 -42.9836 0.5
      vertex -19.9344 -40.6237 0.5
      vertex -17 -42.9836 0.5
    endloop
  endfacet
  facet normal 0 0 -1
    outer loop
      vertex -12.0444 -36.3766 0.5
      vertex -15.125 -37.4845 0.5
      vertex -16.875 -37.4845 0.5
    endloop
  endfacet
  facet normal 0 0 -1
    outer loop
      vertex -12.0444 -36.3766 0.5
      vertex -16.875 -37.4845 0.5
      vertex -14.5623 -33.5801 0.5
    endloop
  endfacet
  facet normal 0 0 -1
    outer loop
      vertex 1.88151 -40.9014 0.5
      vertex 19.7406 -41.2202 0.5
      vertex -1.88151 -40.9014 0.5
    endloop
  endfacet
  facet normal 0 0 1
    outer loop
      vertex -20 -1.77636e-15 3.5
      vertex -20 -40 3.5
      vertex -19.9344 -40.6237 3.5
    endloop
  endfacet
  facet normal 0 0 1
    outer loop
      vertex -19.9953 -0.62132 3.5
      vertex -20 -1.77636e-15 3.5
      vertex -19.7406 -41.2202 3.5
    endloop
  endfacet
  facet normal 0 0 1
    outer loop
      vertex -19.7406 -41.2202 3.5
      vertex -20 -1.77636e-15 3.5
      vertex -19.9344 -40.6237 3.5
    endloop
  endfacet
  facet normal 0 0 1
    outer loop
      vertex -19.9953 -0.62132 3.5
      vertex -19.9913 -1.77636e-15 3.5
      vertex -20 -1.77636e-15 3.5
    endloop
  endfacet
  facet normal 0 0 1
    outer loop
      vertex -12.0444 -9.62339 3.5
      vertex -9 -7.41154 3.5
      vertex -15.125 -5.48446 3.5
    endloop
  endfacet
  facet normal 0 0 1
    outer loop
      vertex 17 -43 3.5
      vertex -17 -42.9836 3.5
      vertex -17 -43 3.5
    endloop
  endfacet
  facet normal 0 0 1
    outer loop
      vertex -19.9493 -0.62132 3.5
      vertex -17.9271 -42.8532 3.5
      vertex -17.75 -39 3.5
    endloop
  endfacet
  facet normal 0 0 1
    outer loop
      vertex -19.9493 -0.62132 3.5
      vertex -18.5 -42.5981 3.5
      vertex -17.9271 -42.8532 3.5
    endloop
  endfacet
  facet normal 0 0 1
    outer loop
      vertex -19.9493 -0.62132 3.5
      vertex -19.4271 -41.7634 3.5
      vertex -19.0074 -42.2294 3.5
    endloop
  endfacet
  facet normal 0 0 1
    outer loop
      vertex 14.5623 -33.5801 3.5
      vertex 12.0444 -36.3766 3.5
      vertex 15.125 -37.4845 3.5
    endloop
  endfacet
  facet normal 0 0 1
    outer loop
      vertex 20 -0.62132 3.5
      vertex 19.9759 -0.62132 3.5
      vertex 20 -40 3.5
    endloop
  endfacet
  facet normal 0 0 1
    outer loop
      vertex -18 -23 3.5
      vertex -17.6067 -19.2576 3.5
      vertex -19.9493 -0.62132 3.5
    endloop
  endfacet
  facet normal 0 0 1
    outer loop
      vertex 19.9759 -0.62132 3.5
      vertex 19.9203 -0.62132 3.5
      vertex 20 -40 3.5
    endloop
  endfacet
  facet normal 0 0 1
    outer loop
      vertex 15.125 -40.5155 3.5
      vertex 14.25 -39 3.5
      vertex 12.0444 -36.3766 3.5
    endloop
  endfacet
  facet normal 0 0 1
    outer loop
      vertex -16.875 -37.4845 3.5
      vertex -15.125 -37.4845 3.5
      vertex -14.5623 -33.5801 3.5
    endloop
  endfacet
  facet normal 0 0 1
    outer loop
      vertex -15.125 -40.5155 3.5
      vertex -16.875 -40.5155 3.5
      vertex -17 -42.9836 3.5
    endloop
  endfacet
  facet normal 0 0 1
    outer loop
      vertex -19.4271 -41.7634 3.5
      vertex -19.9939 -0.62132 3.5
      vertex -19.7406 -41.2202 3.5
    endloop
  endfacet
  facet normal 0 0 1
    outer loop
      vertex -19.9939 -0.62132 3.5
      vertex -19.9948 -0.62132 3.5
      vertex -19.7406 -41.2202 3.5
    endloop
  endfacet
  facet normal 0 0 1
    outer loop
      vertex -16.875 -40.5155 3.5
      vertex -17.3136 -42.9836 3.5
      vertex -17 -42.9836 3.5
    endloop
  endfacet
  facet normal 0 0 1
    outer loop
      vertex -19.9948 -0.62132 3.5
      vertex -19.9953 -0.62132 3.5
      vertex -19.7406 -41.2202 3.5
    endloop
  endfacet
  facet normal 0 0 1
    outer loop
      vertex 16.875 -40.5155 3.5
      vertex 17.3136 -42.9836 3.5
      vertex 17.9271 -42.8532 3.5
    endloop
  endfacet
  facet normal 0 0 1
    outer loop
      vertex -16.4438 -15.6787 3.5
      vertex -19.9493 -0.62132 3.5
      vertex -17.6067 -19.2576 3.5
    endloop
  endfacet
  facet normal 0 0 1
    outer loop
      vertex 9 -38.5885 3.5
      vertex 5.56231 -40.119 3.5
      vertex 17 -43 3.5
    endloop
  endfacet
  facet normal 0 0 1
    outer loop
      vertex -17.75 -7 3.5
      vertex -19.9493 -0.62132 3.5
      vertex -16.4438 -15.6787 3.5
    endloop
  endfacet
  facet normal 0 0 1
    outer loop
      vertex -14.25 -39 3.5
      vertex -15.125 -40.5155 3.5
      vertex -12.0444 -36.3766 3.5
    endloop
  endfacet
  facet normal 0 0 1
    outer loop
      vertex -17.75 -7 3.5
      vertex -16.875 -5.48446 3.5
      vertex -19.9493 -0.62132 3.5
    endloop
  endfacet
  facet normal 0 0 1
    outer loop
      vertex 18 -23 3.5
      vertex 17.6067 -26.7424 3.5
      vertex 20 -40 3.5
    endloop
  endfacet
  facet normal 0 0 1
    outer loop
      vertex 14.5623 -33.5801 3.5
      vertex 16.875 -37.4845 3.5
      vertex 20 -40 3.5
    endloop
  endfacet
  facet normal 0 0 1
    outer loop
      vertex 19.9203 -0.62132 3.5
      vertex 1.88151 -5.09861 3.5
      vertex 5.56231 -5.88098 3.5
    endloop
  endfacet
  facet normal 0 0 1
    outer loop
      vertex 19.9203 -0.62132 3.5
      vertex 5.56231 -5.88098 3.5
      vertex 9 -7.41154 3.5
    endloop
  endfacet
  facet normal 0 0 1
    outer loop
      vertex 16.4438 -30.3213 3.5
      vertex 14.5623 -33.5801 3.5
      vertex 20 -40 3.5
    endloop
  endfacet
  facet normal 0 0 1
    outer loop
      vertex 14.25 -7 3.5
      vertex 9 -7.41154 3.5
      vertex 12.0444 -9.62339 3.5
    endloop
  endfacet
  facet normal 0 0 1
    outer loop
      vertex 16.875 -8.51554 3.5
      vertex 15.125 -8.51554 3.5
      vertex 14.5623 -12.4199 3.5
    endloop
  endfacet
  facet normal 0 0 1
    outer loop
      vertex 15.125 -8.51554 3.5
      vertex 12.0444 -9.62339 3.5
      vertex 14.5623 -12.4199 3.5
    endloop
  endfacet
  facet normal 0 0 1
    outer loop
      vertex 16.875 -8.51554 3.5
      vertex 14.5623 -12.4199 3.5
      vertex 16.4438 -15.6787 3.5
    endloop
  endfacet
  facet normal 0 0 1
    outer loop
      vertex 19.9203 -0.62132 3.5
      vertex 17.6067 -19.2576 3.5
      vertex 20 -40 3.5
    endloop
  endfacet
  facet normal 0 0 1
    outer loop
      vertex 19.9203 -0.62132 3.5
      vertex 16.4438 -15.6787 3.5
      vertex 17.6067 -19.2576 3.5
    endloop
  endfacet
  facet normal 0 0 1
    outer loop
      vertex 17.6067 -19.2576 3.5
      vertex 18 -23 3.5
      vertex 20 -40 3.5
    endloop
  endfacet
  facet normal 0 0 1
    outer loop
      vertex 15.125 -37.4845 3.5
      vertex 16.875 -37.4845 3.5
      vertex 14.5623 -33.5801 3.5
    endloop
  endfacet
  facet normal 0 0 1
    outer loop
      vertex -19.9493 -0.62132 3.5
      vertex -19.9939 -0.62132 3.5
      vertex -19.4271 -41.7634 3.5
    endloop
  endfacet
  facet normal 0 0 1
    outer loop
      vertex 1.88151 -40.9014 3.5
      vertex -1.88151 -40.9014 3.5
      vertex -17 -42.9836 3.5
    endloop
  endfacet
  facet normal 0 0 1
    outer loop
      vertex 17 -43 3.5
      vertex 1.88151 -40.9014 3.5
      vertex -17 -42.9836 3.5
    endloop
  endfacet
  facet normal 0 0 1
    outer loop
      vertex 17 -43 3.5
      vertex 5.56231 -40.119 3.5
      vertex 1.88151 -40.9014 3.5
    endloop
  endfacet
  facet normal 0 0 1
    outer loop
      vertex 14.25 -39 3.5
      vertex 15.125 -37.4845 3.5
      vertex 12.0444 -36.3766 3.5
    endloop
  endfacet
  facet normal 0 0 1
    outer loop
      vertex -1.88151 -40.9014 3.5
      vertex -5.56231 -40.119 3.5
      vertex -17 -42.9836 3.5
    endloop
  endfacet
  facet normal 0 0 1
    outer loop
      vertex -5.56231 -40.119 3.5
      vertex -9 -38.5885 3.5
      vertex -17 -42.9836 3.5
    endloop
  endfacet
  facet normal 0 0 1
    outer loop
      vertex -17.75 -39 3.5
      vertex -17.6067 -26.7424 3.5
      vertex -18 -23 3.5
    endloop
  endfacet
  facet normal 0 0 1
    outer loop
      vertex -17.75 -39 3.5
      vertex -18 -23 3.5
      vertex -19.9493 -0.62132 3.5
    endloop
  endfacet
  facet normal 0 0 1
    outer loop
      vertex -17.3136 -42.9836 3.5
      vertex -17.75 -39 3.5
      vertex -17.9271 -42.8532 3.5
    endloop
  endfacet
  facet normal 0 0 1
    outer loop
      vertex 16.875 -40.5155 3.5
      vertex 15.125 -40.5155 3.5
      vertex 17.3136 -42.9836 3.5
    endloop
  endfacet
  facet normal 0 0 1
    outer loop
      vertex -16.4438 -30.3213 3.5
      vertex -17.6067 -26.7424 3.5
      vertex -16.875 -37.4845 3.5
    endloop
  endfacet
  facet normal 0 0 1
    outer loop
      vertex -17.75 -39 3.5
      vertex -16.875 -37.4845 3.5
      vertex -17.6067 -26.7424 3.5
    endloop
  endfacet
  facet normal 0 0 1
    outer loop
      vertex -12.0444 -36.3766 3.5
      vertex -14.5623 -33.5801 3.5
      vertex -15.125 -37.4845 3.5
    endloop
  endfacet
  facet normal 0 0 1
    outer loop
      vertex -15.125 -8.51554 3.5
      vertex -16.875 -8.51554 3.5
      vertex -14.5623 -12.4199 3.5
    endloop
  endfacet
  facet normal 0 0 1
    outer loop
      vertex -12.0444 -36.3766 3.5
      vertex -15.125 -37.4845 3.5
      vertex -14.25 -39 3.5
    endloop
  endfacet
  facet normal 0 0 1
    outer loop
      vertex -9 -38.5885 3.5
      vertex -15.125 -40.5155 3.5
      vertex -17 -42.9836 3.5
    endloop
  endfacet
  facet normal 0 0 1
    outer loop
      vertex -9 -38.5885 3.5
      vertex -12.0444 -36.3766 3.5
      vertex -15.125 -40.5155 3.5
    endloop
  endfacet
  facet normal 0 0 1
    outer loop
      vertex -14.5623 -12.4199 3.5
      vertex -16.875 -8.51554 3.5
      vertex -16.4438 -15.6787 3.5
    endloop
  endfacet
  facet normal 0 0 1
    outer loop
      vertex -16.875 -8.51554 3.5
      vertex -17.75 -7 3.5
      vertex -16.4438 -15.6787 3.5
    endloop
  endfacet
  facet normal 0 0 1
    outer loop
      vertex -16.875 -5.48446 3.5
      vertex -15.125 -5.48446 3.5
      vertex -19.9493 -0.62132 3.5
    endloop
  endfacet
  facet normal 0 0 1
    outer loop
      vertex -14.25 -7 3.5
      vertex -15.125 -8.51554 3.5
      vertex -12.0444 -9.62339 3.5
    endloop
  endfacet
  facet normal 0 0 1
    outer loop
      vertex -16.875 -37.4845 3.5
      vertex -14.5623 -33.5801 3.5
      vertex -16.4438 -30.3213 3.5
    endloop
  endfacet
  facet normal 0 0 1
    outer loop
      vertex 15.125 -40.5155 3.5
      vertex 17 -43 3.5
      vertex 17 -42.9836 3.5
    endloop
  endfacet
  facet normal 0 0 1
    outer loop
      vertex 17.3136 -42.9836 3.5
      vertex 15.125 -40.5155 3.5
      vertex 17 -42.9836 3.5
    endloop
  endfacet
  facet normal 0 0 1
    outer loop
      vertex -19.9493 -0.62132 3.5
      vertex -19.0074 -42.2294 3.5
      vertex -18.5 -42.5981 3.5
    endloop
  endfacet
  facet normal 0 0 1
    outer loop
      vertex 17.75 -39 3.5
      vertex 16.875 -40.5155 3.5
      vertex 19.0074 -42.2294 3.5
    endloop
  endfacet
  facet normal 0 0 1
    outer loop
      vertex 20 -40 3.5
      vertex 16.875 -37.4845 3.5
      vertex 19.9344 -40.6237 3.5
    endloop
  endfacet
  facet normal 0 0 1
    outer loop
      vertex 19.9344 -40.6237 3.5
      vertex 17.75 -39 3.5
      vertex 19.7406 -41.2202 3.5
    endloop
  endfacet
  facet normal 0 0 1
    outer loop
      vertex 19.0074 -42.2294 3.5
      vertex 16.875 -40.5155 3.5
      vertex 18.5 -42.5981 3.5
    endloop
  endfacet
  facet normal 0 0 1
    outer loop
      vertex 15.125 -5.48446 3.5
      vertex 9 -7.41154 3.5
      vertex 14.25 -7 3.5
    endloop
  endfacet
  facet normal 0 0 1
    outer loop
      vertex 16.875 -5.48446 3.5
      vertex 17.75 -7 3.5
      vertex 19.9203 -0.62132 3.5
    endloop
  endfacet
  facet normal 0 0 1
    outer loop
      vertex 19.9203 -0.62132 3.5
      vertex 9 -7.41154 3.5
      vertex 15.125 -5.48446 3.5
    endloop
  endfacet
  facet normal 0 0 1
    outer loop
      vertex 15.125 -5.48446 3.5
      vertex 16.875 -5.48446 3.5
      vertex 19.9203 -0.62132 3.5
    endloop
  endfacet
  facet normal 0 0 1
    outer loop
      vertex 19.9203 -0.62132 3.5
      vertex 17.75 -7 3.5
      vertex 16.4438 -15.6787 3.5
    endloop
  endfacet
  facet normal 0 0 1
    outer loop
      vertex 17.75 -7 3.5
      vertex 16.875 -8.51554 3.5
      vertex 16.4438 -15.6787 3.5
    endloop
  endfacet
  facet normal 0 0 1
    outer loop
      vertex 15.125 -8.51554 3.5
      vertex 14.25 -7 3.5
      vertex 12.0444 -9.62339 3.5
    endloop
  endfacet
  facet normal 0 0 1
    outer loop
      vertex -14.5623 -12.4199 3.5
      vertex -12.0444 -9.62339 3.5
      vertex -15.125 -8.51554 3.5
    endloop
  endfacet
  facet normal 0 0 1
    outer loop
      vertex 16.875 -37.4845 3.5
      vertex 17.75 -39 3.5
      vertex 19.9344 -40.6237 3.5
    endloop
  endfacet
  facet normal 0 0 1
    outer loop
      vertex -16.875 -40.5155 3.5
      vertex -17.75 -39 3.5
      vertex -17.3136 -42.9836 3.5
    endloop
  endfacet
  facet normal 0 0 1
    outer loop
      vertex 17.75 -39 3.5
      vertex 19.4271 -41.7634 3.5
      vertex 19.7406 -41.2202 3.5
    endloop
  endfacet
  facet normal 0 0 1
    outer loop
      vertex 12.0444 -36.3766 3.5
      vertex 9 -38.5885 3.5
      vertex 15.125 -40.5155 3.5
    endloop
  endfacet
  facet normal 0 0 1
    outer loop
      vertex 15.125 -40.5155 3.5
      vertex 9 -38.5885 3.5
      vertex 17 -43 3.5
    endloop
  endfacet
  facet normal 0 0 1
    outer loop
      vertex -5.56231 -5.88098 3.5
      vertex -15.125 -5.48446 3.5
      vertex -9 -7.41154 3.5
    endloop
  endfacet
  facet normal 0 0 1
    outer loop
      vertex -1.88151 -5.09861 3.5
      vertex -15.125 -5.48446 3.5
      vertex -5.56231 -5.88098 3.5
    endloop
  endfacet
  facet normal 0 0 1
    outer loop
      vertex 19.9203 -0.62132 3.5
      vertex -15.125 -5.48446 3.5
      vertex -1.88151 -5.09861 3.5
    endloop
  endfacet
  facet normal 0 0 1
    outer loop
      vertex -1.88151 -5.09861 3.5
      vertex 1.88151 -5.09861 3.5
      vertex 19.9203 -0.62132 3.5
    endloop
  endfacet
  facet normal 0 0 1
    outer loop
      vertex 17.6067 -26.7424 3.5
      vertex 16.4438 -30.3213 3.5
      vertex 20 -40 3.5
    endloop
  endfacet
  facet normal 0 0 1
    outer loop
      vertex 17.75 -39 3.5
      vertex 19.0074 -42.2294 3.5
      vertex 19.4271 -41.7634 3.5
    endloop
  endfacet
  facet normal 0 0 1
    outer loop
      vertex 16.875 -40.5155 3.5
      vertex 17.9271 -42.8532 3.5
      vertex 18.5 -42.5981 3.5
    endloop
  endfacet
  facet normal 0 0 1
    outer loop
      vertex -15.125 -5.48446 3.5
      vertex -14.25 -7 3.5
      vertex -12.0444 -9.62339 3.5
    endloop
  endfacet
  facet normal 0 0 1
    outer loop
      vertex 19.9203 -0.62132 3.5
      vertex -19.9493 -0.62132 3.5
      vertex -15.125 -5.48446 3.5
    endloop
  endfacet
  facet normal 1 0 0
    outer loop
      vertex 20 -0.62132 3.5
      vertex 20 -40 3.5
      vertex 20 -40 0.5
    endloop
  endfacet
  facet normal 1 0 0
    outer loop
      vertex 20 -1.33651 2.68099
      vertex 20 -0.62132 3.5
      vertex 20 -40 0.5
    endloop
  endfacet
  facet normal 1 0 0
    outer loop
      vertex 20 -1.77636e-15 0.5
      vertex 20 -1.06066 0.93934
      vertex 20 -40 0.5
    endloop
  endfacet
  facet normal 1 0 0
    outer loop
      vertex 20 -1.06066 0.93934
      vertex 20 -1.33651 2.68099
      vertex 20 -40 0.5
    endloop
  endfacet
  facet normal 1 0 0
    outer loop
      vertex 20 -0.902252 2.90225
      vertex 20 -0.62132 3.5
      vertex 20 -1.33651 2.68099
    endloop
  endfacet
  facet normal 1 0 0
    outer loop
      vertex 20 1.06066 0.93934
      vertex 20 -0.62132 3.5
      vertex 20 0.902252 1.09775
    endloop
  endfacet
  facet normal 1 0 0
    outer loop
      vertex 20 15.9099 15.7886
      vertex 20 -0.62132 3.5
      vertex 20 1.06066 0.93934
    endloop
  endfacet
  facet normal 1 0 0
    outer loop
      vertex 20 -1.77636e-15 0.771348
      vertex 20 -1.06066 0.93934
      vertex 20 -1.77636e-15 0.5
    endloop
  endfacet
  facet normal 1 0 0
    outer loop
      vertex 20 13.7886 17.9099
      vertex 20 -0.62132 3.5
      vertex 20 15.9099 15.7886
    endloop
  endfacet
  facet normal 1 0 0
    outer loop
      vertex 20 -0.902252 2.90225
      vertex 20 0.902252 1.09775
      vertex 20 -0.62132 3.5
    endloop
  endfacet
  facet normal 1 1.57009e-16 1.57009e-16
    outer loop
      vertex 20 0.902252 1.09775
      vertex 20 -0.902252 2.90225
      vertex 20 -1.33651 2.68099
    endloop
  endfacet
  facet normal 1 1.57009e-16 1.57009e-16
    outer loop
      vertex 20 0.680986 0.66349
      vertex 20 0.902252 1.09775
      vertex 20 -1.06066 0.93934
    endloop
  endfacet
  facet normal 1 1.57009e-16 1.57009e-16
    outer loop
      vertex 20 -1.06066 0.93934
      vertex 20 0.902252 1.09775
      vertex 20 -1.33651 2.68099
    endloop
  endfacet
  facet normal 0 -0.707107 -0.707107
    outer loop
      vertex 20 0.902252 1.09775
      vertex -20 0.902252 1.09775
      vertex -20 1.06066 0.93934
    endloop
  endfacet
  facet normal 0 -0.707107 -0.707107
    outer loop
      vertex 20 1.06066 0.93934
      vertex 20 0.902252 1.09775
      vertex -20 1.06066 0.93934
    endloop
  endfacet
  facet normal -1 0 0
    outer loop
      vertex -20 0.949987 1.19143
      vertex -20 1.13137 1.01005
      vertex -20 0.902252 1.09775
    endloop
  endfacet
  facet normal -1 0 0
    outer loop
      vertex -20 0.902252 1.09775
      vertex -20 1.13137 1.01005
      vertex -20 1.06066 0.93934
    endloop
  endfacet
  facet normal -9.72842e-16 0.707107 -0.707107
    outer loop
      vertex -19.8019 16.5235 16.4022
      vertex -20 1.06066 0.93934
      vertex -20 1.13137 1.01005
    endloop
  endfacet
  facet normal -0.999959 0.0064336 0.0064336
    outer loop
      vertex -19.8019 16.5235 16.4022
      vertex -20 1.13137 1.01005
      vertex -19.8019 14.4022 18.5235
    endloop
  endfacet
  facet normal -0.62349 0.552838 0.552838
    outer loop
      vertex -19.8019 14.4022 18.5235
      vertex -18.445 15.1673 19.2887
      vertex -19.8019 16.5235 16.4022
    endloop
  endfacet
  facet normal -0.62349 0.552838 0.552838
    outer loop
      vertex -19.8019 16.5235 16.4022
      vertex -18.445 15.1673 19.2887
      vertex -18.445 17.2887 17.1673
    endloop
  endfacet
  facet normal 0 -0.707107 0.707107
    outer loop
      vertex -19.8019 14.4022 18.5235
      vertex -19.8019 13.175 17.2963
      vertex -18.445 12.4098 16.5311
    endloop
  endfacet
  facet normal 0 -0.707107 0.707107
    outer loop
      vertex -17.2135 12.9978 17.1191
      vertex -19.8019 14.4022 18.5235
      vertex -17.2135 12.4098 16.5311
    endloop
  endfacet
  facet normal 0 -0.707107 0.707107
    outer loop
      vertex -17.2135 12.4098 16.5311
      vertex -19.8019 14.4022 18.5235
      vertex -18.445 12.4098 16.5311
    endloop
  endfacet
  facet normal 0 -0.707107 0.707107
    outer loop
      vertex -15.5365 13.3831 17.5044
      vertex -19.8019 14.4022 18.5235
      vertex -17.2135 12.9978 17.1191
    endloop
  endfacet
  facet normal 0 -0.707107 0.707107
    outer loop
      vertex 14.7865 12.4098 16.5311
      vertex -19.8019 14.4022 18.5235
      vertex -15.5365 13.3831 17.5044
    endloop
  endfacet
  facet normal 0 -0.707107 0.707107
    outer loop
      vertex 14.7865 12.4098 16.5311
      vertex -15.5365 13.3831 17.5044
      vertex -14.5364 12.4098 16.5311
    endloop
  endfacet
  facet normal 0 -0.707107 0.707107
    outer loop
      vertex 14.7865 12.9978 17.1191
      vertex -19.8019 14.4022 18.5235
      vertex 14.7865 12.4098 16.5311
    endloop
  endfacet
  facet normal 0 -0.707107 0.707107
    outer loop
      vertex 16.4635 13.3831 17.5044
      vertex -19.8019 14.4022 18.5235
      vertex 14.7865 12.9978 17.1191
    endloop
  endfacet
  facet normal 0 -0.707107 0.707107
    outer loop
      vertex 20 13.7886 17.9099
      vertex -19.8019 14.4022 18.5235
      vertex 16.4635 13.3831 17.5044
    endloop
  endfacet
  facet normal 0 -0.707107 0.707107
    outer loop
      vertex 17.555 12.4098 16.5311
      vertex 16.4635 13.3831 17.5044
      vertex 17.4636 12.4098 16.5311
    endloop
  endfacet
  facet normal 0 -0.707107 0.707107
    outer loop
      vertex 19.247 12.6829 16.8042
      vertex 16.4635 13.3831 17.5044
      vertex 17.555 12.4098 16.5311
    endloop
  endfacet
  facet normal 0 -0.707107 0.707107
    outer loop
      vertex 20 13.7886 17.9099
      vertex 16.4635 13.3831 17.5044
      vertex 19.247 12.6829 16.8042
    endloop
  endfacet
  facet normal 0 -0.707107 0.707107
    outer loop
      vertex 19.247 14.8943 19.0156
      vertex -19.8019 14.4022 18.5235
      vertex 20 13.7886 17.9099
    endloop
  endfacet
  facet normal 0 -0.707107 0.707107
    outer loop
      vertex 17.555 15.1673 19.2887
      vertex -19.8019 14.4022 18.5235
      vertex 19.247 14.8943 19.0156
    endloop
  endfacet
  facet normal 0 -0.707107 0.707107
    outer loop
      vertex -18.445 15.1673 19.2887
      vertex -19.8019 14.4022 18.5235
      vertex 17.555 15.1673 19.2887
    endloop
  endfacet
  facet normal -2.34307e-14 -0.707107 0.707107
    outer loop
      vertex -19.8019 14.4022 18.5235
      vertex -19.9953 -0.62132 3.5
      vertex -19.9948 -0.62132 3.5
    endloop
  endfacet
  facet normal -2.34307e-14 -0.707107 0.707107
    outer loop
      vertex -19.8019 13.175 17.2963
      vertex -19.8019 14.4022 18.5235
      vertex -19.9948 -0.62132 3.5
    endloop
  endfacet
  facet normal -0.951056 -0.309018 0
    outer loop
      vertex -19.9344 -40.6237 3.5
      vertex -19.9344 -40.6237 0.5
      vertex -19.7406 -41.2202 3.5
    endloop
  endfacet
  facet normal -0.951056 -0.309018 0
    outer loop
      vertex -19.7406 -41.2202 3.5
      vertex -19.9344 -40.6237 0.5
      vertex -19.7406 -41.2202 0.5
    endloop
  endfacet
  facet normal -0.866026 -0.499999 0
    outer loop
      vertex -19.7406 -41.2202 3.5
      vertex -19.7406 -41.2202 0.5
      vertex -19.4271 -41.7634 3.5
    endloop
  endfacet
  facet normal -0.866026 -0.499999 0
    outer loop
      vertex -19.4271 -41.7634 3.5
      vertex -19.7406 -41.2202 0.5
      vertex -19.4271 -41.7634 0.5
    endloop
  endfacet
  facet normal -0.743144 -0.669131 0
    outer loop
      vertex -19.4271 -41.7634 3.5
      vertex -19.4271 -41.7634 0.5
      vertex -19.0074 -42.2294 3.5
    endloop
  endfacet
  facet normal -0.743144 -0.669131 0
    outer loop
      vertex -19.0074 -42.2294 3.5
      vertex -19.4271 -41.7634 0.5
      vertex -19.0074 -42.2294 0.5
    endloop
  endfacet
  facet normal -0.587785 -0.809017 0
    outer loop
      vertex -18.5 -42.5981 3.5
      vertex -19.0074 -42.2294 3.5
      vertex -19.0074 -42.2294 0.5
    endloop
  endfacet
  facet normal -0.587785 -0.809017 0
    outer loop
      vertex -18.5 -42.5981 0.5
      vertex -18.5 -42.5981 3.5
      vertex -19.0074 -42.2294 0.5
    endloop
  endfacet
  facet normal -0.406738 -0.913545 0
    outer loop
      vertex -17.9271 -42.8532 3.5
      vertex -18.5 -42.5981 3.5
      vertex -18.5 -42.5981 0.5
    endloop
  endfacet
  facet normal -0.406738 -0.913545 0
    outer loop
      vertex -17.9271 -42.8532 0.5
      vertex -17.9271 -42.8532 3.5
      vertex -18.5 -42.5981 0.5
    endloop
  endfacet
  facet normal -0.207911 -0.978148 0
    outer loop
      vertex -17.3136 -42.9836 3.5
      vertex -17.9271 -42.8532 3.5
      vertex -17.9271 -42.8532 0.5
    endloop
  endfacet
  facet normal -0.207911 -0.978148 0
    outer loop
      vertex -17.3136 -42.9836 0.5
      vertex -17.3136 -42.9836 3.5
      vertex -17.9271 -42.8532 0.5
    endloop
  endfacet
  facet normal 0 -1 0
    outer loop
      vertex -17 -42.9836 3.5
      vertex -17.3136 -42.9836 3.5
      vertex -17.3136 -42.9836 0.5
    endloop
  endfacet
  facet normal 0 -1 0
    outer loop
      vertex -17 -42.9836 0.5
      vertex -17 -42.9836 3.5
      vertex -17.3136 -42.9836 0.5
    endloop
  endfacet
  facet normal -1 0 0
    outer loop
      vertex -17 -43 3.5
      vertex -17 -42.9836 3.5
      vertex -17 -43 0.5
    endloop
  endfacet
  facet normal -1 0 0
    outer loop
      vertex -17 -43 0.5
      vertex -17 -42.9836 3.5
      vertex -17 -42.9836 0.5
    endloop
  endfacet
  facet normal 0 -1 0
    outer loop
      vertex 17 -43 3.5
      vertex -17 -43 3.5
      vertex -17 -43 0.5
    endloop
  endfacet
  facet normal 0 -1 0
    outer loop
      vertex 17 -43 0.5
      vertex 17 -43 3.5
      vertex -17 -43 0.5
    endloop
  endfacet
  facet normal 1 0 0
    outer loop
      vertex 17 -42.9836 3.5
      vertex 17 -43 3.5
      vertex 17 -43 0.5
    endloop
  endfacet
  facet normal 1 0 0
    outer loop
      vertex 17 -42.9836 0.5
      vertex 17 -42.9836 3.5
      vertex 17 -43 0.5
    endloop
  endfacet
  facet normal 0 -1 0
    outer loop
      vertex 17.3136 -42.9836 3.5
      vertex 17 -42.9836 3.5
      vertex 17 -42.9836 0.5
    endloop
  endfacet
  facet normal 0 -1 0
    outer loop
      vertex 17.3136 -42.9836 0.5
      vertex 17.3136 -42.9836 3.5
      vertex 17 -42.9836 0.5
    endloop
  endfacet
  facet normal 0.207911 -0.978148 0
    outer loop
      vertex 17.9271 -42.8532 3.5
      vertex 17.3136 -42.9836 3.5
      vertex 17.3136 -42.9836 0.5
    endloop
  endfacet
  facet normal 0.207911 -0.978148 0
    outer loop
      vertex 17.9271 -42.8532 0.5
      vertex 17.9271 -42.8532 3.5
      vertex 17.3136 -42.9836 0.5
    endloop
  endfacet
  facet normal 0.406738 -0.913545 0
    outer loop
      vertex 18.5 -42.5981 3.5
      vertex 17.9271 -42.8532 3.5
      vertex 17.9271 -42.8532 0.5
    endloop
  endfacet
  facet normal 0.406738 -0.913545 0
    outer loop
      vertex 18.5 -42.5981 0.5
      vertex 18.5 -42.5981 3.5
      vertex 17.9271 -42.8532 0.5
    endloop
  endfacet
  facet normal 0.587785 -0.809017 0
    outer loop
      vertex 19.0074 -42.2294 3.5
      vertex 18.5 -42.5981 3.5
      vertex 18.5 -42.5981 0.5
    endloop
  endfacet
  facet normal 0.587785 -0.809017 0
    outer loop
      vertex 19.0074 -42.2294 0.5
      vertex 19.0074 -42.2294 3.5
      vertex 18.5 -42.5981 0.5
    endloop
  endfacet
  facet normal 0.743144 -0.669131 0
    outer loop
      vertex 19.4271 -41.7634 3.5
      vertex 19.0074 -42.2294 3.5
      vertex 19.0074 -42.2294 0.5
    endloop
  endfacet
  facet normal 0.743144 -0.669131 0
    outer loop
      vertex 19.4271 -41.7634 0.5
      vertex 19.4271 -41.7634 3.5
      vertex 19.0074 -42.2294 0.5
    endloop
  endfacet
  facet normal 0.866026 -0.499999 0
    outer loop
      vertex 19.7406 -41.2202 3.5
      vertex 19.4271 -41.7634 3.5
      vertex 19.4271 -41.7634 0.5
    endloop
  endfacet
  facet normal 0.866026 -0.499999 0
    outer loop
      vertex 19.7406 -41.2202 0.5
      vertex 19.7406 -41.2202 3.5
      vertex 19.4271 -41.7634 0.5
    endloop
  endfacet
  facet normal 0.951056 -0.309018 0
    outer loop
      vertex 19.9344 -40.6237 3.5
      vertex 19.7406 -41.2202 3.5
      vertex 19.7406 -41.2202 0.5
    endloop
  endfacet
  facet normal 0.951056 -0.309018 0
    outer loop
      vertex 19.9344 -40.6237 0.5
      vertex 19.9344 -40.6237 3.5
      vertex 19.7406 -41.2202 0.5
    endloop
  endfacet
  facet normal 0.994522 -0.104528 0
    outer loop
      vertex 20 -40 3.5
      vertex 19.9344 -40.6237 3.5
      vertex 19.9344 -40.6237 0.5
    endloop
  endfacet
  facet normal 0.994522 -0.104528 0
    outer loop
      vertex 20 -40 0.5
      vertex 20 -40 3.5
      vertex 19.9344 -40.6237 0.5
    endloop
  endfacet
  facet normal 0.994522 -0.104528 0
    outer loop
      vertex -18 -23 0.5
      vertex -17.6067 -19.2576 0.5
      vertex -17.6067 -19.2576 3.5
    endloop
  endfacet
  facet normal 0.994522 -0.104528 0
    outer loop
      vertex -18 -23 3.5
      vertex -18 -23 0.5
      vertex -17.6067 -19.2576 3.5
    endloop
  endfacet
  facet normal 0.994522 0.104528 0
    outer loop
      vertex -17.6067 -26.7424 3.5
      vertex -17.6067 -26.7424 0.5
      vertex -18 -23 0.5
    endloop
  endfacet
  facet normal 0.994522 0.104528 0
    outer loop
      vertex -18 -23 3.5
      vertex -17.6067 -26.7424 3.5
      vertex -18 -23 0.5
    endloop
  endfacet
  facet normal 0.951057 -0.309017 0
    outer loop
      vertex -17.6067 -19.2576 0.5
      vertex -16.4438 -15.6787 0.5
      vertex -16.4438 -15.6787 3.5
    endloop
  endfacet
  facet normal 0.951057 -0.309017 0
    outer loop
      vertex -17.6067 -19.2576 3.5
      vertex -17.6067 -19.2576 0.5
      vertex -16.4438 -15.6787 3.5
    endloop
  endfacet
  facet normal 0.866025 -0.5 0
    outer loop
      vertex -16.4438 -15.6787 0.5
      vertex -14.5623 -12.4199 0.5
      vertex -14.5623 -12.4199 3.5
    endloop
  endfacet
  facet normal 0.866025 -0.5 0
    outer loop
      vertex -16.4438 -15.6787 3.5
      vertex -16.4438 -15.6787 0.5
      vertex -14.5623 -12.4199 3.5
    endloop
  endfacet
  facet normal 0.743145 -0.669131 0
    outer loop
      vertex -14.5623 -12.4199 0.5
      vertex -12.0444 -9.62339 0.5
      vertex -12.0444 -9.62339 3.5
    endloop
  endfacet
  facet normal 0.743145 -0.669131 0
    outer loop
      vertex -14.5623 -12.4199 3.5
      vertex -14.5623 -12.4199 0.5
      vertex -12.0444 -9.62339 3.5
    endloop
  endfacet
  facet normal 0.587785 -0.809017 0
    outer loop
      vertex -12.0444 -9.62339 0.5
      vertex -9 -7.41154 0.5
      vertex -9 -7.41154 3.5
    endloop
  endfacet
  facet normal 0.587785 -0.809017 0
    outer loop
      vertex -12.0444 -9.62339 3.5
      vertex -12.0444 -9.62339 0.5
      vertex -9 -7.41154 3.5
    endloop
  endfacet
  facet normal 0.406737 -0.913545 0
    outer loop
      vertex -9 -7.41154 0.5
      vertex -5.56231 -5.88098 0.5
      vertex -5.56231 -5.88098 3.5
    endloop
  endfacet
  facet normal 0.406737 -0.913545 0
    outer loop
      vertex -9 -7.41154 3.5
      vertex -9 -7.41154 0.5
      vertex -5.56231 -5.88098 3.5
    endloop
  endfacet
  facet normal 0.207912 -0.978148 0
    outer loop
      vertex -5.56231 -5.88098 0.5
      vertex -1.88151 -5.09861 0.5
      vertex -1.88151 -5.09861 3.5
    endloop
  endfacet
  facet normal 0.207912 -0.978148 0
    outer loop
      vertex -5.56231 -5.88098 3.5
      vertex -5.56231 -5.88098 0.5
      vertex -1.88151 -5.09861 3.5
    endloop
  endfacet
  facet normal 0 -1 0
    outer loop
      vertex -1.88151 -5.09861 0.5
      vertex 1.88151 -5.09861 0.5
      vertex 1.88151 -5.09861 3.5
    endloop
  endfacet
  facet normal 0 -1 0
    outer loop
      vertex -1.88151 -5.09861 3.5
      vertex -1.88151 -5.09861 0.5
      vertex 1.88151 -5.09861 3.5
    endloop
  endfacet
  facet normal -0.207912 -0.978148 0
    outer loop
      vertex 1.88151 -5.09861 0.5
      vertex 5.56231 -5.88098 0.5
      vertex 5.56231 -5.88098 3.5
    endloop
  endfacet
  facet normal -0.207912 -0.978148 0
    outer loop
      vertex 1.88151 -5.09861 3.5
      vertex 1.88151 -5.09861 0.5
      vertex 5.56231 -5.88098 3.5
    endloop
  endfacet
  facet normal -0.406737 -0.913545 0
    outer loop
      vertex 5.56231 -5.88098 0.5
      vertex 9 -7.41154 0.5
      vertex 9 -7.41154 3.5
    endloop
  endfacet
  facet normal -0.406737 -0.913545 0
    outer loop
      vertex 5.56231 -5.88098 3.5
      vertex 5.56231 -5.88098 0.5
      vertex 9 -7.41154 3.5
    endloop
  endfacet
  facet normal -0.587785 -0.809017 0
    outer loop
      vertex 9 -7.41154 0.5
      vertex 12.0444 -9.62339 0.5
      vertex 12.0444 -9.62339 3.5
    endloop
  endfacet
  facet normal -0.587785 -0.809017 0
    outer loop
      vertex 9 -7.41154 3.5
      vertex 9 -7.41154 0.5
      vertex 12.0444 -9.62339 3.5
    endloop
  endfacet
  facet normal -0.743145 -0.669131 0
    outer loop
      vertex 14.5623 -12.4199 0.5
      vertex 14.5623 -12.4199 3.5
      vertex 12.0444 -9.62339 0.5
    endloop
  endfacet
  facet normal -0.743145 -0.669131 0
    outer loop
      vertex 12.0444 -9.62339 0.5
      vertex 14.5623 -12.4199 3.5
      vertex 12.0444 -9.62339 3.5
    endloop
  endfacet
  facet normal -0.866025 -0.5 0
    outer loop
      vertex 16.4438 -15.6787 0.5
      vertex 16.4438 -15.6787 3.5
      vertex 14.5623 -12.4199 0.5
    endloop
  endfacet
  facet normal -0.866025 -0.5 0
    outer loop
      vertex 14.5623 -12.4199 0.5
      vertex 16.4438 -15.6787 3.5
      vertex 14.5623 -12.4199 3.5
    endloop
  endfacet
  facet normal -0.951057 -0.309017 0
    outer loop
      vertex 17.6067 -19.2576 0.5
      vertex 17.6067 -19.2576 3.5
      vertex 16.4438 -15.6787 0.5
    endloop
  endfacet
  facet normal -0.951057 -0.309017 0
    outer loop
      vertex 16.4438 -15.6787 0.5
      vertex 17.6067 -19.2576 3.5
      vertex 16.4438 -15.6787 3.5
    endloop
  endfacet
  facet normal -0.994522 -0.104528 0
    outer loop
      vertex 18 -23 0.5
      vertex 18 -23 3.5
      vertex 17.6067 -19.2576 0.5
    endloop
  endfacet
  facet normal -0.994522 -0.104528 0
    outer loop
      vertex 17.6067 -19.2576 0.5
      vertex 18 -23 3.5
      vertex 17.6067 -19.2576 3.5
    endloop
  endfacet
  facet normal -0.994522 0.104528 0
    outer loop
      vertex 18 -23 0.5
      vertex 17.6067 -26.7424 0.5
      vertex 18 -23 3.5
    endloop
  endfacet
  facet normal -0.994522 0.104528 0
    outer loop
      vertex 18 -23 3.5
      vertex 17.6067 -26.7424 0.5
      vertex 17.6067 -26.7424 3.5
    endloop
  endfacet
  facet normal -0.951057 0.309017 0
    outer loop
      vertex 17.6067 -26.7424 0.5
      vertex 16.4438 -30.3213 0.5
      vertex 17.6067 -26.7424 3.5
    endloop
  endfacet
  facet normal -0.951057 0.309017 0
    outer loop
      vertex 17.6067 -26.7424 3.5
      vertex 16.4438 -30.3213 0.5
      vertex 16.4438 -30.3213 3.5
    endloop
  endfacet
  facet normal -0.866025 0.5 0
    outer loop
      vertex 16.4438 -30.3213 0.5
      vertex 14.5623 -33.5801 0.5
      vertex 16.4438 -30.3213 3.5
    endloop
  endfacet
  facet normal -0.866025 0.5 0
    outer loop
      vertex 16.4438 -30.3213 3.5
      vertex 14.5623 -33.5801 0.5
      vertex 14.5623 -33.5801 3.5
    endloop
  endfacet
  facet normal -0.743145 0.669131 0
    outer loop
      vertex 14.5623 -33.5801 0.5
      vertex 12.0444 -36.3766 0.5
      vertex 14.5623 -33.5801 3.5
    endloop
  endfacet
  facet normal -0.743145 0.669131 0
    outer loop
      vertex 14.5623 -33.5801 3.5
      vertex 12.0444 -36.3766 0.5
      vertex 12.0444 -36.3766 3.5
    endloop
  endfacet
  facet normal -0.587785 0.809017 0
    outer loop
      vertex 12.0444 -36.3766 0.5
      vertex 9 -38.5885 0.5
      vertex 12.0444 -36.3766 3.5
    endloop
  endfacet
  facet normal -0.587785 0.809017 0
    outer loop
      vertex 12.0444 -36.3766 3.5
      vertex 9 -38.5885 0.5
      vertex 9 -38.5885 3.5
    endloop
  endfacet
  facet normal -0.406737 0.913545 0
    outer loop
      vertex 9 -38.5885 0.5
      vertex 5.56231 -40.119 0.5
      vertex 9 -38.5885 3.5
    endloop
  endfacet
  facet normal -0.406737 0.913545 0
    outer loop
      vertex 9 -38.5885 3.5
      vertex 5.56231 -40.119 0.5
      vertex 5.56231 -40.119 3.5
    endloop
  endfacet
  facet normal -0.207912 0.978148 0
    outer loop
      vertex 5.56231 -40.119 0.5
      vertex 1.88151 -40.9014 0.5
      vertex 5.56231 -40.119 3.5
    endloop
  endfacet
  facet normal -0.207912 0.978148 0
    outer loop
      vertex 5.56231 -40.119 3.5
      vertex 1.88151 -40.9014 0.5
      vertex 1.88151 -40.9014 3.5
    endloop
  endfacet
  facet normal 0 1 0
    outer loop
      vertex 1.88151 -40.9014 0.5
      vertex -1.88151 -40.9014 0.5
      vertex 1.88151 -40.9014 3.5
    endloop
  endfacet
  facet normal 0 1 0
    outer loop
      vertex 1.88151 -40.9014 3.5
      vertex -1.88151 -40.9014 0.5
      vertex -1.88151 -40.9014 3.5
    endloop
  endfacet
  facet normal 0.207912 0.978148 0
    outer loop
      vertex -1.88151 -40.9014 0.5
      vertex -5.56231 -40.119 0.5
      vertex -1.88151 -40.9014 3.5
    endloop
  endfacet
  facet normal 0.207912 0.978148 0
    outer loop
      vertex -1.88151 -40.9014 3.5
      vertex -5.56231 -40.119 0.5
      vertex -5.56231 -40.119 3.5
    endloop
  endfacet
  facet normal 0.406737 0.913545 0
    outer loop
      vertex -5.56231 -40.119 0.5
      vertex -9 -38.5885 0.5
      vertex -5.56231 -40.119 3.5
    endloop
  endfacet
  facet normal 0.406737 0.913545 0
    outer loop
      vertex -5.56231 -40.119 3.5
      vertex -9 -38.5885 0.5
      vertex -9 -38.5885 3.5
    endloop
  endfacet
  facet normal 0.587785 0.809017 0
    outer loop
      vertex -9 -38.5885 0.5
      vertex -12.0444 -36.3766 0.5
      vertex -9 -38.5885 3.5
    endloop
  endfacet
  facet normal 0.587785 0.809017 0
    outer loop
      vertex -9 -38.5885 3.5
      vertex -12.0444 -36.3766 0.5
      vertex -12.0444 -36.3766 3.5
    endloop
  endfacet
  facet normal 0.743145 0.669131 0
    outer loop
      vertex -12.0444 -36.3766 3.5
      vertex -12.0444 -36.3766 0.5
      vertex -14.5623 -33.5801 0.5
    endloop
  endfacet
  facet normal 0.743145 0.669131 0
    outer loop
      vertex -14.5623 -33.5801 3.5
      vertex -12.0444 -36.3766 3.5
      vertex -14.5623 -33.5801 0.5
    endloop
  endfacet
  facet normal 0.866025 0.5 0
    outer loop
      vertex -14.5623 -33.5801 3.5
      vertex -14.5623 -33.5801 0.5
      vertex -16.4438 -30.3213 0.5
    endloop
  endfacet
  facet normal 0.866025 0.5 0
    outer loop
      vertex -16.4438 -30.3213 3.5
      vertex -14.5623 -33.5801 3.5
      vertex -16.4438 -30.3213 0.5
    endloop
  endfacet
  facet normal 0.951057 0.309017 0
    outer loop
      vertex -16.4438 -30.3213 3.5
      vertex -16.4438 -30.3213 0.5
      vertex -17.6067 -26.7424 0.5
    endloop
  endfacet
  facet normal 0.951057 0.309017 0
    outer loop
      vertex -17.6067 -26.7424 3.5
      vertex -16.4438 -30.3213 3.5
      vertex -17.6067 -26.7424 0.5
    endloop
  endfacet
  facet normal 0.866025 -0.5 0
    outer loop
      vertex -17.75 -39 0.5
      vertex -16.875 -37.4845 0.5
      vertex -16.875 -37.4845 3.5
    endloop
  endfacet
  facet normal 0.866025 -0.5 0
    outer loop
      vertex -17.75 -39 3.5
      vertex -17.75 -39 0.5
      vertex -16.875 -37.4845 3.5
    endloop
  endfacet
  facet normal 0.866025 0.5 0
    outer loop
      vertex -16.875 -40.5155 3.5
      vertex -16.875 -40.5155 0.5
      vertex -17.75 -39 0.5
    endloop
  endfacet
  facet normal 0.866025 0.5 0
    outer loop
      vertex -17.75 -39 3.5
      vertex -16.875 -40.5155 3.5
      vertex -17.75 -39 0.5
    endloop
  endfacet
  facet normal 0 -1 0
    outer loop
      vertex -16.875 -37.4845 0.5
      vertex -15.125 -37.4845 0.5
      vertex -15.125 -37.4845 3.5
    endloop
  endfacet
  facet normal 0 -1 0
    outer loop
      vertex -16.875 -37.4845 3.5
      vertex -16.875 -37.4845 0.5
      vertex -15.125 -37.4845 3.5
    endloop
  endfacet
  facet normal -0.866025 -0.5 0
    outer loop
      vertex -14.25 -39 0.5
      vertex -14.25 -39 3.5
      vertex -15.125 -37.4845 0.5
    endloop
  endfacet
  facet normal -0.866025 -0.5 0
    outer loop
      vertex -15.125 -37.4845 0.5
      vertex -14.25 -39 3.5
      vertex -15.125 -37.4845 3.5
    endloop
  endfacet
  facet normal -0.866025 0.5 0
    outer loop
      vertex -14.25 -39 0.5
      vertex -15.125 -40.5155 0.5
      vertex -14.25 -39 3.5
    endloop
  endfacet
  facet normal -0.866025 0.5 0
    outer loop
      vertex -14.25 -39 3.5
      vertex -15.125 -40.5155 0.5
      vertex -15.125 -40.5155 3.5
    endloop
  endfacet
  facet normal 0 1 0
    outer loop
      vertex -15.125 -40.5155 0.5
      vertex -16.875 -40.5155 0.5
      vertex -15.125 -40.5155 3.5
    endloop
  endfacet
  facet normal 0 1 0
    outer loop
      vertex -15.125 -40.5155 3.5
      vertex -16.875 -40.5155 0.5
      vertex -16.875 -40.5155 3.5
    endloop
  endfacet
  facet normal 0.866025 -0.5 0
    outer loop
      vertex -17.75 -7 0.5
      vertex -16.875 -5.48446 0.5
      vertex -16.875 -5.48446 3.5
    endloop
  endfacet
  facet normal 0.866025 -0.5 0
    outer loop
      vertex -17.75 -7 3.5
      vertex -17.75 -7 0.5
      vertex -16.875 -5.48446 3.5
    endloop
  endfacet
  facet normal 0.866025 0.5 0
    outer loop
      vertex -16.875 -8.51554 3.5
      vertex -16.875 -8.51554 0.5
      vertex -17.75 -7 0.5
    endloop
  endfacet
  facet normal 0.866025 0.5 0
    outer loop
      vertex -17.75 -7 3.5
      vertex -16.875 -8.51554 3.5
      vertex -17.75 -7 0.5
    endloop
  endfacet
  facet normal 0 -1 0
    outer loop
      vertex -16.875 -5.48446 0.5
      vertex -15.125 -5.48446 0.5
      vertex -15.125 -5.48446 3.5
    endloop
  endfacet
  facet normal 0 -1 0
    outer loop
      vertex -16.875 -5.48446 3.5
      vertex -16.875 -5.48446 0.5
      vertex -15.125 -5.48446 3.5
    endloop
  endfacet
  facet normal -0.866025 -0.5 0
    outer loop
      vertex -14.25 -7 0.5
      vertex -14.25 -7 3.5
      vertex -15.125 -5.48446 0.5
    endloop
  endfacet
  facet normal -0.866025 -0.5 0
    outer loop
      vertex -15.125 -5.48446 0.5
      vertex -14.25 -7 3.5
      vertex -15.125 -5.48446 3.5
    endloop
  endfacet
  facet normal -0.866025 0.5 0
    outer loop
      vertex -14.25 -7 0.5
      vertex -15.125 -8.51554 0.5
      vertex -14.25 -7 3.5
    endloop
  endfacet
  facet normal -0.866025 0.5 0
    outer loop
      vertex -14.25 -7 3.5
      vertex -15.125 -8.51554 0.5
      vertex -15.125 -8.51554 3.5
    endloop
  endfacet
  facet normal 0 1 0
    outer loop
      vertex -15.125 -8.51554 0.5
      vertex -16.875 -8.51554 0.5
      vertex -15.125 -8.51554 3.5
    endloop
  endfacet
  facet normal 0 1 0
    outer loop
      vertex -15.125 -8.51554 3.5
      vertex -16.875 -8.51554 0.5
      vertex -16.875 -8.51554 3.5
    endloop
  endfacet
  facet normal 0.866025 -0.5 0
    outer loop
      vertex 14.25 -39 0.5
      vertex 15.125 -37.4845 0.5
      vertex 15.125 -37.4845 3.5
    endloop
  endfacet
  facet normal 0.866025 -0.5 0
    outer loop
      vertex 14.25 -39 3.5
      vertex 14.25 -39 0.5
      vertex 15.125 -37.4845 3.5
    endloop
  endfacet
  facet normal 0.866025 0.5 0
    outer loop
      vertex 15.125 -40.5155 3.5
      vertex 15.125 -40.5155 0.5
      vertex 14.25 -39 0.5
    endloop
  endfacet
  facet normal 0.866025 0.5 0
    outer loop
      vertex 14.25 -39 3.5
      vertex 15.125 -40.5155 3.5
      vertex 14.25 -39 0.5
    endloop
  endfacet
  facet normal 0 -1 0
    outer loop
      vertex 15.125 -37.4845 0.5
      vertex 16.875 -37.4845 0.5
      vertex 16.875 -37.4845 3.5
    endloop
  endfacet
  facet normal 0 -1 0
    outer loop
      vertex 15.125 -37.4845 3.5
      vertex 15.125 -37.4845 0.5
      vertex 16.875 -37.4845 3.5
    endloop
  endfacet
  facet normal -0.866025 -0.5 0
    outer loop
      vertex 17.75 -39 0.5
      vertex 17.75 -39 3.5
      vertex 16.875 -37.4845 0.5
    endloop
  endfacet
  facet normal -0.866025 -0.5 0
    outer loop
      vertex 16.875 -37.4845 0.5
      vertex 17.75 -39 3.5
      vertex 16.875 -37.4845 3.5
    endloop
  endfacet
  facet normal -0.866025 0.5 0
    outer loop
      vertex 17.75 -39 0.5
      vertex 16.875 -40.5155 0.5
      vertex 17.75 -39 3.5
    endloop
  endfacet
  facet normal -0.866025 0.5 0
    outer loop
      vertex 17.75 -39 3.5
      vertex 16.875 -40.5155 0.5
      vertex 16.875 -40.5155 3.5
    endloop
  endfacet
  facet normal 0 1 0
    outer loop
      vertex 16.875 -40.5155 0.5
      vertex 15.125 -40.5155 0.5
      vertex 16.875 -40.5155 3.5
    endloop
  endfacet
  facet normal 0 1 0
    outer loop
      vertex 16.875 -40.5155 3.5
      vertex 15.125 -40.5155 0.5
      vertex 15.125 -40.5155 3.5
    endloop
  endfacet
  facet normal 0.866025 -0.5 0
    outer loop
      vertex 14.25 -7 0.5
      vertex 15.125 -5.48446 0.5
      vertex 15.125 -5.48446 3.5
    endloop
  endfacet
  facet normal 0.866025 -0.5 0
    outer loop
      vertex 14.25 -7 3.5
      vertex 14.25 -7 0.5
      vertex 15.125 -5.48446 3.5
    endloop
  endfacet
  facet normal 0.866025 0.5 0
    outer loop
      vertex 15.125 -8.51554 3.5
      vertex 15.125 -8.51554 0.5
      vertex 14.25 -7 0.5
    endloop
  endfacet
  facet normal 0.866025 0.5 0
    outer loop
      vertex 14.25 -7 3.5
      vertex 15.125 -8.51554 3.5
      vertex 14.25 -7 0.5
    endloop
  endfacet
  facet normal 0 -1 0
    outer loop
      vertex 15.125 -5.48446 0.5
      vertex 16.875 -5.48446 0.5
      vertex 16.875 -5.48446 3.5
    endloop
  endfacet
  facet normal 0 -1 0
    outer loop
      vertex 15.125 -5.48446 3.5
      vertex 15.125 -5.48446 0.5
      vertex 16.875 -5.48446 3.5
    endloop
  endfacet
  facet normal -0.866025 -0.5 0
    outer loop
      vertex 17.75 -7 0.5
      vertex 17.75 -7 3.5
      vertex 16.875 -5.48446 0.5
    endloop
  endfacet
  facet normal -0.866025 -0.5 0
    outer loop
      vertex 16.875 -5.48446 0.5
      vertex 17.75 -7 3.5
      vertex 16.875 -5.48446 3.5
    endloop
  endfacet
  facet normal -0.866025 0.5 0
    outer loop
      vertex 17.75 -7 0.5
      vertex 16.875 -8.51554 0.5
      vertex 17.75 -7 3.5
    endloop
  endfacet
  facet normal -0.866025 0.5 0
    outer loop
      vertex 17.75 -7 3.5
      vertex 16.875 -8.51554 0.5
      vertex 16.875 -8.51554 3.5
    endloop
  endfacet
  facet normal 0 1 0
    outer loop
      vertex 16.875 -8.51554 0.5
      vertex 15.125 -8.51554 0.5
      vertex 16.875 -8.51554 3.5
    endloop
  endfacet
  facet normal 0 1 0
    outer loop
      vertex 16.875 -8.51554 3.5
      vertex 15.125 -8.51554 0.5
      vertex 15.125 -8.51554 3.5
    endloop
  endfacet
  facet normal -9.72842e-16 -0.707107 0.707107
    outer loop
      vertex -19.8019 13.175 17.2963
      vertex -19.9948 -0.62132 3.5
      vertex -19.9939 -0.62132 3.5
    endloop
  endfacet
  facet normal -1.83269e-16 -0.707107 0.707107
    outer loop
      vertex -19.8019 13.175 17.2963
      vertex -19.9939 -0.62132 3.5
      vertex -19.9493 -0.62132 3.5
    endloop
  endfacet
  facet normal -1.83269e-16 -0.707107 0.707107
    outer loop
      vertex -18.445 12.4098 16.5311
      vertex -19.8019 13.175 17.2963
      vertex -19.9493 -0.62132 3.5
    endloop
  endfacet
  facet normal 0 -0.707107 0.707107
    outer loop
      vertex -15.5365 11.3656 15.4869
      vertex -19.9493 -0.62132 3.5
      vertex 19.9203 -0.62132 3.5
    endloop
  endfacet
  facet normal 0 -0.707107 0.707107
    outer loop
      vertex -14.5 12.3744 16.4957
      vertex 16.4635 11.3656 15.4869
      vertex 14.7865 11.7509 15.8722
    endloop
  endfacet
  facet normal 0 -0.707107 0.707107
    outer loop
      vertex 17.555 12.4098 16.5311
      vertex 17.5 12.3744 16.4957
      vertex 19.9203 -0.62132 3.5
    endloop
  endfacet
  facet normal 0 -0.707107 0.707107
    outer loop
      vertex 17.555 12.4098 16.5311
      vertex 17.4636 12.4098 16.5311
      vertex 17.5 12.3744 16.4957
    endloop
  endfacet
  facet normal 0 -0.707107 0.707107
    outer loop
      vertex -17.2135 11.7509 15.8722
      vertex -17.2135 12.4098 16.5311
      vertex -18.445 12.4098 16.5311
    endloop
  endfacet
  facet normal 0 -0.707107 0.707107
    outer loop
      vertex 14.7865 12.4098 16.5311
      vertex -14.5364 12.4098 16.5311
      vertex 14.7865 11.7509 15.8722
    endloop
  endfacet
  facet normal 0 -0.707107 0.707107
    outer loop
      vertex -14.5364 12.4098 16.5311
      vertex -14.5 12.3744 16.4957
      vertex 14.7865 11.7509 15.8722
    endloop
  endfacet
  facet normal 0 -0.707107 0.707107
    outer loop
      vertex -17.2135 11.7509 15.8722
      vertex -19.9493 -0.62132 3.5
      vertex -15.5365 11.3656 15.4869
    endloop
  endfacet
  facet normal 0 -0.707107 0.707107
    outer loop
      vertex -18.445 12.4098 16.5311
      vertex -19.9493 -0.62132 3.5
      vertex -17.2135 11.7509 15.8722
    endloop
  endfacet
  facet normal 0 -0.707107 0.707107
    outer loop
      vertex 17.5 12.3744 16.4957
      vertex 16.4635 11.3656 15.4869
      vertex 19.9203 -0.62132 3.5
    endloop
  endfacet
  facet normal 0 -0.707107 0.707107
    outer loop
      vertex -14.5 12.3744 16.4957
      vertex 19.9203 -0.62132 3.5
      vertex 16.4635 11.3656 15.4869
    endloop
  endfacet
  facet normal 0 -0.707107 0.707107
    outer loop
      vertex -14.5 12.3744 16.4957
      vertex -15.5365 11.3656 15.4869
      vertex 19.9203 -0.62132 3.5
    endloop
  endfacet
  facet normal 5.42775e-17 -0.707107 0.707107
    outer loop
      vertex 19.247 12.6829 16.8042
      vertex 17.555 12.4098 16.5311
      vertex 19.9203 -0.62132 3.5
    endloop
  endfacet
  facet normal 5.42775e-17 -0.707107 0.707107
    outer loop
      vertex 19.9759 -0.62132 3.5
      vertex 19.247 12.6829 16.8042
      vertex 19.9203 -0.62132 3.5
    endloop
  endfacet
  facet normal 4.61081e-16 -0.707107 0.707107
    outer loop
      vertex 20 13.7886 17.9099
      vertex 19.247 12.6829 16.8042
      vertex 19.9759 -0.62132 3.5
    endloop
  endfacet
  facet normal 4.61081e-16 -0.707107 0.707107
    outer loop
      vertex 20 -0.62132 3.5
      vertex 20 13.7886 17.9099
      vertex 19.9759 -0.62132 3.5
    endloop
  endfacet
  facet normal 0.900969 0.306802 0.306802
    outer loop
      vertex 19.247 17.0156 16.8943
      vertex 19.247 14.8943 19.0156
      vertex 20 13.7886 17.9099
    endloop
  endfacet
  facet normal 0.900969 0.306802 0.306802
    outer loop
      vertex 20 15.9099 15.7886
      vertex 19.247 17.0156 16.8943
      vertex 20 13.7886 17.9099
    endloop
  endfacet
  facet normal 4.61081e-16 0.707107 -0.707107
    outer loop
      vertex 20 1.06066 0.93934
      vertex 19.247 17.0156 16.8943
      vertex 20 15.9099 15.7886
    endloop
  endfacet
  facet normal 0 0.707107 -0.707107
    outer loop
      vertex -15.5365 15.5044 15.3831
      vertex -18.445 17.2887 17.1673
      vertex 20 1.06066 0.93934
    endloop
  endfacet
  facet normal 0 0.707107 -0.707107
    outer loop
      vertex 14.7865 15.1191 14.9978
      vertex -18.445 17.2887 17.1673
      vertex 17.555 17.2887 17.1673
    endloop
  endfacet
  facet normal 0 0.707107 -0.707107
    outer loop
      vertex -20 1.06066 0.93934
      vertex -18.445 17.2887 17.1673
      vertex -17.2135 15.1191 14.9978
    endloop
  endfacet
  facet normal 0 0.707107 -0.707107
    outer loop
      vertex -20 1.06066 0.93934
      vertex -17.2135 15.1191 14.9978
      vertex -17.2135 13.8722 13.7509
    endloop
  endfacet
  facet normal 0 0.707107 -0.707107
    outer loop
      vertex -20 1.06066 0.93934
      vertex -17.2135 13.8722 13.7509
      vertex 20 1.06066 0.93934
    endloop
  endfacet
  facet normal 0 0.707107 -0.707107
    outer loop
      vertex -17.2135 13.8722 13.7509
      vertex -15.5365 13.4869 13.3656
      vertex 20 1.06066 0.93934
    endloop
  endfacet
  facet normal 0 0.707107 -0.707107
    outer loop
      vertex -14.5 14.4957 14.3744
      vertex 20 1.06066 0.93934
      vertex -15.5365 13.4869 13.3656
    endloop
  endfacet
  facet normal 0 0.707107 -0.707107
    outer loop
      vertex 16.4635 13.4869 13.3656
      vertex 20 1.06066 0.93934
      vertex 14.7865 13.8722 13.7509
    endloop
  endfacet
  facet normal 0 0.707107 -0.707107
    outer loop
      vertex -14.5 14.4957 14.3744
      vertex -15.5365 15.5044 15.3831
      vertex 20 1.06066 0.93934
    endloop
  endfacet
  facet normal 0 0.707107 -0.707107
    outer loop
      vertex 14.7865 13.8722 13.7509
      vertex -18.445 17.2887 17.1673
      vertex 14.7865 15.1191 14.9978
    endloop
  endfacet
  facet normal 0 0.707107 -0.707107
    outer loop
      vertex 16.4635 15.5044 15.3831
      vertex 14.7865 15.1191 14.9978
      vertex 17.555 17.2887 17.1673
    endloop
  endfacet
  facet normal 0 0.707107 -0.707107
    outer loop
      vertex 20 1.06066 0.93934
      vertex -18.445 17.2887 17.1673
      vertex 14.7865 13.8722 13.7509
    endloop
  endfacet
  facet normal 0 0.707107 -0.707107
    outer loop
      vertex 16.4635 15.5044 15.3831
      vertex 17.555 17.2887 17.1673
      vertex 17.5 14.4957 14.3744
    endloop
  endfacet
  facet normal 0 0.707107 -0.707107
    outer loop
      vertex 20 1.06066 0.93934
      vertex 16.4635 13.4869 13.3656
      vertex 17.5 14.4957 14.3744
    endloop
  endfacet
  facet normal 0 0.707107 -0.707107
    outer loop
      vertex 20 1.06066 0.93934
      vertex 17.5 14.4957 14.3744
      vertex 17.555 17.2887 17.1673
    endloop
  endfacet
  facet normal 0 0.707107 -0.707107
    outer loop
      vertex -17.2135 15.1191 14.9978
      vertex -18.445 17.2887 17.1673
      vertex -15.5365 15.5044 15.3831
    endloop
  endfacet
  facet normal 4.75301e-17 0.707107 -0.707107
    outer loop
      vertex 20 1.06066 0.93934
      vertex 17.555 17.2887 17.1673
      vertex 19.247 17.0156 16.8943
    endloop
  endfacet
  facet normal -1.71285e-16 0.707107 -0.707107
    outer loop
      vertex -18.445 17.2887 17.1673
      vertex -20 1.06066 0.93934
      vertex -19.8019 16.5235 16.4022
    endloop
  endfacet
  facet normal 0 0.707107 0.707107
    outer loop
      vertex -18.445 15.1673 19.2887
      vertex 17.555 15.1673 19.2887
      vertex -18.445 17.2887 17.1673
    endloop
  endfacet
  facet normal 0 0.707107 0.707107
    outer loop
      vertex -18.445 17.2887 17.1673
      vertex 17.555 15.1673 19.2887
      vertex 17.555 17.2887 17.1673
    endloop
  endfacet
  facet normal 0.222521 0.689378 0.689378
    outer loop
      vertex 17.555 15.1673 19.2887
      vertex 19.247 14.8943 19.0156
      vertex 17.555 17.2887 17.1673
    endloop
  endfacet
  facet normal 0.222521 0.689378 0.689378
    outer loop
      vertex 17.555 17.2887 17.1673
      vertex 19.247 14.8943 19.0156
      vertex 19.247 17.0156 16.8943
    endloop
  endfacet
  facet normal -0.809017 -0.415627 -0.415627
    outer loop
      vertex 17.5 14.4957 14.3744
      vertex 17.5 12.3744 16.4957
      vertex 16.4635 15.5044 15.3831
    endloop
  endfacet
  facet normal -0.809017 -0.415627 -0.415627
    outer loop
      vertex 16.4635 15.5044 15.3831
      vertex 17.5 12.3744 16.4957
      vertex 17.4636 12.4098 16.5311
    endloop
  endfacet
  facet normal -0.809017 -0.415627 -0.415627
    outer loop
      vertex 16.4635 15.5044 15.3831
      vertex 17.4636 12.4098 16.5311
      vertex 16.4635 13.3831 17.5044
    endloop
  endfacet
  facet normal 0.309017 -0.672498 -0.672498
    outer loop
      vertex 14.7865 15.1191 14.9978
      vertex 16.4635 15.5044 15.3831
      vertex 16.4635 13.3831 17.5044
    endloop
  endfacet
  facet normal 0.309017 -0.672498 -0.672498
    outer loop
      vertex 14.7865 12.9978 17.1191
      vertex 14.7865 15.1191 14.9978
      vertex 16.4635 13.3831 17.5044
    endloop
  endfacet
  facet normal 1 0 0
    outer loop
      vertex 14.7865 11.7509 15.8722
      vertex 14.7865 13.8722 13.7509
      vertex 14.7865 15.1191 14.9978
    endloop
  endfacet
  facet normal 1 0 0
    outer loop
      vertex 14.7865 12.4098 16.5311
      vertex 14.7865 11.7509 15.8722
      vertex 14.7865 12.9978 17.1191
    endloop
  endfacet
  facet normal 1 0 0
    outer loop
      vertex 14.7865 12.9978 17.1191
      vertex 14.7865 11.7509 15.8722
      vertex 14.7865 15.1191 14.9978
    endloop
  endfacet
  facet normal -0.809017 -0.415627 -0.415627
    outer loop
      vertex -14.5 14.4957 14.3744
      vertex -14.5 12.3744 16.4957
      vertex -15.5365 15.5044 15.3831
    endloop
  endfacet
  facet normal -0.809017 -0.415627 -0.415627
    outer loop
      vertex -15.5365 15.5044 15.3831
      vertex -14.5 12.3744 16.4957
      vertex -14.5364 12.4098 16.5311
    endloop
  endfacet
  facet normal -0.809017 -0.415627 -0.415627
    outer loop
      vertex -15.5365 15.5044 15.3831
      vertex -14.5364 12.4098 16.5311
      vertex -15.5365 13.3831 17.5044
    endloop
  endfacet
  facet normal 0.309017 -0.672498 -0.672498
    outer loop
      vertex -17.2135 15.1191 14.9978
      vertex -15.5365 15.5044 15.3831
      vertex -15.5365 13.3831 17.5044
    endloop
  endfacet
  facet normal 0.309017 -0.672498 -0.672498
    outer loop
      vertex -17.2135 12.9978 17.1191
      vertex -17.2135 15.1191 14.9978
      vertex -15.5365 13.3831 17.5044
    endloop
  endfacet
  facet normal 1 0 0
    outer loop
      vertex -17.2135 11.7509 15.8722
      vertex -17.2135 13.8722 13.7509
      vertex -17.2135 15.1191 14.9978
    endloop
  endfacet
  facet normal 1 0 0
    outer loop
      vertex -17.2135 12.4098 16.5311
      vertex -17.2135 11.7509 15.8722
      vertex -17.2135 12.9978 17.1191
    endloop
  endfacet
  facet normal 1 0 0
    outer loop
      vertex -17.2135 12.9978 17.1191
      vertex -17.2135 11.7509 15.8722
      vertex -17.2135 15.1191 14.9978
    endloop
  endfacet
  facet normal 0.309017 0.672498 0.672498
    outer loop
      vertex -15.5365 13.4869 13.3656
      vertex -17.2135 13.8722 13.7509
      vertex -15.5365 11.3656 15.4869
    endloop
  endfacet
  facet normal 0.309017 0.672498 0.672498
    outer loop
      vertex -15.5365 11.3656 15.4869
      vertex -17.2135 13.8722 13.7509
      vertex -17.2135 11.7509 15.8722
    endloop
  endfacet
  facet normal -0.809017 0.415627 0.415627
    outer loop
      vertex -14.5 14.4957 14.3744
      vertex -15.5365 13.4869 13.3656
      vertex -14.5 12.3744 16.4957
    endloop
  endfacet
  facet normal -0.809017 0.415627 0.415627
    outer loop
      vertex -14.5 12.3744 16.4957
      vertex -15.5365 13.4869 13.3656
      vertex -15.5365 11.3656 15.4869
    endloop
  endfacet
  facet normal 0.309017 0.672498 0.672498
    outer loop
      vertex 16.4635 13.4869 13.3656
      vertex 14.7865 13.8722 13.7509
      vertex 16.4635 11.3656 15.4869
    endloop
  endfacet
  facet normal 0.309017 0.672498 0.672498
    outer loop
      vertex 16.4635 11.3656 15.4869
      vertex 14.7865 13.8722 13.7509
      vertex 14.7865 11.7509 15.8722
    endloop
  endfacet
  facet normal -0.809017 0.415627 0.415627
    outer loop
      vertex 17.5 14.4957 14.3744
      vertex 16.4635 13.4869 13.3656
      vertex 17.5 12.3744 16.4957
    endloop
  endfacet
  facet normal -0.809017 0.415627 0.415627
    outer loop
      vertex 17.5 12.3744 16.4957
      vertex 16.4635 13.4869 13.3656
      vertex 16.4635 11.3656 15.4869
    endloop
  endfacet
endsolid OpenSCAD_Model
