solid OpenSCAD_Model
  facet normal 0 -1 1.22461e-016
    outer loop
      vertex -6 -22.5 6.35
      vertex -6 -22.5 2.75536e-015
      vertex 0 -22.5 2.75536e-015
    endloop
  endfacet
  facet normal 0 -1 1.22461e-016
    outer loop
      vertex 0 -22.5 6.35
      vertex -6 -22.5 6.35
      vertex 0 -22.5 2.75536e-015
    endloop
  endfacet
  facet normal 0 -1.22461e-016 -1
    outer loop
      vertex -6 -22.5 2.75536e-015
      vertex -6 -16.5 2.0206e-015
      vertex 0 -22.5 2.75536e-015
    endloop
  endfacet
  facet normal 0 -1.22461e-016 -1
    outer loop
      vertex 0 -22.5 2.75536e-015
      vertex -6 -16.5 2.0206e-015
      vertex 0 -16.5 2.0206e-015
    endloop
  endfacet
  facet normal 0 -1.22461e-016 -1
    outer loop
      vertex 0 -16.5 2.0206e-015
      vertex 0 -7.77625e-016 0
      vertex 12.2 -7.77625e-016 0
    endloop
  endfacet
  facet normal 0 -1.22461e-016 -1
    outer loop
      vertex 0 -16.5 2.0206e-015
      vertex 12.2 -7.77625e-016 0
      vertex 0 -22.5 2.75536e-015
    endloop
  endfacet
  facet normal 0 -1.22461e-016 -1
    outer loop
      vertex 22.2591 4.88904 -5.98715e-016
      vertex 12.2 5.8 -7.10272e-016
      vertex 31.9 5.8 -7.10272e-016
    endloop
  endfacet
  facet normal 0 -1.22461e-016 -1
    outer loop
      vertex 10.75 -8 9.79685e-016
      vertex 45 -7.77625e-016 0
      vertex 34.25 -8 9.79685e-016
    endloop
  endfacet
  facet normal 0 -1.22461e-016 -1
    outer loop
      vertex 9 -12.951 1.58598e-015
      vertex 8.71352 -12.8234 1.57036e-015
      vertex 10.75 -8 9.79685e-016
    endloop
  endfacet
  facet normal 0 -1.22461e-016 -1
    outer loop
      vertex 34.25 -8 9.79685e-016
      vertex 45 -7.77625e-016 0
      vertex 45 -19 2.32675e-015
    endloop
  endfacet
  facet normal 0 -1.22461e-016 -1
    outer loop
      vertex 34.25 -20.5 2.51044e-015
      vertex 45 -19 2.32675e-015
      vertex 25 -28.5 3.49013e-015
    endloop
  endfacet
  facet normal 0 -1.22461e-016 -1
    outer loop
      vertex 7.78647 -15.6766 1.91976e-015
      vertex 0 -22.5 2.75536e-015
      vertex 7.5 -15.549 1.90415e-015
    endloop
  endfacet
  facet normal 0 -1.22461e-016 -1
    outer loop
      vertex 7.03647 -13.3683 1.63709e-015
      vertex 12.2 -7.77625e-016 0
      vertex 7.2463 -13.1353 1.60856e-015
    endloop
  endfacet
  facet normal 0 -1.22461e-016 -1
    outer loop
      vertex 6.78278 -13.9381 1.70687e-015
      vertex 6.75 -14.25 1.74506e-015
      vertex 0 -22.5 2.75536e-015
    endloop
  endfacet
  facet normal 0 -1.22461e-016 -1
    outer loop
      vertex 10.75 -20.5 2.51044e-015
      vertex 9 -15.549 1.90415e-015
      vertex 9.2537 -15.3647 1.88157e-015
    endloop
  endfacet
  facet normal 0 -1.22461e-016 -1
    outer loop
      vertex 6.75 -14.25 1.74506e-015
      vertex 6.78278 -14.5619 1.78326e-015
      vertex 0 -22.5 2.75536e-015
    endloop
  endfacet
  facet normal 0 -1.22461e-016 -1
    outer loop
      vertex 10.75 -20.5 2.51044e-015
      vertex 9.2537 -15.3647 1.88157e-015
      vertex 9.46352 -15.1317 1.85303e-015
    endloop
  endfacet
  facet normal 0 -1.22461e-016 -1
    outer loop
      vertex 6.78278 -14.5619 1.78326e-015
      vertex 6.87968 -14.8601 1.81978e-015
      vertex 0 -22.5 2.75536e-015
    endloop
  endfacet
  facet normal 0 -1.22461e-016 -1
    outer loop
      vertex 10.75 -20.5 2.51044e-015
      vertex 9.46352 -15.1317 1.85303e-015
      vertex 9.62032 -14.8601 1.81978e-015
    endloop
  endfacet
  facet normal 0 -1.22461e-016 -1
    outer loop
      vertex 6.87968 -14.8601 1.81978e-015
      vertex 7.03647 -15.1317 1.85303e-015
      vertex 0 -22.5 2.75536e-015
    endloop
  endfacet
  facet normal 0 -1.22461e-016 -1
    outer loop
      vertex 10.75 -20.5 2.51044e-015
      vertex 9.62032 -14.8601 1.81978e-015
      vertex 9.71722 -14.5619 1.78326e-015
    endloop
  endfacet
  facet normal 0 -1.22461e-016 -1
    outer loop
      vertex 7.03647 -15.1317 1.85303e-015
      vertex 7.2463 -15.3647 1.88157e-015
      vertex 0 -22.5 2.75536e-015
    endloop
  endfacet
  facet normal 0 -1.22461e-016 -1
    outer loop
      vertex 10.75 -20.5 2.51044e-015
      vertex 9.71722 -14.5619 1.78326e-015
      vertex 9.75 -14.25 1.74506e-015
    endloop
  endfacet
  facet normal 0 -1.22461e-016 -1
    outer loop
      vertex 7.2463 -15.3647 1.88157e-015
      vertex 7.5 -15.549 1.90415e-015
      vertex 0 -22.5 2.75536e-015
    endloop
  endfacet
  facet normal 0 -1.22461e-016 -1
    outer loop
      vertex 10.75 -20.5 2.51044e-015
      vertex 9.75 -14.25 1.74506e-015
      vertex 9.71722 -13.9381 1.70687e-015
    endloop
  endfacet
  facet normal 0 -1.22461e-016 -1
    outer loop
      vertex 0 -22.5 2.75536e-015
      vertex 7.78647 -15.6766 1.91976e-015
      vertex 8.09321 -15.7418 1.92775e-015
    endloop
  endfacet
  facet normal 0 -1.22461e-016 -1
    outer loop
      vertex 0 -22.5 2.75536e-015
      vertex 8.09321 -15.7418 1.92775e-015
      vertex 8.40679 -15.7418 1.92775e-015
    endloop
  endfacet
  facet normal 0 -1.22461e-016 -1
    outer loop
      vertex 0 -22.5 2.75536e-015
      vertex 8.40679 -15.7418 1.92775e-015
      vertex 8.71352 -15.6766 1.91976e-015
    endloop
  endfacet
  facet normal 0 -1.22461e-016 -1
    outer loop
      vertex 0 -22.5 2.75536e-015
      vertex 8.71352 -15.6766 1.91976e-015
      vertex 9 -15.549 1.90415e-015
    endloop
  endfacet
  facet normal 0 -1.22461e-016 -1
    outer loop
      vertex 10.75 -20.5 2.51044e-015
      vertex 9.71722 -13.9381 1.70687e-015
      vertex 10.75 -8 9.79685e-016
    endloop
  endfacet
  facet normal 0 -1.22461e-016 -1
    outer loop
      vertex 9.62032 -13.6399 1.67035e-015
      vertex 9.46352 -13.3683 1.63709e-015
      vertex 10.75 -8 9.79685e-016
    endloop
  endfacet
  facet normal 0 -1.22461e-016 -1
    outer loop
      vertex 9.46352 -13.3683 1.63709e-015
      vertex 9.2537 -13.1353 1.60856e-015
      vertex 10.75 -8 9.79685e-016
    endloop
  endfacet
  facet normal 0 -1.22461e-016 -1
    outer loop
      vertex 9.2537 -13.1353 1.60856e-015
      vertex 9 -12.951 1.58598e-015
      vertex 10.75 -8 9.79685e-016
    endloop
  endfacet
  facet normal 0 -1.22461e-016 -1
    outer loop
      vertex 8.71352 -12.8234 1.57036e-015
      vertex 8.40679 -12.7582 1.56238e-015
      vertex 10.75 -8 9.79685e-016
    endloop
  endfacet
  facet normal 0 -1.22461e-016 -1
    outer loop
      vertex 9.71722 -13.9381 1.70687e-015
      vertex 9.62032 -13.6399 1.67035e-015
      vertex 10.75 -8 9.79685e-016
    endloop
  endfacet
  facet normal 0 -1.22461e-016 -1
    outer loop
      vertex 10.75 -20.5 2.51044e-015
      vertex 0 -22.5 2.75536e-015
      vertex 9 -15.549 1.90415e-015
    endloop
  endfacet
  facet normal 0 -1.22461e-016 -1
    outer loop
      vertex 12.2 -7.77625e-016 0
      vertex 8.40679 -12.7582 1.56238e-015
      vertex 8.09321 -12.7582 1.56238e-015
    endloop
  endfacet
  facet normal 0 -1.22461e-016 -1
    outer loop
      vertex 12.2 -7.77625e-016 0
      vertex 8.09321 -12.7582 1.56238e-015
      vertex 7.78647 -12.8234 1.57036e-015
    endloop
  endfacet
  facet normal 0 -1.22461e-016 -1
    outer loop
      vertex 12.2 -7.77625e-016 0
      vertex 7.78647 -12.8234 1.57036e-015
      vertex 7.5 -12.951 1.58598e-015
    endloop
  endfacet
  facet normal 0 -1.22461e-016 -1
    outer loop
      vertex 12.2 -7.77625e-016 0
      vertex 7.5 -12.951 1.58598e-015
      vertex 7.2463 -13.1353 1.60856e-015
    endloop
  endfacet
  facet normal 0 -1.22461e-016 -1
    outer loop
      vertex 10.75 -8 9.79685e-016
      vertex 31.9 -7.77625e-016 0
      vertex 45 -7.77625e-016 0
    endloop
  endfacet
  facet normal 0 -1.22461e-016 -1
    outer loop
      vertex 10.75 -8 9.79685e-016
      vertex 31.9 5.8 -7.10272e-016
      vertex 31.9 -7.77625e-016 0
    endloop
  endfacet
  facet normal 0 -1.22461e-016 -1
    outer loop
      vertex 12.2 -7.77625e-016 0
      vertex 7.03647 -13.3683 1.63709e-015
      vertex 0 -22.5 2.75536e-015
    endloop
  endfacet
  facet normal 0 -1.22461e-016 -1
    outer loop
      vertex 7.03647 -13.3683 1.63709e-015
      vertex 6.87968 -13.6399 1.67035e-015
      vertex 0 -22.5 2.75536e-015
    endloop
  endfacet
  facet normal 0 -1.22461e-016 -1
    outer loop
      vertex 6.87968 -13.6399 1.67035e-015
      vertex 6.78278 -13.9381 1.70687e-015
      vertex 0 -22.5 2.75536e-015
    endloop
  endfacet
  facet normal 0 -1.22461e-016 -1
    outer loop
      vertex 23.05 1.16795 -1.43028e-016
      vertex 31.9 5.8 -7.10272e-016
      vertex 10.75 -8 9.79685e-016
    endloop
  endfacet
  facet normal 0 -1.22461e-016 -1
    outer loop
      vertex 12.2 -7.77625e-016 0
      vertex 10.75 -8 9.79685e-016
      vertex 8.40679 -12.7582 1.56238e-015
    endloop
  endfacet
  facet normal 0 -1.22461e-016 -1
    outer loop
      vertex 36.2865 -15.6766 1.91976e-015
      vertex 45 -19 2.32675e-015
      vertex 34.25 -20.5 2.51044e-015
    endloop
  endfacet
  facet normal 0 -1.22461e-016 -1
    outer loop
      vertex 34.25 -8 9.79685e-016
      vertex 35.25 -14.25 1.74506e-015
      vertex 35.2828 -14.5619 1.78326e-015
    endloop
  endfacet
  facet normal 0 -1.22461e-016 -1
    outer loop
      vertex 0 -22.5 2.75536e-015
      vertex 34.25 -20.5 2.51044e-015
      vertex 25 -28.5 3.49013e-015
    endloop
  endfacet
  facet normal 0 -1.22461e-016 -1
    outer loop
      vertex 37.9635 -13.3683 1.63709e-015
      vertex 34.25 -8 9.79685e-016
      vertex 45 -19 2.32675e-015
    endloop
  endfacet
  facet normal 0 -1.22461e-016 -1
    outer loop
      vertex 12.2 -7.77625e-016 0
      vertex 12.2 5.8 -7.10272e-016
      vertex 20.05 2.9 -3.55136e-016
    endloop
  endfacet
  facet normal 0 -1.22461e-016 -1
    outer loop
      vertex 12.2 -7.77625e-016 0
      vertex 20.05 2.9 -3.55136e-016
      vertex 20.0937 2.48418 -3.04214e-016
    endloop
  endfacet
  facet normal 0 -1.22461e-016 -1
    outer loop
      vertex 23.8771 3.71347 -4.54754e-016
      vertex 31.9 5.8 -7.10272e-016
      vertex 24.0063 3.31582 -4.06058e-016
    endloop
  endfacet
  facet normal 0 -1.22461e-016 -1
    outer loop
      vertex 12.2 -7.77625e-016 0
      vertex 20.2229 2.08653 -2.55517e-016
      vertex 10.75 -8 9.79685e-016
    endloop
  endfacet
  facet normal 0 -1.22461e-016 -1
    outer loop
      vertex 20.2229 2.08653 -2.55517e-016
      vertex 20.432 1.72443 -2.11175e-016
      vertex 10.75 -8 9.79685e-016
    endloop
  endfacet
  facet normal 0 -1.22461e-016 -1
    outer loop
      vertex 24.0063 3.31582 -4.06058e-016
      vertex 31.9 5.8 -7.10272e-016
      vertex 24.05 2.9 -3.55136e-016
    endloop
  endfacet
  facet normal 0 -1.22461e-016 -1
    outer loop
      vertex 20.432 1.72443 -2.11175e-016
      vertex 20.7117 1.41371 -1.73124e-016
      vertex 10.75 -8 9.79685e-016
    endloop
  endfacet
  facet normal 0 -1.22461e-016 -1
    outer loop
      vertex 24.05 2.9 -3.55136e-016
      vertex 31.9 5.8 -7.10272e-016
      vertex 24.0063 2.48418 -3.04214e-016
    endloop
  endfacet
  facet normal 0 -1.22461e-016 -1
    outer loop
      vertex 20.7117 1.41371 -1.73124e-016
      vertex 21.05 1.16795 -1.43028e-016
      vertex 10.75 -8 9.79685e-016
    endloop
  endfacet
  facet normal 0 -1.22461e-016 -1
    outer loop
      vertex 21.05 1.16795 -1.43028e-016
      vertex 21.432 0.997887 -1.22202e-016
      vertex 10.75 -8 9.79685e-016
    endloop
  endfacet
  facet normal 0 -1.22461e-016 -1
    outer loop
      vertex 24.0063 2.48418 -3.04214e-016
      vertex 31.9 5.8 -7.10272e-016
      vertex 23.8771 2.08653 -2.55517e-016
    endloop
  endfacet
  facet normal 0 -1.22461e-016 -1
    outer loop
      vertex 21.432 0.997887 -1.22202e-016
      vertex 21.8409 0.910956 -1.11556e-016
      vertex 10.75 -8 9.79685e-016
    endloop
  endfacet
  facet normal 0 -1.22461e-016 -1
    outer loop
      vertex 23.8771 2.08653 -2.55517e-016
      vertex 31.9 5.8 -7.10272e-016
      vertex 23.668 1.72443 -2.11175e-016
    endloop
  endfacet
  facet normal 0 -1.22461e-016 -1
    outer loop
      vertex 21.8409 0.910956 -1.11556e-016
      vertex 22.2591 0.910956 -1.11556e-016
      vertex 10.75 -8 9.79685e-016
    endloop
  endfacet
  facet normal 0 -1.22461e-016 -1
    outer loop
      vertex 23.668 1.72443 -2.11175e-016
      vertex 31.9 5.8 -7.10272e-016
      vertex 23.3883 1.41371 -1.73124e-016
    endloop
  endfacet
  facet normal 0 -1.22461e-016 -1
    outer loop
      vertex 22.2591 0.910956 -1.11556e-016
      vertex 22.668 0.997887 -1.22202e-016
      vertex 10.75 -8 9.79685e-016
    endloop
  endfacet
  facet normal 0 -1.22461e-016 -1
    outer loop
      vertex 22.668 0.997887 -1.22202e-016
      vertex 23.05 1.16795 -1.43028e-016
      vertex 10.75 -8 9.79685e-016
    endloop
  endfacet
  facet normal 0 -1.22461e-016 -1
    outer loop
      vertex 23.3883 1.41371 -1.73124e-016
      vertex 31.9 5.8 -7.10272e-016
      vertex 23.05 1.16795 -1.43028e-016
    endloop
  endfacet
  facet normal 0 -1.22461e-016 -1
    outer loop
      vertex 23.668 4.07557 -4.99097e-016
      vertex 31.9 5.8 -7.10272e-016
      vertex 23.8771 3.71347 -4.54754e-016
    endloop
  endfacet
  facet normal 0 -1.22461e-016 -1
    outer loop
      vertex 36.5932 -15.7418 1.92775e-015
      vertex 45 -19 2.32675e-015
      vertex 36.2865 -15.6766 1.91976e-015
    endloop
  endfacet
  facet normal 0 -1.22461e-016 -1
    outer loop
      vertex 21.432 4.80211 -5.8807e-016
      vertex 12.2 5.8 -7.10272e-016
      vertex 21.8409 4.88904 -5.98715e-016
    endloop
  endfacet
  facet normal 0 -1.22461e-016 -1
    outer loop
      vertex 20.7117 4.38629 -5.37148e-016
      vertex 12.2 5.8 -7.10272e-016
      vertex 21.05 4.63205 -5.67244e-016
    endloop
  endfacet
  facet normal 0 -1.22461e-016 -1
    outer loop
      vertex 23.668 4.07557 -4.99097e-016
      vertex 23.3883 4.38629 -5.37148e-016
      vertex 31.9 5.8 -7.10272e-016
    endloop
  endfacet
  facet normal 0 -1.22461e-016 -1
    outer loop
      vertex 21.05 4.63205 -5.67244e-016
      vertex 12.2 5.8 -7.10272e-016
      vertex 21.432 4.80211 -5.8807e-016
    endloop
  endfacet
  facet normal 0 -1.22461e-016 -1
    outer loop
      vertex 23.3883 4.38629 -5.37148e-016
      vertex 23.05 4.63205 -5.67244e-016
      vertex 31.9 5.8 -7.10272e-016
    endloop
  endfacet
  facet normal 0 -1.22461e-016 -1
    outer loop
      vertex 23.05 4.63205 -5.67244e-016
      vertex 22.668 4.80211 -5.8807e-016
      vertex 31.9 5.8 -7.10272e-016
    endloop
  endfacet
  facet normal 0 -1.22461e-016 -1
    outer loop
      vertex 21.8409 4.88904 -5.98715e-016
      vertex 12.2 5.8 -7.10272e-016
      vertex 22.2591 4.88904 -5.98715e-016
    endloop
  endfacet
  facet normal 0 -1.22461e-016 -1
    outer loop
      vertex 22.668 4.80211 -5.8807e-016
      vertex 22.2591 4.88904 -5.98715e-016
      vertex 31.9 5.8 -7.10272e-016
    endloop
  endfacet
  facet normal 0 -1.22461e-016 -1
    outer loop
      vertex 20.432 4.07557 -4.99097e-016
      vertex 12.2 5.8 -7.10272e-016
      vertex 20.7117 4.38629 -5.37148e-016
    endloop
  endfacet
  facet normal 0 -1.22461e-016 -1
    outer loop
      vertex 20.2229 3.71347 -4.54754e-016
      vertex 12.2 5.8 -7.10272e-016
      vertex 20.432 4.07557 -4.99097e-016
    endloop
  endfacet
  facet normal 0 -1.22461e-016 -1
    outer loop
      vertex 20.0937 3.31582 -4.06058e-016
      vertex 12.2 5.8 -7.10272e-016
      vertex 20.2229 3.71347 -4.54754e-016
    endloop
  endfacet
  facet normal 0 -1.22461e-016 -1
    outer loop
      vertex 20.05 2.9 -3.55136e-016
      vertex 12.2 5.8 -7.10272e-016
      vertex 20.0937 3.31582 -4.06058e-016
    endloop
  endfacet
  facet normal 0 -1.22461e-016 -1
    outer loop
      vertex 20.2229 2.08653 -2.55517e-016
      vertex 12.2 -7.77625e-016 0
      vertex 20.0937 2.48418 -3.04214e-016
    endloop
  endfacet
  facet normal 0 -1.22461e-016 -1
    outer loop
      vertex 36.9068 -15.7418 1.92775e-015
      vertex 45 -19 2.32675e-015
      vertex 36.5932 -15.7418 1.92775e-015
    endloop
  endfacet
  facet normal 0 -1.22461e-016 -1
    outer loop
      vertex 37.2135 -15.6766 1.91976e-015
      vertex 45 -19 2.32675e-015
      vertex 36.9068 -15.7418 1.92775e-015
    endloop
  endfacet
  facet normal 0 -1.22461e-016 -1
    outer loop
      vertex 37.5 -15.549 1.90415e-015
      vertex 45 -19 2.32675e-015
      vertex 37.2135 -15.6766 1.91976e-015
    endloop
  endfacet
  facet normal 0 -1.22461e-016 -1
    outer loop
      vertex 37.7537 -15.3647 1.88157e-015
      vertex 45 -19 2.32675e-015
      vertex 37.5 -15.549 1.90415e-015
    endloop
  endfacet
  facet normal 0 -1.22461e-016 -1
    outer loop
      vertex 37.7537 -13.1353 1.60856e-015
      vertex 34.25 -8 9.79685e-016
      vertex 37.9635 -13.3683 1.63709e-015
    endloop
  endfacet
  facet normal 0 -1.22461e-016 -1
    outer loop
      vertex 36.2865 -12.8234 1.57036e-015
      vertex 34.25 -8 9.79685e-016
      vertex 36.5932 -12.7582 1.56238e-015
    endloop
  endfacet
  facet normal 0 -1.22461e-016 -1
    outer loop
      vertex 37.7537 -15.3647 1.88157e-015
      vertex 37.9635 -15.1317 1.85303e-015
      vertex 45 -19 2.32675e-015
    endloop
  endfacet
  facet normal 0 -1.22461e-016 -1
    outer loop
      vertex 36.5932 -12.7582 1.56238e-015
      vertex 34.25 -8 9.79685e-016
      vertex 36.9068 -12.7582 1.56238e-015
    endloop
  endfacet
  facet normal 0 -1.22461e-016 -1
    outer loop
      vertex 37.9635 -15.1317 1.85303e-015
      vertex 38.1203 -14.8601 1.81978e-015
      vertex 45 -19 2.32675e-015
    endloop
  endfacet
  facet normal 0 -1.22461e-016 -1
    outer loop
      vertex 38.1203 -14.8601 1.81978e-015
      vertex 38.2172 -14.5619 1.78326e-015
      vertex 45 -19 2.32675e-015
    endloop
  endfacet
  facet normal 0 -1.22461e-016 -1
    outer loop
      vertex 36.9068 -12.7582 1.56238e-015
      vertex 34.25 -8 9.79685e-016
      vertex 37.2135 -12.8234 1.57036e-015
    endloop
  endfacet
  facet normal 0 -1.22461e-016 -1
    outer loop
      vertex 38.2172 -14.5619 1.78326e-015
      vertex 38.25 -14.25 1.74506e-015
      vertex 45 -19 2.32675e-015
    endloop
  endfacet
  facet normal 0 -1.22461e-016 -1
    outer loop
      vertex 37.2135 -12.8234 1.57036e-015
      vertex 34.25 -8 9.79685e-016
      vertex 37.5 -12.951 1.58598e-015
    endloop
  endfacet
  facet normal 0 -1.22461e-016 -1
    outer loop
      vertex 38.25 -14.25 1.74506e-015
      vertex 38.2172 -13.9381 1.70687e-015
      vertex 45 -19 2.32675e-015
    endloop
  endfacet
  facet normal 0 -1.22461e-016 -1
    outer loop
      vertex 37.5 -12.951 1.58598e-015
      vertex 34.25 -8 9.79685e-016
      vertex 37.7537 -13.1353 1.60856e-015
    endloop
  endfacet
  facet normal 0 -1.22461e-016 -1
    outer loop
      vertex 38.2172 -13.9381 1.70687e-015
      vertex 38.1203 -13.6399 1.67035e-015
      vertex 45 -19 2.32675e-015
    endloop
  endfacet
  facet normal 0 -1.22461e-016 -1
    outer loop
      vertex 38.1203 -13.6399 1.67035e-015
      vertex 37.9635 -13.3683 1.63709e-015
      vertex 45 -19 2.32675e-015
    endloop
  endfacet
  facet normal 0 -1.22461e-016 -1
    outer loop
      vertex 36 -12.951 1.58598e-015
      vertex 34.25 -8 9.79685e-016
      vertex 36.2865 -12.8234 1.57036e-015
    endloop
  endfacet
  facet normal 0 -1.22461e-016 -1
    outer loop
      vertex 35.7463 -13.1353 1.60856e-015
      vertex 34.25 -8 9.79685e-016
      vertex 36 -12.951 1.58598e-015
    endloop
  endfacet
  facet normal 0 -1.22461e-016 -1
    outer loop
      vertex 35.5365 -13.3683 1.63709e-015
      vertex 34.25 -8 9.79685e-016
      vertex 35.7463 -13.1353 1.60856e-015
    endloop
  endfacet
  facet normal 0 -1.22461e-016 -1
    outer loop
      vertex 35.3797 -13.6399 1.67035e-015
      vertex 34.25 -8 9.79685e-016
      vertex 35.5365 -13.3683 1.63709e-015
    endloop
  endfacet
  facet normal 0 -1.22461e-016 -1
    outer loop
      vertex 35.2828 -13.9381 1.70687e-015
      vertex 34.25 -8 9.79685e-016
      vertex 35.3797 -13.6399 1.67035e-015
    endloop
  endfacet
  facet normal 0 -1.22461e-016 -1
    outer loop
      vertex 35.25 -14.25 1.74506e-015
      vertex 34.25 -8 9.79685e-016
      vertex 35.2828 -13.9381 1.70687e-015
    endloop
  endfacet
  facet normal 0 -1.22461e-016 -1
    outer loop
      vertex 0 -22.5 2.75536e-015
      vertex 25 -28.5 3.49013e-015
      vertex 0 -28.5 3.49013e-015
    endloop
  endfacet
  facet normal 0 -1.22461e-016 -1
    outer loop
      vertex 34.25 -20.5 2.51044e-015
      vertex 0 -22.5 2.75536e-015
      vertex 10.75 -20.5 2.51044e-015
    endloop
  endfacet
  facet normal 0 -1.22461e-016 -1
    outer loop
      vertex 36 -15.549 1.90415e-015
      vertex 36.2865 -15.6766 1.91976e-015
      vertex 34.25 -20.5 2.51044e-015
    endloop
  endfacet
  facet normal 0 -1.22461e-016 -1
    outer loop
      vertex 35.7463 -15.3647 1.88157e-015
      vertex 36 -15.549 1.90415e-015
      vertex 34.25 -20.5 2.51044e-015
    endloop
  endfacet
  facet normal 0 -1.22461e-016 -1
    outer loop
      vertex 35.5365 -15.1317 1.85303e-015
      vertex 35.7463 -15.3647 1.88157e-015
      vertex 34.25 -20.5 2.51044e-015
    endloop
  endfacet
  facet normal 0 -1.22461e-016 -1
    outer loop
      vertex 35.3797 -14.8601 1.81978e-015
      vertex 35.5365 -15.1317 1.85303e-015
      vertex 34.25 -20.5 2.51044e-015
    endloop
  endfacet
  facet normal 0 -1.22461e-016 -1
    outer loop
      vertex 35.2828 -14.5619 1.78326e-015
      vertex 35.3797 -14.8601 1.81978e-015
      vertex 34.25 -20.5 2.51044e-015
    endloop
  endfacet
  facet normal 0 -1.22461e-016 -1
    outer loop
      vertex 34.25 -8 9.79685e-016
      vertex 35.2828 -14.5619 1.78326e-015
      vertex 34.25 -20.5 2.51044e-015
    endloop
  endfacet
  facet normal -1 0 0
    outer loop
      vertex -6 -22.5 2.75536e-015
      vertex -6 -22.5 6.35
      vertex -6 -16.5 2.0206e-015
    endloop
  endfacet
  facet normal -1 0 0
    outer loop
      vertex -6 -16.5 2.0206e-015
      vertex -6 -22.5 6.35
      vertex -6 -16.5 6.35
    endloop
  endfacet
  facet normal 0 1.22461e-016 1
    outer loop
      vertex 36.2865 -15.6766 6.35
      vertex 45 -19 6.35
      vertex 36.5932 -15.7418 6.35
    endloop
  endfacet
  facet normal 0 1.22461e-016 1
    outer loop
      vertex -6 -16.5 6.35
      vertex -6 -22.5 6.35
      vertex 0 -22.5 6.35
    endloop
  endfacet
  facet normal 0 1.22461e-016 1
    outer loop
      vertex 25 -28.5 6.35
      vertex -6 -16.5 6.35
      vertex 0 -22.5 6.35
    endloop
  endfacet
  facet normal 0 1.22461e-016 1
    outer loop
      vertex 0 -28.5 6.35
      vertex 25 -28.5 6.35
      vertex 0 -22.5 6.35
    endloop
  endfacet
  facet normal 0 1.22461e-016 1
    outer loop
      vertex 8.40679 -12.7582 6.35
      vertex 10.75 -8 6.35
      vertex 8.09321 -12.7582 6.35
    endloop
  endfacet
  facet normal 0 1.22461e-016 1
    outer loop
      vertex 20.0937 2.48418 6.35
      vertex 12.2 5.8 6.35
      vertex 12.2 0 6.35
    endloop
  endfacet
  facet normal 0 1.22461e-016 1
    outer loop
      vertex 6.87968 -14.8601 6.35
      vertex 6.78278 -14.5619 6.35
      vertex 0 -16.5 6.35
    endloop
  endfacet
  facet normal 0 1.22461e-016 1
    outer loop
      vertex 6.78278 -14.5619 6.35
      vertex 6.75 -14.25 6.35
      vertex 0 -16.5 6.35
    endloop
  endfacet
  facet normal 0 1.22461e-016 1
    outer loop
      vertex 6.75 -14.25 6.35
      vertex 6.78278 -13.9381 6.35
      vertex 0 -16.5 6.35
    endloop
  endfacet
  facet normal 0 1.22461e-016 1
    outer loop
      vertex 36.2865 -15.6766 6.35
      vertex 34.25 -20.5 6.35
      vertex 45 -19 6.35
    endloop
  endfacet
  facet normal 0 1.22461e-016 1
    outer loop
      vertex 36 -15.549 6.35
      vertex 34.25 -20.5 6.35
      vertex 36.2865 -15.6766 6.35
    endloop
  endfacet
  facet normal 0 1.22461e-016 1
    outer loop
      vertex 35.7463 -15.3647 6.35
      vertex 34.25 -20.5 6.35
      vertex 36 -15.549 6.35
    endloop
  endfacet
  facet normal 0 1.22461e-016 1
    outer loop
      vertex 35.5365 -15.1317 6.35
      vertex 34.25 -20.5 6.35
      vertex 35.7463 -15.3647 6.35
    endloop
  endfacet
  facet normal 0 1.22461e-016 1
    outer loop
      vertex 35.3797 -14.8601 6.35
      vertex 34.25 -20.5 6.35
      vertex 35.5365 -15.1317 6.35
    endloop
  endfacet
  facet normal 0 1.22461e-016 1
    outer loop
      vertex 8.09321 -15.7418 6.35
      vertex 7.78647 -15.6766 6.35
      vertex 0 -16.5 6.35
    endloop
  endfacet
  facet normal 0 1.22461e-016 1
    outer loop
      vertex 35.2828 -14.5619 6.35
      vertex 34.25 -20.5 6.35
      vertex 35.3797 -14.8601 6.35
    endloop
  endfacet
  facet normal 0 1.22461e-016 1
    outer loop
      vertex 34.25 -8 6.35
      vertex 34.25 -20.5 6.35
      vertex 35.2828 -14.5619 6.35
    endloop
  endfacet
  facet normal 0 1.22461e-016 1
    outer loop
      vertex 7.5 -15.549 6.35
      vertex 7.2463 -15.3647 6.35
      vertex 0 -16.5 6.35
    endloop
  endfacet
  facet normal 0 1.22461e-016 1
    outer loop
      vertex 7.78647 -15.6766 6.35
      vertex 7.5 -15.549 6.35
      vertex 0 -16.5 6.35
    endloop
  endfacet
  facet normal 0 1.22461e-016 1
    outer loop
      vertex 8.40679 -15.7418 6.35
      vertex 8.09321 -15.7418 6.35
      vertex 0 -16.5 6.35
    endloop
  endfacet
  facet normal 0 1.22461e-016 1
    outer loop
      vertex 10.75 -8 6.35
      vertex 34.25 -8 6.35
      vertex 45 0 6.35
    endloop
  endfacet
  facet normal 0 1.22461e-016 1
    outer loop
      vertex 7.2463 -15.3647 6.35
      vertex 7.03647 -15.1317 6.35
      vertex 0 -16.5 6.35
    endloop
  endfacet
  facet normal 0 1.22461e-016 1
    outer loop
      vertex 7.03647 -15.1317 6.35
      vertex 6.87968 -14.8601 6.35
      vertex 0 -16.5 6.35
    endloop
  endfacet
  facet normal 0 1.22461e-016 1
    outer loop
      vertex 25 -28.5 6.35
      vertex 10.75 -20.5 6.35
      vertex -6 -16.5 6.35
    endloop
  endfacet
  facet normal 0 1.22461e-016 1
    outer loop
      vertex 31.9 0 6.35
      vertex 31.9 5.8 6.35
      vertex 10.75 -8 6.35
    endloop
  endfacet
  facet normal 0 1.22461e-016 1
    outer loop
      vertex 45 -19 6.35
      vertex 45 0 6.35
      vertex 34.25 -8 6.35
    endloop
  endfacet
  facet normal 0 1.22461e-016 1
    outer loop
      vertex 25 -28.5 6.35
      vertex 34.25 -20.5 6.35
      vertex 10.75 -20.5 6.35
    endloop
  endfacet
  facet normal 0 1.22461e-016 1
    outer loop
      vertex 25 -28.5 6.35
      vertex 45 -19 6.35
      vertex 34.25 -20.5 6.35
    endloop
  endfacet
  facet normal 0 1.22461e-016 1
    outer loop
      vertex 20.05 2.9 6.35
      vertex 12.2 5.8 6.35
      vertex 20.0937 2.48418 6.35
    endloop
  endfacet
  facet normal 0 1.22461e-016 1
    outer loop
      vertex 20.0937 3.31582 6.35
      vertex 12.2 5.8 6.35
      vertex 20.05 2.9 6.35
    endloop
  endfacet
  facet normal 0 1.22461e-016 1
    outer loop
      vertex 23.8771 3.71347 6.35
      vertex 24.0063 3.31582 6.35
      vertex 31.9 5.8 6.35
    endloop
  endfacet
  facet normal 0 1.22461e-016 1
    outer loop
      vertex 20.2229 3.71347 6.35
      vertex 12.2 5.8 6.35
      vertex 20.0937 3.31582 6.35
    endloop
  endfacet
  facet normal 0 1.22461e-016 1
    outer loop
      vertex 20.432 4.07557 6.35
      vertex 12.2 5.8 6.35
      vertex 20.2229 3.71347 6.35
    endloop
  endfacet
  facet normal 0 1.22461e-016 1
    outer loop
      vertex 20.7117 4.38629 6.35
      vertex 12.2 5.8 6.35
      vertex 20.432 4.07557 6.35
    endloop
  endfacet
  facet normal 0 1.22461e-016 1
    outer loop
      vertex 21.05 4.63205 6.35
      vertex 12.2 5.8 6.35
      vertex 20.7117 4.38629 6.35
    endloop
  endfacet
  facet normal 0 1.22461e-016 1
    outer loop
      vertex 21.432 4.80211 6.35
      vertex 12.2 5.8 6.35
      vertex 21.05 4.63205 6.35
    endloop
  endfacet
  facet normal 0 1.22461e-016 1
    outer loop
      vertex 22.668 4.80211 6.35
      vertex 23.05 4.63205 6.35
      vertex 31.9 5.8 6.35
    endloop
  endfacet
  facet normal 0 1.22461e-016 1
    outer loop
      vertex 21.8409 4.88904 6.35
      vertex 12.2 5.8 6.35
      vertex 21.432 4.80211 6.35
    endloop
  endfacet
  facet normal 0 1.22461e-016 1
    outer loop
      vertex 31.9 5.8 6.35
      vertex 12.2 5.8 6.35
      vertex 21.8409 4.88904 6.35
    endloop
  endfacet
  facet normal 0 1.22461e-016 1
    outer loop
      vertex 23.668 4.07557 6.35
      vertex 23.8771 3.71347 6.35
      vertex 31.9 5.8 6.35
    endloop
  endfacet
  facet normal 0 1.22461e-016 1
    outer loop
      vertex 31.9 5.8 6.35
      vertex 21.8409 4.88904 6.35
      vertex 22.2591 4.88904 6.35
    endloop
  endfacet
  facet normal 0 1.22461e-016 1
    outer loop
      vertex 23.05 4.63205 6.35
      vertex 23.3883 4.38629 6.35
      vertex 31.9 5.8 6.35
    endloop
  endfacet
  facet normal 0 1.22461e-016 1
    outer loop
      vertex 23.3883 4.38629 6.35
      vertex 23.668 4.07557 6.35
      vertex 31.9 5.8 6.35
    endloop
  endfacet
  facet normal 0 1.22461e-016 1
    outer loop
      vertex 38.2172 -13.9381 6.35
      vertex 38.25 -14.25 6.35
      vertex 45 -19 6.35
    endloop
  endfacet
  facet normal 0 1.22461e-016 1
    outer loop
      vertex 37.7537 -13.1353 6.35
      vertex 37.9635 -13.3683 6.35
      vertex 45 -19 6.35
    endloop
  endfacet
  facet normal 0 1.22461e-016 1
    outer loop
      vertex 10.75 -20.5 6.35
      vertex 9.71722 -13.9381 6.35
      vertex 9.75 -14.25 6.35
    endloop
  endfacet
  facet normal 0 1.22461e-016 1
    outer loop
      vertex 10.75 -20.5 6.35
      vertex 9.71722 -14.5619 6.35
      vertex 9.62032 -14.8601 6.35
    endloop
  endfacet
  facet normal 0 1.22461e-016 1
    outer loop
      vertex 31.9 5.8 6.35
      vertex 24.0063 3.31582 6.35
      vertex 24.05 2.9 6.35
    endloop
  endfacet
  facet normal 0 1.22461e-016 1
    outer loop
      vertex 10.75 -20.5 6.35
      vertex 9.46352 -15.1317 6.35
      vertex 9.2537 -15.3647 6.35
    endloop
  endfacet
  facet normal 0 1.22461e-016 1
    outer loop
      vertex 31.9 5.8 6.35
      vertex 24.05 2.9 6.35
      vertex 24.0063 2.48418 6.35
    endloop
  endfacet
  facet normal 0 1.22461e-016 1
    outer loop
      vertex 10.75 -20.5 6.35
      vertex 9 -15.549 6.35
      vertex 8.71352 -15.6766 6.35
    endloop
  endfacet
  facet normal 0 1.22461e-016 1
    outer loop
      vertex 31.9 5.8 6.35
      vertex 24.0063 2.48418 6.35
      vertex 23.8771 2.08653 6.35
    endloop
  endfacet
  facet normal 0 1.22461e-016 1
    outer loop
      vertex 10.75 -20.5 6.35
      vertex 8.40679 -15.7418 6.35
      vertex 0 -16.5 6.35
    endloop
  endfacet
  facet normal 0 1.22461e-016 1
    outer loop
      vertex 31.9 5.8 6.35
      vertex 23.8771 2.08653 6.35
      vertex 23.668 1.72443 6.35
    endloop
  endfacet
  facet normal 0 1.22461e-016 1
    outer loop
      vertex 31.9 5.8 6.35
      vertex 23.668 1.72443 6.35
      vertex 23.3883 1.41371 6.35
    endloop
  endfacet
  facet normal 0 1.22461e-016 1
    outer loop
      vertex 20.2229 2.08653 6.35
      vertex 20.0937 2.48418 6.35
      vertex 12.2 0 6.35
    endloop
  endfacet
  facet normal 0 1.22461e-016 1
    outer loop
      vertex 31.9 5.8 6.35
      vertex 23.3883 1.41371 6.35
      vertex 23.05 1.16795 6.35
    endloop
  endfacet
  facet normal 0 1.22461e-016 1
    outer loop
      vertex 10.75 -20.5 6.35
      vertex 0 -16.5 6.35
      vertex -6 -16.5 6.35
    endloop
  endfacet
  facet normal 0 1.22461e-016 1
    outer loop
      vertex 10.75 -20.5 6.35
      vertex 8.71352 -15.6766 6.35
      vertex 8.40679 -15.7418 6.35
    endloop
  endfacet
  facet normal 0 1.22461e-016 1
    outer loop
      vertex 10.75 -20.5 6.35
      vertex 9.2537 -15.3647 6.35
      vertex 9 -15.549 6.35
    endloop
  endfacet
  facet normal 0 1.22461e-016 1
    outer loop
      vertex 10.75 -20.5 6.35
      vertex 9.62032 -14.8601 6.35
      vertex 9.46352 -15.1317 6.35
    endloop
  endfacet
  facet normal 0 1.22461e-016 1
    outer loop
      vertex 10.75 -20.5 6.35
      vertex 9.75 -14.25 6.35
      vertex 9.71722 -14.5619 6.35
    endloop
  endfacet
  facet normal 0 1.22461e-016 1
    outer loop
      vertex 8.09321 -12.7582 6.35
      vertex 10.75 -8 6.35
      vertex 7.78647 -12.8234 6.35
    endloop
  endfacet
  facet normal 0 1.22461e-016 1
    outer loop
      vertex 20.432 1.72443 6.35
      vertex 12.2 0 6.35
      vertex 20.7117 1.41371 6.35
    endloop
  endfacet
  facet normal 0 1.22461e-016 1
    outer loop
      vertex 20.2229 2.08653 6.35
      vertex 12.2 0 6.35
      vertex 20.432 1.72443 6.35
    endloop
  endfacet
  facet normal 0 1.22461e-016 1
    outer loop
      vertex 22.2591 4.88904 6.35
      vertex 22.668 4.80211 6.35
      vertex 31.9 5.8 6.35
    endloop
  endfacet
  facet normal 0 1.22461e-016 1
    outer loop
      vertex 35.25 -14.25 6.35
      vertex 34.25 -8 6.35
      vertex 35.2828 -14.5619 6.35
    endloop
  endfacet
  facet normal 0 1.22461e-016 1
    outer loop
      vertex 35.2828 -13.9381 6.35
      vertex 34.25 -8 6.35
      vertex 35.25 -14.25 6.35
    endloop
  endfacet
  facet normal 0 1.22461e-016 1
    outer loop
      vertex 35.3797 -13.6399 6.35
      vertex 34.25 -8 6.35
      vertex 35.2828 -13.9381 6.35
    endloop
  endfacet
  facet normal 0 1.22461e-016 1
    outer loop
      vertex 35.5365 -13.3683 6.35
      vertex 34.25 -8 6.35
      vertex 35.3797 -13.6399 6.35
    endloop
  endfacet
  facet normal 0 1.22461e-016 1
    outer loop
      vertex 37.9635 -15.1317 6.35
      vertex 37.7537 -15.3647 6.35
      vertex 45 -19 6.35
    endloop
  endfacet
  facet normal 0 1.22461e-016 1
    outer loop
      vertex 35.7463 -13.1353 6.35
      vertex 34.25 -8 6.35
      vertex 35.5365 -13.3683 6.35
    endloop
  endfacet
  facet normal 0 1.22461e-016 1
    outer loop
      vertex 36 -12.951 6.35
      vertex 34.25 -8 6.35
      vertex 35.7463 -13.1353 6.35
    endloop
  endfacet
  facet normal 0 1.22461e-016 1
    outer loop
      vertex 36.2865 -12.8234 6.35
      vertex 34.25 -8 6.35
      vertex 36 -12.951 6.35
    endloop
  endfacet
  facet normal 0 1.22461e-016 1
    outer loop
      vertex 36.5932 -12.7582 6.35
      vertex 34.25 -8 6.35
      vertex 36.2865 -12.8234 6.35
    endloop
  endfacet
  facet normal 0 1.22461e-016 1
    outer loop
      vertex 38.25 -14.25 6.35
      vertex 38.2172 -14.5619 6.35
      vertex 45 -19 6.35
    endloop
  endfacet
  facet normal 0 1.22461e-016 1
    outer loop
      vertex 36.9068 -12.7582 6.35
      vertex 34.25 -8 6.35
      vertex 36.5932 -12.7582 6.35
    endloop
  endfacet
  facet normal 0 1.22461e-016 1
    outer loop
      vertex 37.2135 -12.8234 6.35
      vertex 34.25 -8 6.35
      vertex 36.9068 -12.7582 6.35
    endloop
  endfacet
  facet normal 0 1.22461e-016 1
    outer loop
      vertex 37.5 -12.951 6.35
      vertex 34.25 -8 6.35
      vertex 37.2135 -12.8234 6.35
    endloop
  endfacet
  facet normal 0 1.22461e-016 1
    outer loop
      vertex 37.7537 -13.1353 6.35
      vertex 34.25 -8 6.35
      vertex 37.5 -12.951 6.35
    endloop
  endfacet
  facet normal 0 1.22461e-016 1
    outer loop
      vertex 37.9635 -13.3683 6.35
      vertex 38.1203 -13.6399 6.35
      vertex 45 -19 6.35
    endloop
  endfacet
  facet normal 0 1.22461e-016 1
    outer loop
      vertex 45 -19 6.35
      vertex 34.25 -8 6.35
      vertex 37.7537 -13.1353 6.35
    endloop
  endfacet
  facet normal 0 1.22461e-016 1
    outer loop
      vertex 38.1203 -13.6399 6.35
      vertex 38.2172 -13.9381 6.35
      vertex 45 -19 6.35
    endloop
  endfacet
  facet normal 0 1.22461e-016 1
    outer loop
      vertex 38.1203 -14.8601 6.35
      vertex 37.9635 -15.1317 6.35
      vertex 45 -19 6.35
    endloop
  endfacet
  facet normal 0 1.22461e-016 1
    outer loop
      vertex 38.2172 -14.5619 6.35
      vertex 38.1203 -14.8601 6.35
      vertex 45 -19 6.35
    endloop
  endfacet
  facet normal 0 1.22461e-016 1
    outer loop
      vertex 37.7537 -15.3647 6.35
      vertex 37.5 -15.549 6.35
      vertex 45 -19 6.35
    endloop
  endfacet
  facet normal 0 1.22461e-016 1
    outer loop
      vertex 37.5 -15.549 6.35
      vertex 37.2135 -15.6766 6.35
      vertex 45 -19 6.35
    endloop
  endfacet
  facet normal 0 1.22461e-016 1
    outer loop
      vertex 45 -19 6.35
      vertex 37.2135 -15.6766 6.35
      vertex 36.9068 -15.7418 6.35
    endloop
  endfacet
  facet normal 0 1.22461e-016 1
    outer loop
      vertex 45 -19 6.35
      vertex 36.9068 -15.7418 6.35
      vertex 36.5932 -15.7418 6.35
    endloop
  endfacet
  facet normal 0 1.22461e-016 1
    outer loop
      vertex 8.71352 -12.8234 6.35
      vertex 10.75 -8 6.35
      vertex 8.40679 -12.7582 6.35
    endloop
  endfacet
  facet normal 0 1.22461e-016 1
    outer loop
      vertex 12.2 0 6.35
      vertex 21.05 1.16795 6.35
      vertex 20.7117 1.41371 6.35
    endloop
  endfacet
  facet normal 0 1.22461e-016 1
    outer loop
      vertex 12.2 0 6.35
      vertex 21.432 0.997887 6.35
      vertex 21.05 1.16795 6.35
    endloop
  endfacet
  facet normal 0 1.22461e-016 1
    outer loop
      vertex 12.2 0 6.35
      vertex 21.8409 0.910956 6.35
      vertex 21.432 0.997887 6.35
    endloop
  endfacet
  facet normal 0 1.22461e-016 1
    outer loop
      vertex 12.2 0 6.35
      vertex 22.2591 0.910956 6.35
      vertex 21.8409 0.910956 6.35
    endloop
  endfacet
  facet normal 0 1.22461e-016 1
    outer loop
      vertex 23.05 1.16795 6.35
      vertex 10.75 -8 6.35
      vertex 31.9 5.8 6.35
    endloop
  endfacet
  facet normal 0 1.22461e-016 1
    outer loop
      vertex 22.668 0.997887 6.35
      vertex 10.75 -8 6.35
      vertex 23.05 1.16795 6.35
    endloop
  endfacet
  facet normal 0 1.22461e-016 1
    outer loop
      vertex 22.2591 0.910956 6.35
      vertex 10.75 -8 6.35
      vertex 22.668 0.997887 6.35
    endloop
  endfacet
  facet normal 0 1.22461e-016 1
    outer loop
      vertex 12.2 0 6.35
      vertex 10.75 -8 6.35
      vertex 22.2591 0.910956 6.35
    endloop
  endfacet
  facet normal 0 1.22461e-016 1
    outer loop
      vertex 0 0 6.35
      vertex 10.75 -8 6.35
      vertex 12.2 0 6.35
    endloop
  endfacet
  facet normal 0 1.22461e-016 1
    outer loop
      vertex 10.75 -8 6.35
      vertex 45 0 6.35
      vertex 31.9 0 6.35
    endloop
  endfacet
  facet normal 0 1.22461e-016 1
    outer loop
      vertex 0 0 6.35
      vertex 7.78647 -12.8234 6.35
      vertex 10.75 -8 6.35
    endloop
  endfacet
  facet normal 0 1.22461e-016 1
    outer loop
      vertex 0 0 6.35
      vertex 7.5 -12.951 6.35
      vertex 7.78647 -12.8234 6.35
    endloop
  endfacet
  facet normal 0 1.22461e-016 1
    outer loop
      vertex 0 0 6.35
      vertex 7.2463 -13.1353 6.35
      vertex 7.5 -12.951 6.35
    endloop
  endfacet
  facet normal 0 1.22461e-016 1
    outer loop
      vertex 0 0 6.35
      vertex 7.03647 -13.3683 6.35
      vertex 7.2463 -13.1353 6.35
    endloop
  endfacet
  facet normal 0 1.22461e-016 1
    outer loop
      vertex 0 0 6.35
      vertex 6.87968 -13.6399 6.35
      vertex 7.03647 -13.3683 6.35
    endloop
  endfacet
  facet normal 0 1.22461e-016 1
    outer loop
      vertex 0 0 6.35
      vertex 6.78278 -13.9381 6.35
      vertex 6.87968 -13.6399 6.35
    endloop
  endfacet
  facet normal 0 1.22461e-016 1
    outer loop
      vertex 0 0 6.35
      vertex 0 -16.5 6.35
      vertex 6.78278 -13.9381 6.35
    endloop
  endfacet
  facet normal 0 1.22461e-016 1
    outer loop
      vertex 9 -12.951 6.35
      vertex 10.75 -8 6.35
      vertex 8.71352 -12.8234 6.35
    endloop
  endfacet
  facet normal 0 1.22461e-016 1
    outer loop
      vertex 9.2537 -13.1353 6.35
      vertex 10.75 -8 6.35
      vertex 9 -12.951 6.35
    endloop
  endfacet
  facet normal 0 1.22461e-016 1
    outer loop
      vertex 9.46352 -13.3683 6.35
      vertex 10.75 -8 6.35
      vertex 9.2537 -13.1353 6.35
    endloop
  endfacet
  facet normal 0 1.22461e-016 1
    outer loop
      vertex 9.62032 -13.6399 6.35
      vertex 10.75 -8 6.35
      vertex 9.46352 -13.3683 6.35
    endloop
  endfacet
  facet normal 0 1.22461e-016 1
    outer loop
      vertex 9.71722 -13.9381 6.35
      vertex 10.75 -8 6.35
      vertex 9.62032 -13.6399 6.35
    endloop
  endfacet
  facet normal 0 1.22461e-016 1
    outer loop
      vertex 10.75 -20.5 6.35
      vertex 10.75 -8 6.35
      vertex 9.71722 -13.9381 6.35
    endloop
  endfacet
  facet normal -1 0 0
    outer loop
      vertex 0 -28.5 3.49013e-015
      vertex 0 -28.5 6.35
      vertex 0 -22.5 2.75536e-015
    endloop
  endfacet
  facet normal -1 0 0
    outer loop
      vertex 0 -22.5 2.75536e-015
      vertex 0 -28.5 6.35
      vertex 0 -22.5 6.35
    endloop
  endfacet
  facet normal 0 -1 1.22461e-016
    outer loop
      vertex 0 -28.5 6.35
      vertex 0 -28.5 3.49013e-015
      vertex 25 -28.5 3.49013e-015
    endloop
  endfacet
  facet normal 0 -1 1.22461e-016
    outer loop
      vertex 25 -28.5 6.35
      vertex 0 -28.5 6.35
      vertex 25 -28.5 3.49013e-015
    endloop
  endfacet
  facet normal 0.429057 -0.903278 1.10616e-016
    outer loop
      vertex 25 -28.5 6.35
      vertex 25 -28.5 3.49013e-015
      vertex 45 -19 2.32675e-015
    endloop
  endfacet
  facet normal 0.429057 -0.903278 1.10616e-016
    outer loop
      vertex 45 -19 6.35
      vertex 25 -28.5 6.35
      vertex 45 -19 2.32675e-015
    endloop
  endfacet
  facet normal 1 0 0
    outer loop
      vertex 45 -19 6.35
      vertex 45 -19 2.32675e-015
      vertex 45 -7.77625e-016 0
    endloop
  endfacet
  facet normal 1 0 0
    outer loop
      vertex 45 0 6.35
      vertex 45 -19 6.35
      vertex 45 -7.77625e-016 0
    endloop
  endfacet
  facet normal 0 1 -1.22461e-016
    outer loop
      vertex 31.9 -7.77625e-016 0
      vertex 31.9 0 6.35
      vertex 45 -7.77625e-016 0
    endloop
  endfacet
  facet normal 0 1 -1.22461e-016
    outer loop
      vertex 45 -7.77625e-016 0
      vertex 31.9 0 6.35
      vertex 45 0 6.35
    endloop
  endfacet
  facet normal 1 0 0
    outer loop
      vertex 31.9 0 6.35
      vertex 31.9 -7.77625e-016 0
      vertex 31.9 5.8 -7.10272e-016
    endloop
  endfacet
  facet normal 1 0 0
    outer loop
      vertex 31.9 5.8 6.35
      vertex 31.9 0 6.35
      vertex 31.9 5.8 -7.10272e-016
    endloop
  endfacet
  facet normal 0 1 -1.22461e-016
    outer loop
      vertex 12.2 5.8 -7.10272e-016
      vertex 12.2 5.8 6.35
      vertex 31.9 5.8 -7.10272e-016
    endloop
  endfacet
  facet normal 0 1 -1.22461e-016
    outer loop
      vertex 31.9 5.8 -7.10272e-016
      vertex 12.2 5.8 6.35
      vertex 31.9 5.8 6.35
    endloop
  endfacet
  facet normal -1 0 0
    outer loop
      vertex 12.2 -7.77625e-016 0
      vertex 12.2 0 6.35
      vertex 12.2 5.8 -7.10272e-016
    endloop
  endfacet
  facet normal -1 0 0
    outer loop
      vertex 12.2 5.8 -7.10272e-016
      vertex 12.2 0 6.35
      vertex 12.2 5.8 6.35
    endloop
  endfacet
  facet normal 0 1 -1.22461e-016
    outer loop
      vertex 0 -7.77625e-016 0
      vertex 0 0 6.35
      vertex 12.2 -7.77625e-016 0
    endloop
  endfacet
  facet normal 0 1 -1.22461e-016
    outer loop
      vertex 12.2 -7.77625e-016 0
      vertex 0 0 6.35
      vertex 12.2 0 6.35
    endloop
  endfacet
  facet normal -1 0 0
    outer loop
      vertex 0 -16.5 2.0206e-015
      vertex 0 -16.5 6.35
      vertex 0 -7.77625e-016 0
    endloop
  endfacet
  facet normal -1 0 0
    outer loop
      vertex 0 -7.77625e-016 0
      vertex 0 -16.5 6.35
      vertex 0 0 6.35
    endloop
  endfacet
  facet normal 0 1 -1.22461e-016
    outer loop
      vertex -6 -16.5 2.0206e-015
      vertex -6 -16.5 6.35
      vertex 0 -16.5 2.0206e-015
    endloop
  endfacet
  facet normal 0 1 -1.22461e-016
    outer loop
      vertex 0 -16.5 2.0206e-015
      vertex -6 -16.5 6.35
      vertex 0 -16.5 6.35
    endloop
  endfacet
  facet normal 0.994522 0.10453 0
    outer loop
      vertex 6.75 -14.25 6.35
      vertex 6.78278 -14.5619 6.35
      vertex 6.78278 -14.5619 1.78326e-015
    endloop
  endfacet
  facet normal 0.994522 0.10453 0
    outer loop
      vertex 6.75 -14.25 1.74506e-015
      vertex 6.75 -14.25 6.35
      vertex 6.78278 -14.5619 1.78326e-015
    endloop
  endfacet
  facet normal 0.994522 -0.10453 0
    outer loop
      vertex 6.78278 -13.9381 1.70687e-015
      vertex 6.78278 -13.9381 6.35
      vertex 6.75 -14.25 6.35
    endloop
  endfacet
  facet normal 0.994522 -0.10453 0
    outer loop
      vertex 6.75 -14.25 1.74506e-015
      vertex 6.78278 -13.9381 1.70687e-015
      vertex 6.75 -14.25 6.35
    endloop
  endfacet
  facet normal 0.951057 -0.309017 0
    outer loop
      vertex 6.87968 -13.6399 1.67035e-015
      vertex 6.87968 -13.6399 6.35
      vertex 6.78278 -13.9381 6.35
    endloop
  endfacet
  facet normal 0.951057 -0.309017 0
    outer loop
      vertex 6.78278 -13.9381 1.70687e-015
      vertex 6.87968 -13.6399 1.67035e-015
      vertex 6.78278 -13.9381 6.35
    endloop
  endfacet
  facet normal 0.866025 -0.500001 0
    outer loop
      vertex 7.03647 -13.3683 1.63709e-015
      vertex 7.03647 -13.3683 6.35
      vertex 6.87968 -13.6399 6.35
    endloop
  endfacet
  facet normal 0.866025 -0.500001 0
    outer loop
      vertex 6.87968 -13.6399 1.67035e-015
      vertex 7.03647 -13.3683 1.63709e-015
      vertex 6.87968 -13.6399 6.35
    endloop
  endfacet
  facet normal 0.743145 -0.66913 0
    outer loop
      vertex 7.2463 -13.1353 1.60856e-015
      vertex 7.2463 -13.1353 6.35
      vertex 7.03647 -13.3683 6.35
    endloop
  endfacet
  facet normal 0.743145 -0.66913 0
    outer loop
      vertex 7.03647 -13.3683 1.63709e-015
      vertex 7.2463 -13.1353 1.60856e-015
      vertex 7.03647 -13.3683 6.35
    endloop
  endfacet
  facet normal 0.587785 -0.809017 0
    outer loop
      vertex 7.5 -12.951 1.58598e-015
      vertex 7.5 -12.951 6.35
      vertex 7.2463 -13.1353 6.35
    endloop
  endfacet
  facet normal 0.587785 -0.809017 0
    outer loop
      vertex 7.2463 -13.1353 1.60856e-015
      vertex 7.5 -12.951 1.58598e-015
      vertex 7.2463 -13.1353 6.35
    endloop
  endfacet
  facet normal 0.406737 -0.913545 0
    outer loop
      vertex 7.78647 -12.8234 1.57036e-015
      vertex 7.78647 -12.8234 6.35
      vertex 7.5 -12.951 6.35
    endloop
  endfacet
  facet normal 0.406737 -0.913545 0
    outer loop
      vertex 7.5 -12.951 1.58598e-015
      vertex 7.78647 -12.8234 1.57036e-015
      vertex 7.5 -12.951 6.35
    endloop
  endfacet
  facet normal 0.207912 -0.978148 0
    outer loop
      vertex 8.09321 -12.7582 1.56238e-015
      vertex 8.09321 -12.7582 6.35
      vertex 7.78647 -12.8234 6.35
    endloop
  endfacet
  facet normal 0.207912 -0.978148 0
    outer loop
      vertex 7.78647 -12.8234 1.57036e-015
      vertex 8.09321 -12.7582 1.56238e-015
      vertex 7.78647 -12.8234 6.35
    endloop
  endfacet
  facet normal 0 -1 0
    outer loop
      vertex 8.40679 -12.7582 1.56238e-015
      vertex 8.40679 -12.7582 6.35
      vertex 8.09321 -12.7582 6.35
    endloop
  endfacet
  facet normal 0 -1 0
    outer loop
      vertex 8.09321 -12.7582 1.56238e-015
      vertex 8.40679 -12.7582 1.56238e-015
      vertex 8.09321 -12.7582 6.35
    endloop
  endfacet
  facet normal -0.207912 -0.978148 0
    outer loop
      vertex 8.71352 -12.8234 1.57036e-015
      vertex 8.71352 -12.8234 6.35
      vertex 8.40679 -12.7582 6.35
    endloop
  endfacet
  facet normal -0.207912 -0.978148 0
    outer loop
      vertex 8.40679 -12.7582 1.56238e-015
      vertex 8.71352 -12.8234 1.57036e-015
      vertex 8.40679 -12.7582 6.35
    endloop
  endfacet
  facet normal -0.406737 -0.913545 0
    outer loop
      vertex 9 -12.951 1.58598e-015
      vertex 9 -12.951 6.35
      vertex 8.71352 -12.8234 6.35
    endloop
  endfacet
  facet normal -0.406737 -0.913545 0
    outer loop
      vertex 8.71352 -12.8234 1.57036e-015
      vertex 9 -12.951 1.58598e-015
      vertex 8.71352 -12.8234 6.35
    endloop
  endfacet
  facet normal -0.587785 -0.809017 0
    outer loop
      vertex 9.2537 -13.1353 1.60856e-015
      vertex 9.2537 -13.1353 6.35
      vertex 9 -12.951 6.35
    endloop
  endfacet
  facet normal -0.587785 -0.809017 0
    outer loop
      vertex 9 -12.951 1.58598e-015
      vertex 9.2537 -13.1353 1.60856e-015
      vertex 9 -12.951 6.35
    endloop
  endfacet
  facet normal -0.743145 -0.66913 0
    outer loop
      vertex 9.46352 -13.3683 6.35
      vertex 9.2537 -13.1353 6.35
      vertex 9.46352 -13.3683 1.63709e-015
    endloop
  endfacet
  facet normal -0.743145 -0.66913 0
    outer loop
      vertex 9.46352 -13.3683 1.63709e-015
      vertex 9.2537 -13.1353 6.35
      vertex 9.2537 -13.1353 1.60856e-015
    endloop
  endfacet
  facet normal -0.866025 -0.500001 0
    outer loop
      vertex 9.62032 -13.6399 6.35
      vertex 9.46352 -13.3683 6.35
      vertex 9.62032 -13.6399 1.67035e-015
    endloop
  endfacet
  facet normal -0.866025 -0.500001 0
    outer loop
      vertex 9.62032 -13.6399 1.67035e-015
      vertex 9.46352 -13.3683 6.35
      vertex 9.46352 -13.3683 1.63709e-015
    endloop
  endfacet
  facet normal -0.951057 -0.309017 0
    outer loop
      vertex 9.71722 -13.9381 6.35
      vertex 9.62032 -13.6399 6.35
      vertex 9.71722 -13.9381 1.70687e-015
    endloop
  endfacet
  facet normal -0.951057 -0.309017 0
    outer loop
      vertex 9.71722 -13.9381 1.70687e-015
      vertex 9.62032 -13.6399 6.35
      vertex 9.62032 -13.6399 1.67035e-015
    endloop
  endfacet
  facet normal -0.994522 -0.10453 0
    outer loop
      vertex 9.75 -14.25 6.35
      vertex 9.71722 -13.9381 6.35
      vertex 9.75 -14.25 1.74506e-015
    endloop
  endfacet
  facet normal -0.994522 -0.10453 0
    outer loop
      vertex 9.75 -14.25 1.74506e-015
      vertex 9.71722 -13.9381 6.35
      vertex 9.71722 -13.9381 1.70687e-015
    endloop
  endfacet
  facet normal -0.994522 0.10453 0
    outer loop
      vertex 9.75 -14.25 6.35
      vertex 9.75 -14.25 1.74506e-015
      vertex 9.71722 -14.5619 6.35
    endloop
  endfacet
  facet normal -0.994522 0.10453 0
    outer loop
      vertex 9.71722 -14.5619 6.35
      vertex 9.75 -14.25 1.74506e-015
      vertex 9.71722 -14.5619 1.78326e-015
    endloop
  endfacet
  facet normal -0.951057 0.309017 0
    outer loop
      vertex 9.71722 -14.5619 6.35
      vertex 9.71722 -14.5619 1.78326e-015
      vertex 9.62032 -14.8601 6.35
    endloop
  endfacet
  facet normal -0.951057 0.309017 0
    outer loop
      vertex 9.62032 -14.8601 6.35
      vertex 9.71722 -14.5619 1.78326e-015
      vertex 9.62032 -14.8601 1.81978e-015
    endloop
  endfacet
  facet normal -0.866025 0.500001 0
    outer loop
      vertex 9.62032 -14.8601 6.35
      vertex 9.62032 -14.8601 1.81978e-015
      vertex 9.46352 -15.1317 6.35
    endloop
  endfacet
  facet normal -0.866025 0.500001 0
    outer loop
      vertex 9.46352 -15.1317 6.35
      vertex 9.62032 -14.8601 1.81978e-015
      vertex 9.46352 -15.1317 1.85303e-015
    endloop
  endfacet
  facet normal -0.743145 0.66913 0
    outer loop
      vertex 9.46352 -15.1317 6.35
      vertex 9.46352 -15.1317 1.85303e-015
      vertex 9.2537 -15.3647 6.35
    endloop
  endfacet
  facet normal -0.743145 0.66913 0
    outer loop
      vertex 9.2537 -15.3647 6.35
      vertex 9.46352 -15.1317 1.85303e-015
      vertex 9.2537 -15.3647 1.88157e-015
    endloop
  endfacet
  facet normal -0.587785 0.809017 0
    outer loop
      vertex 9.2537 -15.3647 6.35
      vertex 9.2537 -15.3647 1.88157e-015
      vertex 9 -15.549 6.35
    endloop
  endfacet
  facet normal -0.587785 0.809017 0
    outer loop
      vertex 9 -15.549 6.35
      vertex 9.2537 -15.3647 1.88157e-015
      vertex 9 -15.549 1.90415e-015
    endloop
  endfacet
  facet normal -0.406737 0.913545 0
    outer loop
      vertex 9 -15.549 6.35
      vertex 9 -15.549 1.90415e-015
      vertex 8.71352 -15.6766 6.35
    endloop
  endfacet
  facet normal -0.406737 0.913545 0
    outer loop
      vertex 8.71352 -15.6766 6.35
      vertex 9 -15.549 1.90415e-015
      vertex 8.71352 -15.6766 1.91976e-015
    endloop
  endfacet
  facet normal -0.207912 0.978148 0
    outer loop
      vertex 8.71352 -15.6766 6.35
      vertex 8.71352 -15.6766 1.91976e-015
      vertex 8.40679 -15.7418 6.35
    endloop
  endfacet
  facet normal -0.207912 0.978148 0
    outer loop
      vertex 8.40679 -15.7418 6.35
      vertex 8.71352 -15.6766 1.91976e-015
      vertex 8.40679 -15.7418 1.92775e-015
    endloop
  endfacet
  facet normal 0 1 0
    outer loop
      vertex 8.40679 -15.7418 6.35
      vertex 8.40679 -15.7418 1.92775e-015
      vertex 8.09321 -15.7418 6.35
    endloop
  endfacet
  facet normal 0 1 0
    outer loop
      vertex 8.09321 -15.7418 6.35
      vertex 8.40679 -15.7418 1.92775e-015
      vertex 8.09321 -15.7418 1.92775e-015
    endloop
  endfacet
  facet normal 0.207912 0.978148 0
    outer loop
      vertex 8.09321 -15.7418 6.35
      vertex 8.09321 -15.7418 1.92775e-015
      vertex 7.78647 -15.6766 6.35
    endloop
  endfacet
  facet normal 0.207912 0.978148 0
    outer loop
      vertex 7.78647 -15.6766 6.35
      vertex 8.09321 -15.7418 1.92775e-015
      vertex 7.78647 -15.6766 1.91976e-015
    endloop
  endfacet
  facet normal 0.406737 0.913545 0
    outer loop
      vertex 7.78647 -15.6766 6.35
      vertex 7.78647 -15.6766 1.91976e-015
      vertex 7.5 -15.549 6.35
    endloop
  endfacet
  facet normal 0.406737 0.913545 0
    outer loop
      vertex 7.5 -15.549 6.35
      vertex 7.78647 -15.6766 1.91976e-015
      vertex 7.5 -15.549 1.90415e-015
    endloop
  endfacet
  facet normal 0.587785 0.809017 0
    outer loop
      vertex 7.5 -15.549 6.35
      vertex 7.5 -15.549 1.90415e-015
      vertex 7.2463 -15.3647 6.35
    endloop
  endfacet
  facet normal 0.587785 0.809017 0
    outer loop
      vertex 7.2463 -15.3647 6.35
      vertex 7.5 -15.549 1.90415e-015
      vertex 7.2463 -15.3647 1.88157e-015
    endloop
  endfacet
  facet normal 0.743145 0.66913 0
    outer loop
      vertex 7.03647 -15.1317 6.35
      vertex 7.2463 -15.3647 6.35
      vertex 7.2463 -15.3647 1.88157e-015
    endloop
  endfacet
  facet normal 0.743145 0.66913 0
    outer loop
      vertex 7.03647 -15.1317 1.85303e-015
      vertex 7.03647 -15.1317 6.35
      vertex 7.2463 -15.3647 1.88157e-015
    endloop
  endfacet
  facet normal 0.866025 0.500001 0
    outer loop
      vertex 6.87968 -14.8601 6.35
      vertex 7.03647 -15.1317 6.35
      vertex 7.03647 -15.1317 1.85303e-015
    endloop
  endfacet
  facet normal 0.866025 0.500001 0
    outer loop
      vertex 6.87968 -14.8601 1.81978e-015
      vertex 6.87968 -14.8601 6.35
      vertex 7.03647 -15.1317 1.85303e-015
    endloop
  endfacet
  facet normal 0.951057 0.309017 0
    outer loop
      vertex 6.78278 -14.5619 6.35
      vertex 6.87968 -14.8601 6.35
      vertex 6.87968 -14.8601 1.81978e-015
    endloop
  endfacet
  facet normal 0.951057 0.309017 0
    outer loop
      vertex 6.78278 -14.5619 1.78326e-015
      vertex 6.78278 -14.5619 6.35
      vertex 6.87968 -14.8601 1.81978e-015
    endloop
  endfacet
  facet normal 1 0 0
    outer loop
      vertex 10.75 -8 9.79685e-016
      vertex 10.75 -8 6.35
      vertex 10.75 -20.5 6.35
    endloop
  endfacet
  facet normal 1 0 0
    outer loop
      vertex 10.75 -20.5 2.51044e-015
      vertex 10.75 -8 9.79685e-016
      vertex 10.75 -20.5 6.35
    endloop
  endfacet
  facet normal 0 -1 0
    outer loop
      vertex 34.25 -8 9.79685e-016
      vertex 34.25 -8 6.35
      vertex 10.75 -8 6.35
    endloop
  endfacet
  facet normal 0 -1 0
    outer loop
      vertex 10.75 -8 9.79685e-016
      vertex 34.25 -8 9.79685e-016
      vertex 10.75 -8 6.35
    endloop
  endfacet
  facet normal -1 0 0
    outer loop
      vertex 34.25 -8 6.35
      vertex 34.25 -8 9.79685e-016
      vertex 34.25 -20.5 6.35
    endloop
  endfacet
  facet normal -1 0 0
    outer loop
      vertex 34.25 -20.5 6.35
      vertex 34.25 -8 9.79685e-016
      vertex 34.25 -20.5 2.51044e-015
    endloop
  endfacet
  facet normal 0 1 0
    outer loop
      vertex 34.25 -20.5 6.35
      vertex 34.25 -20.5 2.51044e-015
      vertex 10.75 -20.5 6.35
    endloop
  endfacet
  facet normal 0 1 0
    outer loop
      vertex 10.75 -20.5 6.35
      vertex 34.25 -20.5 2.51044e-015
      vertex 10.75 -20.5 2.51044e-015
    endloop
  endfacet
  facet normal 0.994522 -0.104529 1.28007e-017
    outer loop
      vertex 20.0937 3.31582 -4.06058e-016
      vertex 20.0937 3.31582 6.35
      vertex 20.05 2.9 6.35
    endloop
  endfacet
  facet normal 0.994522 -0.104529 1.28007e-017
    outer loop
      vertex 20.05 2.9 -3.55136e-016
      vertex 20.0937 3.31582 -4.06058e-016
      vertex 20.05 2.9 6.35
    endloop
  endfacet
  facet normal 0.994522 0.104529 -1.28007e-017
    outer loop
      vertex 20.05 2.9 6.35
      vertex 20.0937 2.48418 6.35
      vertex 20.0937 2.48418 -3.04214e-016
    endloop
  endfacet
  facet normal 0.994522 0.104529 -1.28007e-017
    outer loop
      vertex 20.05 2.9 -3.55136e-016
      vertex 20.05 2.9 6.35
      vertex 20.0937 2.48418 -3.04214e-016
    endloop
  endfacet
  facet normal 0.951057 -0.309016 3.78423e-017
    outer loop
      vertex 20.2229 3.71347 -4.54754e-016
      vertex 20.2229 3.71347 6.35
      vertex 20.0937 3.31582 6.35
    endloop
  endfacet
  facet normal 0.951057 -0.309016 3.78423e-017
    outer loop
      vertex 20.0937 3.31582 -4.06058e-016
      vertex 20.2229 3.71347 -4.54754e-016
      vertex 20.0937 3.31582 6.35
    endloop
  endfacet
  facet normal 0.866026 -0.499999 6.12302e-017
    outer loop
      vertex 20.432 4.07557 -4.99097e-016
      vertex 20.432 4.07557 6.35
      vertex 20.2229 3.71347 6.35
    endloop
  endfacet
  facet normal 0.866026 -0.499999 6.12302e-017
    outer loop
      vertex 20.2229 3.71347 -4.54754e-016
      vertex 20.432 4.07557 -4.99097e-016
      vertex 20.2229 3.71347 6.35
    endloop
  endfacet
  facet normal 0.743144 -0.669131 8.19422e-017
    outer loop
      vertex 20.7117 4.38629 -5.37148e-016
      vertex 20.7117 4.38629 6.35
      vertex 20.432 4.07557 6.35
    endloop
  endfacet
  facet normal 0.743144 -0.669131 8.19422e-017
    outer loop
      vertex 20.432 4.07557 -4.99097e-016
      vertex 20.7117 4.38629 -5.37148e-016
      vertex 20.432 4.07557 6.35
    endloop
  endfacet
  facet normal 0.587785 -0.809017 9.90727e-017
    outer loop
      vertex 21.05 4.63205 -5.67244e-016
      vertex 21.05 4.63205 6.35
      vertex 20.7117 4.38629 6.35
    endloop
  endfacet
  facet normal 0.587785 -0.809017 9.90727e-017
    outer loop
      vertex 20.7117 4.38629 -5.37148e-016
      vertex 21.05 4.63205 -5.67244e-016
      vertex 20.7117 4.38629 6.35
    endloop
  endfacet
  facet normal 0.406736 -0.913546 1.11873e-016
    outer loop
      vertex 21.432 4.80211 -5.8807e-016
      vertex 21.432 4.80211 6.35
      vertex 21.05 4.63205 6.35
    endloop
  endfacet
  facet normal 0.406736 -0.913546 1.11873e-016
    outer loop
      vertex 21.05 4.63205 -5.67244e-016
      vertex 21.432 4.80211 -5.8807e-016
      vertex 21.05 4.63205 6.35
    endloop
  endfacet
  facet normal 0.207912 -0.978147 1.19785e-016
    outer loop
      vertex 21.8409 4.88904 -5.98715e-016
      vertex 21.8409 4.88904 6.35
      vertex 21.432 4.80211 6.35
    endloop
  endfacet
  facet normal 0.207912 -0.978147 1.19785e-016
    outer loop
      vertex 21.432 4.80211 -5.8807e-016
      vertex 21.8409 4.88904 -5.98715e-016
      vertex 21.432 4.80211 6.35
    endloop
  endfacet
  facet normal 0 -1 1.22461e-016
    outer loop
      vertex 22.2591 4.88904 -5.98715e-016
      vertex 22.2591 4.88904 6.35
      vertex 21.8409 4.88904 6.35
    endloop
  endfacet
  facet normal 0 -1 1.22461e-016
    outer loop
      vertex 21.8409 4.88904 -5.98715e-016
      vertex 22.2591 4.88904 -5.98715e-016
      vertex 21.8409 4.88904 6.35
    endloop
  endfacet
  facet normal -0.207912 -0.978147 1.19785e-016
    outer loop
      vertex 22.668 4.80211 -5.8807e-016
      vertex 22.668 4.80211 6.35
      vertex 22.2591 4.88904 6.35
    endloop
  endfacet
  facet normal -0.207912 -0.978147 1.19785e-016
    outer loop
      vertex 22.2591 4.88904 -5.98715e-016
      vertex 22.668 4.80211 -5.8807e-016
      vertex 22.2591 4.88904 6.35
    endloop
  endfacet
  facet normal -0.406736 -0.913546 1.11873e-016
    outer loop
      vertex 23.05 4.63205 -5.67244e-016
      vertex 23.05 4.63205 6.35
      vertex 22.668 4.80211 6.35
    endloop
  endfacet
  facet normal -0.406736 -0.913546 1.11873e-016
    outer loop
      vertex 22.668 4.80211 -5.8807e-016
      vertex 23.05 4.63205 -5.67244e-016
      vertex 22.668 4.80211 6.35
    endloop
  endfacet
  facet normal -0.587785 -0.809017 9.90727e-017
    outer loop
      vertex 23.3883 4.38629 -5.37148e-016
      vertex 23.3883 4.38629 6.35
      vertex 23.05 4.63205 6.35
    endloop
  endfacet
  facet normal -0.587785 -0.809017 9.90727e-017
    outer loop
      vertex 23.05 4.63205 -5.67244e-016
      vertex 23.3883 4.38629 -5.37148e-016
      vertex 23.05 4.63205 6.35
    endloop
  endfacet
  facet normal -0.743144 -0.669131 8.19422e-017
    outer loop
      vertex 23.668 4.07557 6.35
      vertex 23.3883 4.38629 6.35
      vertex 23.668 4.07557 -4.99097e-016
    endloop
  endfacet
  facet normal -0.743144 -0.669131 8.19422e-017
    outer loop
      vertex 23.668 4.07557 -4.99097e-016
      vertex 23.3883 4.38629 6.35
      vertex 23.3883 4.38629 -5.37148e-016
    endloop
  endfacet
  facet normal -0.866026 -0.499999 6.12302e-017
    outer loop
      vertex 23.8771 3.71347 6.35
      vertex 23.668 4.07557 6.35
      vertex 23.8771 3.71347 -4.54754e-016
    endloop
  endfacet
  facet normal -0.866026 -0.499999 6.12302e-017
    outer loop
      vertex 23.8771 3.71347 -4.54754e-016
      vertex 23.668 4.07557 6.35
      vertex 23.668 4.07557 -4.99097e-016
    endloop
  endfacet
  facet normal -0.951057 -0.309016 3.78423e-017
    outer loop
      vertex 24.0063 3.31582 6.35
      vertex 23.8771 3.71347 6.35
      vertex 24.0063 3.31582 -4.06058e-016
    endloop
  endfacet
  facet normal -0.951057 -0.309016 3.78423e-017
    outer loop
      vertex 24.0063 3.31582 -4.06058e-016
      vertex 23.8771 3.71347 6.35
      vertex 23.8771 3.71347 -4.54754e-016
    endloop
  endfacet
  facet normal -0.994522 -0.104529 1.28007e-017
    outer loop
      vertex 24.05 2.9 6.35
      vertex 24.0063 3.31582 6.35
      vertex 24.05 2.9 -3.55136e-016
    endloop
  endfacet
  facet normal -0.994522 -0.104529 1.28007e-017
    outer loop
      vertex 24.05 2.9 -3.55136e-016
      vertex 24.0063 3.31582 6.35
      vertex 24.0063 3.31582 -4.06058e-016
    endloop
  endfacet
  facet normal -0.994522 0.104529 -1.28007e-017
    outer loop
      vertex 24.05 2.9 6.35
      vertex 24.05 2.9 -3.55136e-016
      vertex 24.0063 2.48418 6.35
    endloop
  endfacet
  facet normal -0.994522 0.104529 -1.28007e-017
    outer loop
      vertex 24.0063 2.48418 6.35
      vertex 24.05 2.9 -3.55136e-016
      vertex 24.0063 2.48418 -3.04214e-016
    endloop
  endfacet
  facet normal -0.951057 0.309016 -3.78423e-017
    outer loop
      vertex 24.0063 2.48418 6.35
      vertex 24.0063 2.48418 -3.04214e-016
      vertex 23.8771 2.08653 6.35
    endloop
  endfacet
  facet normal -0.951057 0.309016 -3.78423e-017
    outer loop
      vertex 23.8771 2.08653 6.35
      vertex 24.0063 2.48418 -3.04214e-016
      vertex 23.8771 2.08653 -2.55517e-016
    endloop
  endfacet
  facet normal -0.866026 0.499999 -6.12302e-017
    outer loop
      vertex 23.8771 2.08653 6.35
      vertex 23.8771 2.08653 -2.55517e-016
      vertex 23.668 1.72443 6.35
    endloop
  endfacet
  facet normal -0.866026 0.499999 -6.12302e-017
    outer loop
      vertex 23.668 1.72443 6.35
      vertex 23.8771 2.08653 -2.55517e-016
      vertex 23.668 1.72443 -2.11175e-016
    endloop
  endfacet
  facet normal -0.743144 0.669131 -8.19422e-017
    outer loop
      vertex 23.668 1.72443 6.35
      vertex 23.668 1.72443 -2.11175e-016
      vertex 23.3883 1.41371 6.35
    endloop
  endfacet
  facet normal -0.743144 0.669131 -8.19422e-017
    outer loop
      vertex 23.3883 1.41371 6.35
      vertex 23.668 1.72443 -2.11175e-016
      vertex 23.3883 1.41371 -1.73124e-016
    endloop
  endfacet
  facet normal -0.587785 0.809017 -9.90727e-017
    outer loop
      vertex 23.3883 1.41371 6.35
      vertex 23.3883 1.41371 -1.73124e-016
      vertex 23.05 1.16795 6.35
    endloop
  endfacet
  facet normal -0.587785 0.809017 -9.90727e-017
    outer loop
      vertex 23.05 1.16795 6.35
      vertex 23.3883 1.41371 -1.73124e-016
      vertex 23.05 1.16795 -1.43028e-016
    endloop
  endfacet
  facet normal -0.406736 0.913546 -1.11873e-016
    outer loop
      vertex 23.05 1.16795 6.35
      vertex 23.05 1.16795 -1.43028e-016
      vertex 22.668 0.997887 6.35
    endloop
  endfacet
  facet normal -0.406736 0.913546 -1.11873e-016
    outer loop
      vertex 22.668 0.997887 6.35
      vertex 23.05 1.16795 -1.43028e-016
      vertex 22.668 0.997887 -1.22202e-016
    endloop
  endfacet
  facet normal -0.207912 0.978147 -1.19785e-016
    outer loop
      vertex 22.668 0.997887 6.35
      vertex 22.668 0.997887 -1.22202e-016
      vertex 22.2591 0.910956 6.35
    endloop
  endfacet
  facet normal -0.207912 0.978147 -1.19785e-016
    outer loop
      vertex 22.2591 0.910956 6.35
      vertex 22.668 0.997887 -1.22202e-016
      vertex 22.2591 0.910956 -1.11556e-016
    endloop
  endfacet
  facet normal 0 1 -1.22461e-016
    outer loop
      vertex 22.2591 0.910956 6.35
      vertex 22.2591 0.910956 -1.11556e-016
      vertex 21.8409 0.910956 6.35
    endloop
  endfacet
  facet normal 0 1 -1.22461e-016
    outer loop
      vertex 21.8409 0.910956 6.35
      vertex 22.2591 0.910956 -1.11556e-016
      vertex 21.8409 0.910956 -1.11556e-016
    endloop
  endfacet
  facet normal 0.207912 0.978147 -1.19785e-016
    outer loop
      vertex 21.8409 0.910956 6.35
      vertex 21.8409 0.910956 -1.11556e-016
      vertex 21.432 0.997887 6.35
    endloop
  endfacet
  facet normal 0.207912 0.978147 -1.19785e-016
    outer loop
      vertex 21.432 0.997887 6.35
      vertex 21.8409 0.910956 -1.11556e-016
      vertex 21.432 0.997887 -1.22202e-016
    endloop
  endfacet
  facet normal 0.406736 0.913546 -1.11873e-016
    outer loop
      vertex 21.432 0.997887 6.35
      vertex 21.432 0.997887 -1.22202e-016
      vertex 21.05 1.16795 6.35
    endloop
  endfacet
  facet normal 0.406736 0.913546 -1.11873e-016
    outer loop
      vertex 21.05 1.16795 6.35
      vertex 21.432 0.997887 -1.22202e-016
      vertex 21.05 1.16795 -1.43028e-016
    endloop
  endfacet
  facet normal 0.587785 0.809017 -9.90727e-017
    outer loop
      vertex 21.05 1.16795 6.35
      vertex 21.05 1.16795 -1.43028e-016
      vertex 20.7117 1.41371 6.35
    endloop
  endfacet
  facet normal 0.587785 0.809017 -9.90727e-017
    outer loop
      vertex 20.7117 1.41371 6.35
      vertex 21.05 1.16795 -1.43028e-016
      vertex 20.7117 1.41371 -1.73124e-016
    endloop
  endfacet
  facet normal 0.743144 0.669131 -8.19422e-017
    outer loop
      vertex 20.432 1.72443 6.35
      vertex 20.7117 1.41371 6.35
      vertex 20.7117 1.41371 -1.73124e-016
    endloop
  endfacet
  facet normal 0.743144 0.669131 -8.19422e-017
    outer loop
      vertex 20.432 1.72443 -2.11175e-016
      vertex 20.432 1.72443 6.35
      vertex 20.7117 1.41371 -1.73124e-016
    endloop
  endfacet
  facet normal 0.866026 0.499999 -6.12302e-017
    outer loop
      vertex 20.2229 2.08653 6.35
      vertex 20.432 1.72443 6.35
      vertex 20.432 1.72443 -2.11175e-016
    endloop
  endfacet
  facet normal 0.866026 0.499999 -6.12302e-017
    outer loop
      vertex 20.2229 2.08653 -2.55517e-016
      vertex 20.2229 2.08653 6.35
      vertex 20.432 1.72443 -2.11175e-016
    endloop
  endfacet
  facet normal 0.951057 0.309016 -3.78423e-017
    outer loop
      vertex 20.0937 2.48418 6.35
      vertex 20.2229 2.08653 6.35
      vertex 20.2229 2.08653 -2.55517e-016
    endloop
  endfacet
  facet normal 0.951057 0.309016 -3.78423e-017
    outer loop
      vertex 20.0937 2.48418 -3.04214e-016
      vertex 20.0937 2.48418 6.35
      vertex 20.2229 2.08653 -2.55517e-016
    endloop
  endfacet
  facet normal 0.994522 0.10453 0
    outer loop
      vertex 35.25 -14.25 6.35
      vertex 35.2828 -14.5619 6.35
      vertex 35.2828 -14.5619 1.78326e-015
    endloop
  endfacet
  facet normal 0.994522 0.10453 0
    outer loop
      vertex 35.25 -14.25 1.74506e-015
      vertex 35.25 -14.25 6.35
      vertex 35.2828 -14.5619 1.78326e-015
    endloop
  endfacet
  facet normal 0.994522 -0.10453 0
    outer loop
      vertex 35.2828 -13.9381 1.70687e-015
      vertex 35.2828 -13.9381 6.35
      vertex 35.25 -14.25 6.35
    endloop
  endfacet
  facet normal 0.994522 -0.10453 0
    outer loop
      vertex 35.25 -14.25 1.74506e-015
      vertex 35.2828 -13.9381 1.70687e-015
      vertex 35.25 -14.25 6.35
    endloop
  endfacet
  facet normal 0.951057 -0.309017 0
    outer loop
      vertex 35.3797 -13.6399 1.67035e-015
      vertex 35.3797 -13.6399 6.35
      vertex 35.2828 -13.9381 6.35
    endloop
  endfacet
  facet normal 0.951057 -0.309017 0
    outer loop
      vertex 35.2828 -13.9381 1.70687e-015
      vertex 35.3797 -13.6399 1.67035e-015
      vertex 35.2828 -13.9381 6.35
    endloop
  endfacet
  facet normal 0.866025 -0.500001 0
    outer loop
      vertex 35.5365 -13.3683 1.63709e-015
      vertex 35.5365 -13.3683 6.35
      vertex 35.3797 -13.6399 6.35
    endloop
  endfacet
  facet normal 0.866025 -0.500001 0
    outer loop
      vertex 35.3797 -13.6399 1.67035e-015
      vertex 35.5365 -13.3683 1.63709e-015
      vertex 35.3797 -13.6399 6.35
    endloop
  endfacet
  facet normal 0.743145 -0.66913 0
    outer loop
      vertex 35.7463 -13.1353 1.60856e-015
      vertex 35.7463 -13.1353 6.35
      vertex 35.5365 -13.3683 6.35
    endloop
  endfacet
  facet normal 0.743145 -0.66913 0
    outer loop
      vertex 35.5365 -13.3683 1.63709e-015
      vertex 35.7463 -13.1353 1.60856e-015
      vertex 35.5365 -13.3683 6.35
    endloop
  endfacet
  facet normal 0.587785 -0.809017 0
    outer loop
      vertex 36 -12.951 1.58598e-015
      vertex 36 -12.951 6.35
      vertex 35.7463 -13.1353 6.35
    endloop
  endfacet
  facet normal 0.587785 -0.809017 0
    outer loop
      vertex 35.7463 -13.1353 1.60856e-015
      vertex 36 -12.951 1.58598e-015
      vertex 35.7463 -13.1353 6.35
    endloop
  endfacet
  facet normal 0.406737 -0.913545 0
    outer loop
      vertex 36.2865 -12.8234 1.57036e-015
      vertex 36.2865 -12.8234 6.35
      vertex 36 -12.951 6.35
    endloop
  endfacet
  facet normal 0.406737 -0.913545 0
    outer loop
      vertex 36 -12.951 1.58598e-015
      vertex 36.2865 -12.8234 1.57036e-015
      vertex 36 -12.951 6.35
    endloop
  endfacet
  facet normal 0.207912 -0.978148 0
    outer loop
      vertex 36.5932 -12.7582 1.56238e-015
      vertex 36.5932 -12.7582 6.35
      vertex 36.2865 -12.8234 6.35
    endloop
  endfacet
  facet normal 0.207912 -0.978148 0
    outer loop
      vertex 36.2865 -12.8234 1.57036e-015
      vertex 36.5932 -12.7582 1.56238e-015
      vertex 36.2865 -12.8234 6.35
    endloop
  endfacet
  facet normal 0 -1 0
    outer loop
      vertex 36.9068 -12.7582 1.56238e-015
      vertex 36.9068 -12.7582 6.35
      vertex 36.5932 -12.7582 6.35
    endloop
  endfacet
  facet normal 0 -1 0
    outer loop
      vertex 36.5932 -12.7582 1.56238e-015
      vertex 36.9068 -12.7582 1.56238e-015
      vertex 36.5932 -12.7582 6.35
    endloop
  endfacet
  facet normal -0.207912 -0.978148 0
    outer loop
      vertex 37.2135 -12.8234 1.57036e-015
      vertex 37.2135 -12.8234 6.35
      vertex 36.9068 -12.7582 6.35
    endloop
  endfacet
  facet normal -0.207912 -0.978148 0
    outer loop
      vertex 36.9068 -12.7582 1.56238e-015
      vertex 37.2135 -12.8234 1.57036e-015
      vertex 36.9068 -12.7582 6.35
    endloop
  endfacet
  facet normal -0.406737 -0.913545 0
    outer loop
      vertex 37.5 -12.951 1.58598e-015
      vertex 37.5 -12.951 6.35
      vertex 37.2135 -12.8234 6.35
    endloop
  endfacet
  facet normal -0.406737 -0.913545 0
    outer loop
      vertex 37.2135 -12.8234 1.57036e-015
      vertex 37.5 -12.951 1.58598e-015
      vertex 37.2135 -12.8234 6.35
    endloop
  endfacet
  facet normal -0.587785 -0.809017 0
    outer loop
      vertex 37.7537 -13.1353 1.60856e-015
      vertex 37.7537 -13.1353 6.35
      vertex 37.5 -12.951 6.35
    endloop
  endfacet
  facet normal -0.587785 -0.809017 0
    outer loop
      vertex 37.5 -12.951 1.58598e-015
      vertex 37.7537 -13.1353 1.60856e-015
      vertex 37.5 -12.951 6.35
    endloop
  endfacet
  facet normal -0.743145 -0.66913 0
    outer loop
      vertex 37.9635 -13.3683 6.35
      vertex 37.7537 -13.1353 6.35
      vertex 37.9635 -13.3683 1.63709e-015
    endloop
  endfacet
  facet normal -0.743145 -0.66913 0
    outer loop
      vertex 37.9635 -13.3683 1.63709e-015
      vertex 37.7537 -13.1353 6.35
      vertex 37.7537 -13.1353 1.60856e-015
    endloop
  endfacet
  facet normal -0.866025 -0.500001 0
    outer loop
      vertex 38.1203 -13.6399 6.35
      vertex 37.9635 -13.3683 6.35
      vertex 38.1203 -13.6399 1.67035e-015
    endloop
  endfacet
  facet normal -0.866025 -0.500001 0
    outer loop
      vertex 38.1203 -13.6399 1.67035e-015
      vertex 37.9635 -13.3683 6.35
      vertex 37.9635 -13.3683 1.63709e-015
    endloop
  endfacet
  facet normal -0.951057 -0.309017 0
    outer loop
      vertex 38.2172 -13.9381 6.35
      vertex 38.1203 -13.6399 6.35
      vertex 38.2172 -13.9381 1.70687e-015
    endloop
  endfacet
  facet normal -0.951057 -0.309017 0
    outer loop
      vertex 38.2172 -13.9381 1.70687e-015
      vertex 38.1203 -13.6399 6.35
      vertex 38.1203 -13.6399 1.67035e-015
    endloop
  endfacet
  facet normal -0.994522 -0.10453 0
    outer loop
      vertex 38.25 -14.25 6.35
      vertex 38.2172 -13.9381 6.35
      vertex 38.25 -14.25 1.74506e-015
    endloop
  endfacet
  facet normal -0.994522 -0.10453 0
    outer loop
      vertex 38.25 -14.25 1.74506e-015
      vertex 38.2172 -13.9381 6.35
      vertex 38.2172 -13.9381 1.70687e-015
    endloop
  endfacet
  facet normal -0.994522 0.10453 0
    outer loop
      vertex 38.25 -14.25 6.35
      vertex 38.25 -14.25 1.74506e-015
      vertex 38.2172 -14.5619 6.35
    endloop
  endfacet
  facet normal -0.994522 0.10453 0
    outer loop
      vertex 38.2172 -14.5619 6.35
      vertex 38.25 -14.25 1.74506e-015
      vertex 38.2172 -14.5619 1.78326e-015
    endloop
  endfacet
  facet normal -0.951057 0.309017 0
    outer loop
      vertex 38.2172 -14.5619 6.35
      vertex 38.2172 -14.5619 1.78326e-015
      vertex 38.1203 -14.8601 6.35
    endloop
  endfacet
  facet normal -0.951057 0.309017 0
    outer loop
      vertex 38.1203 -14.8601 6.35
      vertex 38.2172 -14.5619 1.78326e-015
      vertex 38.1203 -14.8601 1.81978e-015
    endloop
  endfacet
  facet normal -0.866025 0.500001 0
    outer loop
      vertex 38.1203 -14.8601 6.35
      vertex 38.1203 -14.8601 1.81978e-015
      vertex 37.9635 -15.1317 6.35
    endloop
  endfacet
  facet normal -0.866025 0.500001 0
    outer loop
      vertex 37.9635 -15.1317 6.35
      vertex 38.1203 -14.8601 1.81978e-015
      vertex 37.9635 -15.1317 1.85303e-015
    endloop
  endfacet
  facet normal -0.743145 0.66913 0
    outer loop
      vertex 37.9635 -15.1317 6.35
      vertex 37.9635 -15.1317 1.85303e-015
      vertex 37.7537 -15.3647 6.35
    endloop
  endfacet
  facet normal -0.743145 0.66913 0
    outer loop
      vertex 37.7537 -15.3647 6.35
      vertex 37.9635 -15.1317 1.85303e-015
      vertex 37.7537 -15.3647 1.88157e-015
    endloop
  endfacet
  facet normal -0.587785 0.809017 0
    outer loop
      vertex 37.7537 -15.3647 6.35
      vertex 37.7537 -15.3647 1.88157e-015
      vertex 37.5 -15.549 6.35
    endloop
  endfacet
  facet normal -0.587785 0.809017 0
    outer loop
      vertex 37.5 -15.549 6.35
      vertex 37.7537 -15.3647 1.88157e-015
      vertex 37.5 -15.549 1.90415e-015
    endloop
  endfacet
  facet normal -0.406737 0.913545 0
    outer loop
      vertex 37.5 -15.549 6.35
      vertex 37.5 -15.549 1.90415e-015
      vertex 37.2135 -15.6766 6.35
    endloop
  endfacet
  facet normal -0.406737 0.913545 0
    outer loop
      vertex 37.2135 -15.6766 6.35
      vertex 37.5 -15.549 1.90415e-015
      vertex 37.2135 -15.6766 1.91976e-015
    endloop
  endfacet
  facet normal -0.207912 0.978148 0
    outer loop
      vertex 37.2135 -15.6766 6.35
      vertex 37.2135 -15.6766 1.91976e-015
      vertex 36.9068 -15.7418 6.35
    endloop
  endfacet
  facet normal -0.207912 0.978148 0
    outer loop
      vertex 36.9068 -15.7418 6.35
      vertex 37.2135 -15.6766 1.91976e-015
      vertex 36.9068 -15.7418 1.92775e-015
    endloop
  endfacet
  facet normal 0 1 0
    outer loop
      vertex 36.9068 -15.7418 6.35
      vertex 36.9068 -15.7418 1.92775e-015
      vertex 36.5932 -15.7418 6.35
    endloop
  endfacet
  facet normal 0 1 0
    outer loop
      vertex 36.5932 -15.7418 6.35
      vertex 36.9068 -15.7418 1.92775e-015
      vertex 36.5932 -15.7418 1.92775e-015
    endloop
  endfacet
  facet normal 0.207912 0.978148 0
    outer loop
      vertex 36.5932 -15.7418 6.35
      vertex 36.5932 -15.7418 1.92775e-015
      vertex 36.2865 -15.6766 6.35
    endloop
  endfacet
  facet normal 0.207912 0.978148 0
    outer loop
      vertex 36.2865 -15.6766 6.35
      vertex 36.5932 -15.7418 1.92775e-015
      vertex 36.2865 -15.6766 1.91976e-015
    endloop
  endfacet
  facet normal 0.406737 0.913545 0
    outer loop
      vertex 36.2865 -15.6766 6.35
      vertex 36.2865 -15.6766 1.91976e-015
      vertex 36 -15.549 6.35
    endloop
  endfacet
  facet normal 0.406737 0.913545 0
    outer loop
      vertex 36 -15.549 6.35
      vertex 36.2865 -15.6766 1.91976e-015
      vertex 36 -15.549 1.90415e-015
    endloop
  endfacet
  facet normal 0.587785 0.809017 0
    outer loop
      vertex 36 -15.549 6.35
      vertex 36 -15.549 1.90415e-015
      vertex 35.7463 -15.3647 6.35
    endloop
  endfacet
  facet normal 0.587785 0.809017 0
    outer loop
      vertex 35.7463 -15.3647 6.35
      vertex 36 -15.549 1.90415e-015
      vertex 35.7463 -15.3647 1.88157e-015
    endloop
  endfacet
  facet normal 0.743145 0.66913 0
    outer loop
      vertex 35.5365 -15.1317 6.35
      vertex 35.7463 -15.3647 6.35
      vertex 35.7463 -15.3647 1.88157e-015
    endloop
  endfacet
  facet normal 0.743145 0.66913 0
    outer loop
      vertex 35.5365 -15.1317 1.85303e-015
      vertex 35.5365 -15.1317 6.35
      vertex 35.7463 -15.3647 1.88157e-015
    endloop
  endfacet
  facet normal 0.866025 0.500001 0
    outer loop
      vertex 35.3797 -14.8601 6.35
      vertex 35.5365 -15.1317 6.35
      vertex 35.5365 -15.1317 1.85303e-015
    endloop
  endfacet
  facet normal 0.866025 0.500001 0
    outer loop
      vertex 35.3797 -14.8601 1.81978e-015
      vertex 35.3797 -14.8601 6.35
      vertex 35.5365 -15.1317 1.85303e-015
    endloop
  endfacet
  facet normal 0.951057 0.309017 0
    outer loop
      vertex 35.2828 -14.5619 6.35
      vertex 35.3797 -14.8601 6.35
      vertex 35.3797 -14.8601 1.81978e-015
    endloop
  endfacet
  facet normal 0.951057 0.309017 0
    outer loop
      vertex 35.2828 -14.5619 1.78326e-015
      vertex 35.2828 -14.5619 6.35
      vertex 35.3797 -14.8601 1.81978e-015
    endloop
  endfacet
endsolid OpenSCAD_Model
